0
SECTION
2
HEADER
9
$INSUNITS
70
4
9
$ACADVER
1
AC1014
9
$HANDSEED
5
FFFF
0
ENDSEC
0
SECTION
2
TABLES
0
TABLE
2
VPORT
5
8
100
AcDbSymbolTable
0
ENDTAB
0
TABLE
2
LTYPE
5
5
100
AcDbSymbolTable
0
LTYPE
5
14
100
AcDbSymbolTableRecord
100
AcDbLinetypeTableRecord
2
BYBLOCK
70
0
0
LTYPE
5
15
100
AcDbSymbolTableRecord
100
AcDbLinetypeTableRecord
2
BYLAYER
70
0
0
ENDTAB
0
TABLE
2
LAYER
5
2
100
AcDbSymbolTable
70
2
0
LAYER
5
50
100
AcDbSymbolTableRecord
100
AcDbLayerTableRecord
2
0
70
0
6
CONTINUOUS
0
ENDTAB
0
TABLE
2
STYLE
5
3
100
AcDbSymbolTable
70
1
0
STYLE
5
11
100
AcDbSymbolTableRecord
100
AcDbTextStyleTableRecord
2
STANDARD
70
0
0
ENDTAB
0
TABLE
2
VIEW
5
6
100
AcDbSymbolTable
70
0
0
ENDTAB
0
TABLE
2
UCS
5
7
100
AcDbSymbolTable
70
0
0
ENDTAB
0
TABLE
2
APPID
5
9
100
AcDbSymbolTable
70
2
0
APPID
5
12
100
AcDbSymbolTableRecord
100
AcDbRegAppTableRecord
2
ACAD
70
0
0
ENDTAB
0
TABLE
2
DIMSTYLE
5
A
100
AcDbSymbolTable
70
1
0
ENDTAB
0
TABLE
2
BLOCK_RECORD
5
1
100
AcDbSymbolTable
70
1
0
BLOCK_RECORD
5
1F
100
AcDbSymbolTableRecord
100
AcDbBlockTableRecord
2
*MODEL_SPACE
0
BLOCK_RECORD
5
1B
100
AcDbSymbolTableRecord
100
AcDbBlockTableRecord
2
*PAPER_SPACE
0
ENDTAB
0
ENDSEC
0
SECTION
2
BLOCKS
0
BLOCK
5
20
100
AcDbEntity
100
AcDbBlockBegin
2
*MODEL_SPACE
0
ENDBLK
5
21
100
AcDbEntity
100
AcDbBlockEnd
0
BLOCK
5
1C
100
AcDbEntity
100
AcDbBlockBegin
2
*PAPER_SPACE
0
ENDBLK
5
1D
100
AcDbEntity
100
AcDbBlockEnd
0
ENDSEC
0
SECTION
2
ENTITIES
0
LWPOLYLINE
5
100
100
AcDbEntity
8
0
100
AcDbPolyline
90
4
70
1
43
0.0
10
-16.619199999999999
20
-21.575907000000004
10
-2.61965
20
-21.575907000000004
10
-2.61965
20
-35.575307000000009
10
-16.619199999999999
20
-35.575307000000009
0
LWPOLYLINE
5
101
100
AcDbEntity
8
0
100
AcDbPolyline
90
4
70
1
43
0.0
10
-52.337100000000007
20
-21.575907000000004
10
-38.3371
20
-21.575907000000004
10
-38.3371
20
-35.575307000000009
10
-52.337100000000007
20
-35.575307000000009
0
LWPOLYLINE
5
102
100
AcDbEntity
8
0
100
AcDbPolyline
90
4
70
1
43
0.0
10
-83.293999999999997
20
-21.575907000000004
10
-69.294700000000006
20
-21.575907000000004
10
-69.294700000000006
20
-35.575307000000009
10
-83.293999999999997
20
-35.575307000000009
0
LWPOLYLINE
5
103
100
AcDbEntity
8
0
100
AcDbPolyline
90
8
70
1
43
0.0
10
-161.875
20
-11.824907000000003
10
-161.876
20
-11.824907000000003
10
-161.876
20
-7.2250370000000022
10
-161.875
20
-7.2250370000000022
10
-161.875
20
-2.5259469999999999
10
-147.876
20
-2.5259469999999999
10
-147.876
20
-16.525407000000005
10
-161.875
20
-16.525407000000005
0
LWPOLYLINE
5
104
100
AcDbEntity
8
0
100
AcDbPolyline
90
4
70
1
43
0.0
10
-254.74400000000003
20
-21.575907000000001
10
-240.745
20
-21.575907000000001
10
-240.745
20
-35.575307000000002
10
-254.74400000000003
20
-35.575307000000002
0
LWPOLYLINE
5
105
100
AcDbEntity
8
0
100
AcDbPolyline
90
4
70
1
43
0.0
10
-178.54400000000001
20
-21.575907000000004
10
-164.54499999999999
20
-21.575907000000004
10
-164.54499999999999
20
-35.575307000000009
10
-178.54400000000001
20
-35.575307000000009
0
LWPOLYLINE
5
106
100
AcDbEntity
8
0
100
AcDbPolyline
90
4
70
1
43
0.0
10
-188.06900000000002
20
-40.626107000000005
10
-174.06999999999999
20
-40.626107000000005
10
-174.06999999999999
20
-54.62540700000001
10
-188.06900000000002
20
-54.62540700000001
0
LWPOLYLINE
5
107
100
AcDbEntity
8
0
100
AcDbPolyline
90
4
70
1
43
0.0
10
-264.26900000000001
20
-40.626107000000005
10
-250.27000000000001
20
-40.626107000000005
10
-250.27000000000001
20
-54.62540700000001
10
-264.26900000000001
20
-54.62540700000001
0
LWPOLYLINE
5
108
100
AcDbEntity
8
0
100
AcDbPolyline
90
4
70
1
43
0.0
10
-92.819000000000003
20
-40.626107000000005
10
-78.819699999999997
20
-40.626107000000005
10
-78.819699999999997
20
-54.62540700000001
10
-92.819000000000003
20
-54.62540700000001
0
LWPOLYLINE
5
109
100
AcDbEntity
8
0
100
AcDbPolyline
90
4
70
1
43
0.0
10
-69.006500000000003
20
-59.676107000000009
10
-55.007200000000005
20
-59.676107000000009
10
-55.007200000000005
20
-73.675407000000007
10
-69.006500000000003
20
-73.675407000000007
0
LWPOLYLINE
5
110
100
AcDbEntity
8
0
100
AcDbPolyline
90
4
70
1
43
0.0
10
-145.20699999999999
20
-59.676107000000009
10
-131.20699999999999
20
-59.676107000000009
10
-131.20699999999999
20
-73.675407000000007
10
-145.20699999999999
20
-73.675407000000007
0
LWPOLYLINE
5
111
100
AcDbEntity
8
0
100
AcDbPolyline
90
4
70
1
43
0.0
10
-240.45699999999999
20
-59.676107000000009
10
-226.45700000000002
20
-59.676107000000009
10
-226.45700000000002
20
-73.675407000000007
10
-240.45699999999999
20
-73.675407000000007
0
LWPOLYLINE
5
112
100
AcDbEntity
8
0
100
AcDbPolyline
90
4
70
1
43
0.0
10
-230.93200000000002
20
-78.726107000000013
10
-216.93200000000004
20
-78.726107000000013
10
-216.93200000000004
20
-92.725407000000004
10
-230.93200000000002
20
-92.725407000000004
0
LWPOLYLINE
5
113
100
AcDbEntity
8
0
100
AcDbPolyline
90
4
70
1
43
0.0
10
-154.732
20
-78.726107000000013
10
-140.732
20
-78.726107000000013
10
-140.732
20
-92.725407000000004
10
-154.732
20
-92.725407000000004
0
LWPOLYLINE
5
114
100
AcDbEntity
8
0
100
AcDbPolyline
90
4
70
1
43
0.0
10
-78.531499999999994
20
-78.726107000000013
10
-64.532200000000003
20
-78.726107000000013
10
-64.532200000000003
20
-92.725407000000004
10
-78.531499999999994
20
-92.725407000000004
0
LWPOLYLINE
5
115
100
AcDbEntity
8
0
100
AcDbPolyline
90
4
70
1
43
0.0
10
-16.619200000000003
20
-107.30130700000002
10
-2.61965
20
-107.30130700000002
10
-2.6196500000000009
20
-121.30030700000003
10
-16.619200000000003
20
-121.30030700000003
0
LWPOLYLINE
5
116
100
AcDbEntity
8
0
100
AcDbPolyline
90
4
70
1
43
0.0
10
-116.63200000000002
20
-121.30030700000003
10
-116.63200000000002
20
-107.30130700000002
10
-102.63200000000001
20
-107.30130700000002
10
-102.63200000000001
20
-121.30030700000003
0
LWPOLYLINE
5
117
100
AcDbEntity
8
0
100
AcDbPolyline
90
4
70
1
43
0.0
10
-202.35699999999997
20
-107.30130700000002
10
-188.357
20
-107.30130700000002
10
-188.357
20
-121.30030700000003
10
-202.35699999999997
20
-121.30030700000003
0
LWPOLYLINE
5
118
100
AcDbEntity
8
0
100
AcDbPolyline
90
4
70
1
43
0.0
10
-278.55700000000002
20
-59.676107000000009
10
-264.55700000000002
20
-59.676107000000009
10
-264.55700000000002
20
-73.675407000000007
10
-278.55700000000002
20
-73.675407000000007
0
LWPOLYLINE
5
119
100
AcDbEntity
8
0
100
AcDbPolyline
90
4
70
1
43
0.0
10
-296.726
20
-54.126107000000012
10
-303.726
20
-54.126107000000012
10
-303.726
20
-39.626107000000005
10
-296.726
20
-39.626107000000005
0
LWPOLYLINE
5
120
100
AcDbEntity
8
0
100
AcDbPolyline
90
4
70
1
43
0.0
10
-280.93700000000001
20
-2.5259469999999991
10
-266.93700000000001
20
-2.5259469999999999
10
-266.93700000000001
20
-16.525407000000008
10
-280.93700000000001
20
-16.525407000000008
0
LWPOLYLINE
5
121
100
AcDbEntity
8
0
100
AcDbPolyline
90
4
70
1
43
0.0
10
-349.99400000000003
20
-2.5259469999999977
10
-335.995
20
-2.5259469999999977
10
-335.995
20
-16.525407000000001
10
-349.99400000000003
20
-16.525407000000001
0
LWPOLYLINE
5
122
100
AcDbEntity
8
0
100
AcDbPolyline
90
4
70
1
43
0.0
10
-349.99400000000003
20
-59.676107000000009
10
-335.995
20
-59.676107000000009
10
-335.995
20
-73.675407000000007
10
-349.99400000000003
20
-73.675407000000007
0
LWPOLYLINE
5
123
100
AcDbEntity
8
0
100
AcDbPolyline
90
4
70
1
43
0.0
10
-299.10700000000003
20
-92.226107000000013
10
-306.10700000000003
20
-92.226107000000013
10
-306.10700000000003
20
-77.726106999999999
10
-299.10700000000003
20
-77.726106999999999
0
LWPOLYLINE
5
124
100
AcDbEntity
8
0
100
AcDbPolyline
90
4
70
1
43
0.0
10
-288.08199999999999
20
-107.30130700000002
10
-274.08199999999999
20
-107.30130700000002
10
-274.08199999999999
20
-121.30030700000003
10
-288.08199999999999
20
-121.30030700000003
0
LWPOLYLINE
5
125
100
AcDbEntity
8
0
100
AcDbPolyline
90
4
70
1
43
0.0
10
-369.04400000000004
20
-107.30130700000002
10
-355.04600000000005
20
-107.30130700000002
10
-355.04600000000005
20
-121.30030700000003
10
-369.04400000000004
20
-121.30030700000003
0
LWPOLYLINE
5
126
100
AcDbEntity
8
0
100
AcDbPolyline
90
4
70
1
43
0.0
10
-307.13200000000001
20
-107.30130700000002
10
-293.13200000000001
20
-107.30130700000002
10
-293.13200000000001
20
-121.30030700000003
10
-307.13200000000001
20
-121.30030700000003
0
LWPOLYLINE
5
127
100
AcDbEntity
8
0
100
AcDbPolyline
90
4
70
1
43
0.0
10
-275.10700000000008
20
-77.726106999999999
10
-275.10700000000008
20
-92.226107000000013
10
-282.10700000000008
20
-92.226107000000013
10
-282.10700000000008
20
-77.726106999999999
0
LWPOLYLINE
5
128
100
AcDbEntity
8
0
100
AcDbPolyline
90
4
70
1
43
0.0
10
-330.94400000000002
20
-59.676107000000009
10
-316.94499999999999
20
-59.676107000000009
10
-316.94499999999999
20
-73.675407000000007
10
-330.94400000000002
20
-73.675407000000007
0
LWPOLYLINE
5
129
100
AcDbEntity
8
0
100
AcDbPolyline
90
4
70
1
43
0.0
10
-349.99400000000003
20
-21.575907000000001
10
-335.995
20
-21.575907000000001
10
-335.995
20
-35.575307000000002
10
-349.99400000000003
20
-35.575307000000002
0
LWPOLYLINE
5
130
100
AcDbEntity
8
0
100
AcDbPolyline
90
4
70
1
43
0.0
10
-304.75
20
-2.5259469999999977
10
-290.75099999999998
20
-2.5259469999999977
10
-290.75099999999998
20
-16.525407000000005
10
-304.75
20
-16.525407000000001
0
LWPOLYLINE
5
131
100
AcDbEntity
8
0
100
AcDbPolyline
90
4
70
1
43
0.0
10
-291.96199999999999
20
-35.075907000000008
10
-298.96199999999999
20
-35.075907000000008
10
-298.96199999999999
20
-20.575907000000004
10
-291.96199999999999
20
-20.575907000000004
0
LWPOLYLINE
5
132
100
AcDbEntity
8
0
100
AcDbPolyline
90
4
70
1
43
0.0
10
-302.36900000000003
20
-59.676107000000009
10
-288.37
20
-59.676107000000009
10
-288.37
20
-73.675407000000007
10
-302.36900000000003
20
-73.675407000000007
0
LWPOLYLINE
5
133
100
AcDbEntity
8
0
100
AcDbPolyline
90
4
70
1
43
0.0
10
-249.982
20
-107.30130700000002
10
-235.98200000000003
20
-107.30130700000002
10
-235.98200000000003
20
-121.30030700000003
10
-249.982
20
-121.30030700000003
0
LWPOLYLINE
5
134
100
AcDbEntity
8
0
100
AcDbPolyline
90
4
70
1
43
0.0
10
-135.68200000000002
20
-107.30130700000002
10
-121.682
20
-107.30130700000002
10
-121.682
20
-121.30030700000003
10
-135.68200000000002
20
-121.30030700000003
0
LWPOLYLINE
5
135
100
AcDbEntity
8
0
100
AcDbPolyline
90
4
70
1
43
0.0
10
-40.4315
20
-107.30130700000002
10
-26.432200000000002
20
-107.30130700000002
10
-26.432200000000002
20
-121.30030700000003
10
-40.4315
20
-121.30030700000003
0
LWPOLYLINE
5
136
100
AcDbEntity
8
0
100
AcDbPolyline
90
4
70
1
43
0.0
10
-59.481499999999997
20
-78.726107000000013
10
-45.482199999999999
20
-78.726107000000013
10
-45.482199999999999
20
-92.725407000000004
10
-59.481499999999997
20
-92.725407000000004
0
LWPOLYLINE
5
137
100
AcDbEntity
8
0
100
AcDbPolyline
90
4
70
1
43
0.0
10
-135.68200000000002
20
-78.726107000000013
10
-121.682
20
-78.726107000000013
10
-121.682
20
-92.725407000000004
10
-135.68200000000002
20
-92.725407000000004
0
LWPOLYLINE
5
138
100
AcDbEntity
8
0
100
AcDbPolyline
90
4
70
1
43
0.0
10
-211.88200000000001
20
-78.726107000000013
10
-197.88200000000003
20
-78.726107000000013
10
-197.88200000000003
20
-92.725407000000004
10
-211.88200000000001
20
-92.725407000000004
0
LWPOLYLINE
5
139
100
AcDbEntity
8
0
100
AcDbPolyline
90
4
70
1
43
0.0
10
-221.40700000000004
20
-59.676107000000009
10
-207.40700000000004
20
-59.676107000000009
10
-207.40700000000004
20
-73.675407000000007
10
-221.40700000000004
20
-73.675407000000007
0
LWPOLYLINE
5
140
100
AcDbEntity
8
0
100
AcDbPolyline
90
4
70
1
43
0.0
10
-164.25700000000001
20
-59.676107000000009
10
-150.25700000000001
20
-59.676107000000009
10
-150.25700000000001
20
-73.675407000000007
10
-164.25700000000001
20
-73.675407000000007
0
LWPOLYLINE
5
141
100
AcDbEntity
8
0
100
AcDbPolyline
90
4
70
1
43
0.0
10
-88.0565
20
-59.676107000000009
10
-74.057199999999995
20
-59.676107000000009
10
-74.057199999999995
20
-73.675407000000007
10
-88.0565
20
-73.675407000000007
0
LWPOLYLINE
5
142
100
AcDbEntity
8
0
100
AcDbPolyline
90
4
70
1
43
0.0
10
-73.768999999999991
20
-40.626107000000005
10
-59.769700000000007
20
-40.626107000000005
10
-59.769700000000007
20
-54.62540700000001
10
-73.768999999999991
20
-54.62540700000001
0
LWPOLYLINE
5
143
100
AcDbEntity
8
0
100
AcDbPolyline
90
4
70
1
43
0.0
10
-149.96899999999999
20
-40.626107000000005
10
-135.97000000000003
20
-40.626107000000005
10
-135.97000000000003
20
-54.62540700000001
10
-149.96899999999999
20
-54.62540700000001
0
LWPOLYLINE
5
144
100
AcDbEntity
8
0
100
AcDbPolyline
90
4
70
1
43
0.0
10
-207.11900000000003
20
-40.626107000000005
10
-193.12
20
-40.626107000000005
10
-193.12
20
-54.62540700000001
10
-207.11900000000003
20
-54.62540700000001
0
LWPOLYLINE
5
145
100
AcDbEntity
8
0
100
AcDbPolyline
90
4
70
1
43
0.0
10
-159.494
20
-21.575907000000004
10
-145.495
20
-21.575907000000004
10
-145.495
20
-35.575307000000009
10
-159.494
20
-35.575307000000009
0
LWPOLYLINE
5
146
100
AcDbEntity
8
0
100
AcDbPolyline
90
4
70
1
43
0.0
10
-235.69400000000002
20
-21.575907000000001
10
-221.69499999999999
20
-21.575907000000001
10
-221.69499999999999
20
-35.575307000000002
10
-235.69400000000002
20
-35.575307000000002
0
LWPOLYLINE
5
147
100
AcDbEntity
8
0
100
AcDbPolyline
90
4
70
1
43
0.0
10
-201.37599999999998
20
-16.025947000000002
10
-208.37599999999998
20
-16.025947000000002
10
-208.37599999999998
20
-1.5259469999999986
10
-201.37599999999998
20
-1.5259469999999995
0
LWPOLYLINE
5
148
100
AcDbEntity
8
0
100
AcDbPolyline
90
4
70
1
43
0.0
10
-102.34400000000001
20
-21.575907000000004
10
-88.344700000000017
20
-21.575907000000004
10
-88.344700000000017
20
-35.575307000000009
10
-102.34400000000001
20
-35.575307000000009
0
LWPOLYLINE
5
149
100
AcDbEntity
8
0
100
AcDbPolyline
90
4
70
1
43
0.0
10
-53.837100000000007
20
-35.075907000000008
10
-60.837100000000007
20
-35.075907000000008
10
-60.837100000000007
20
-20.575907000000004
10
-53.837100000000007
20
-20.575907000000004
0
LWPOLYLINE
5
150
100
AcDbEntity
8
0
100
AcDbPolyline
90
4
70
1
43
0.0
10
-16.619199999999999
20
-2.5259470000000017
10
-2.61965
20
-2.5259470000000022
10
-2.61965
20
-16.525407000000008
10
-16.619199999999999
20
-16.525407000000008
0
LWPOLYLINE
5
151
100
AcDbEntity
8
0
100
AcDbPolyline
90
4
70
1
43
0.0
10
-16.619199999999999
20
-40.626107000000005
10
-2.61965
20
-40.626107000000005
10
-2.6196500000000005
20
-54.62540700000001
10
-16.619199999999999
20
-54.62540700000001
0
LWPOLYLINE
5
152
100
AcDbEntity
8
0
100
AcDbPolyline
90
4
70
1
43
0.0
10
-29.8371
20
-20.575907000000004
10
-29.8371
20
-35.075907000000008
10
-36.8371
20
-35.075907000000008
10
-36.8371
20
-20.575907000000004
0
LWPOLYLINE
5
153
100
AcDbEntity
8
0
100
AcDbPolyline
90
4
70
1
43
0.0
10
-90.437100000000015
20
-2.5259470000000004
10
-76.437100000000001
20
-2.5259469999999999
10
-76.437100000000001
20
-16.525407000000008
10
-90.437100000000015
20
-16.525407000000008
0
LWPOLYLINE
5
154
100
AcDbEntity
8
0
100
AcDbPolyline
90
4
70
1
43
0.0
10
-101.37600000000003
20
-1.5259469999999995
10
-101.37600000000003
20
-16.025947000000002
10
-108.37600000000002
20
-16.025947000000002
10
-108.37600000000002
20
-1.5259469999999986
0
LWPOLYLINE
5
155
100
AcDbEntity
8
0
100
AcDbPolyline
90
4
70
1
43
0.0
10
-257.125
20
-2.5259469999999999
10
-243.126
20
-2.5259469999999999
10
-243.126
20
-16.525407000000008
10
-257.125
20
-16.525407000000005
0
LWPOLYLINE
5
156
100
AcDbEntity
8
0
100
AcDbPolyline
90
4
70
1
43
0.0
10
-197.59400000000002
20
-21.575907000000004
10
-183.595
20
-21.575907000000004
10
-183.595
20
-35.575307000000009
10
-197.59400000000002
20
-35.575307000000009
0
LWPOLYLINE
5
157
100
AcDbEntity
8
0
100
AcDbPolyline
90
4
70
1
43
0.0
10
-169.01900000000001
20
-40.626107000000005
10
-155.02000000000004
20
-40.626107000000005
10
-155.02000000000004
20
-54.62540700000001
10
-169.01900000000001
20
-54.62540700000001
0
LWPOLYLINE
5
158
100
AcDbEntity
8
0
100
AcDbPolyline
90
4
70
1
43
0.0
10
-245.21900000000002
20
-40.626107000000005
10
-231.22
20
-40.626107000000005
10
-231.22
20
-54.62540700000001
10
-245.21900000000002
20
-54.62540700000001
0
LWPOLYLINE
5
159
100
AcDbEntity
8
0
100
AcDbPolyline
90
4
70
1
43
0.0
10
-111.86900000000001
20
-40.626107000000005
10
-97.869699999999995
20
-40.626107000000005
10
-97.869699999999995
20
-54.62540700000001
10
-111.86900000000001
20
-54.62540700000001
0
LWPOLYLINE
5
160
100
AcDbEntity
8
0
100
AcDbPolyline
90
4
70
1
43
0.0
10
-45.194000000000003
20
-59.676107000000009
10
-31.194700000000001
20
-59.676107000000009
10
-31.194700000000001
20
-73.675407000000007
10
-45.194000000000003
20
-73.675407000000007
0
LWPOLYLINE
5
161
100
AcDbEntity
8
0
100
AcDbPolyline
90
4
70
1
43
0.0
10
-126.15700000000002
20
-59.676107000000009
10
-112.15700000000001
20
-59.676107000000009
10
-112.15700000000001
20
-73.675407000000007
10
-126.15700000000002
20
-73.675407000000007
0
LWPOLYLINE
5
162
100
AcDbEntity
8
0
100
AcDbPolyline
90
4
70
1
43
0.0
10
-183.30700000000002
20
-59.676107000000009
10
-169.30700000000002
20
-59.676107000000009
10
-169.30700000000002
20
-73.675407000000007
10
-183.30700000000002
20
-73.675407000000007
0
LWPOLYLINE
5
163
100
AcDbEntity
8
0
100
AcDbPolyline
90
4
70
1
43
0.0
10
-249.982
20
-78.726107000000013
10
-235.98200000000003
20
-78.726107000000013
10
-235.98200000000003
20
-92.725407000000004
10
-249.982
20
-92.725407000000004
0
LWPOLYLINE
5
164
100
AcDbEntity
8
0
100
AcDbPolyline
90
4
70
1
43
0.0
10
-173.78199999999998
20
-78.726107000000013
10
-159.78200000000001
20
-78.726107000000013
10
-159.78200000000001
20
-92.725407000000004
10
-173.78199999999998
20
-92.725407000000004
0
LWPOLYLINE
5
165
100
AcDbEntity
8
0
100
AcDbPolyline
90
4
70
1
43
0.0
10
-97.581500000000005
20
-78.726107000000013
10
-83.582200000000014
20
-78.726107000000013
10
-83.582200000000014
20
-92.725407000000004
10
-97.581500000000005
20
-92.725407000000004
0
LWPOLYLINE
5
166
100
AcDbEntity
8
0
100
AcDbPolyline
90
4
70
1
43
0.0
10
-16.619199999999999
20
-78.726107000000013
10
-2.6196500000000023
20
-78.726107000000013
10
-2.6196500000000023
20
-92.725407000000004
10
-16.619199999999999
20
-92.725407000000004
0
LWPOLYLINE
5
167
100
AcDbEntity
8
0
100
AcDbPolyline
90
4
70
1
43
0.0
10
-97.581500000000005
20
-107.30130700000002
10
-83.582200000000014
20
-107.30130700000002
10
-83.582200000000014
20
-121.30030700000003
10
-97.581500000000005
20
-121.30030700000003
0
LWPOLYLINE
5
168
100
AcDbEntity
8
0
100
AcDbPolyline
90
4
70
1
43
0.0
10
-183.30700000000002
20
-107.30130700000002
10
-169.30700000000002
20
-107.30130700000002
10
-169.30700000000002
20
-121.30030700000003
10
-183.30700000000002
20
-121.30030700000003
0
LWPOLYLINE
5
169
100
AcDbEntity
8
0
100
AcDbPolyline
90
4
70
1
43
0.0
10
-269.03200000000004
20
-78.726107000000013
10
-255.03200000000004
20
-78.726107000000013
10
-255.03200000000004
20
-92.725407000000004
10
-269.03200000000004
20
-92.725407000000004
0
LWPOLYLINE
5
170
100
AcDbEntity
8
0
100
AcDbPolyline
90
8
70
1
43
0.0
10
-295.22500000000002
20
-49.924907000000012
10
-295.226
20
-49.924907000000012
10
-295.226
20
-45.325107000000003
10
-295.22500000000002
20
-45.325107000000003
10
-295.22500000000002
20
-40.626107000000005
10
-281.226
20
-40.626107000000005
10
-281.226
20
-54.62540700000001
10
-295.22500000000002
20
-54.62540700000001
0
LWPOLYLINE
5
171
100
AcDbEntity
8
0
100
AcDbPolyline
90
4
70
1
43
0.0
10
-267.96200000000005
20
-20.575907000000004
10
-267.96200000000005
20
-35.075907000000008
10
-274.96199999999999
20
-35.075907000000008
10
-274.96199999999999
20
-20.575907000000004
0
LWPOLYLINE
5
172
100
AcDbEntity
8
0
100
AcDbPolyline
90
4
70
1
43
0.0
10
-369.04400000000004
20
-2.5259469999999977
10
-355.04600000000005
20
-2.5259469999999977
10
-355.04600000000005
20
-16.525407000000001
10
-369.04400000000004
20
-16.525407000000001
0
LWPOLYLINE
5
173
100
AcDbEntity
8
0
100
AcDbPolyline
90
4
70
1
43
0.0
10
-369.04400000000004
20
-59.676107000000009
10
-355.04600000000005
20
-59.676107000000009
10
-355.04600000000005
20
-73.675407000000007
10
-369.04400000000004
20
-73.675407000000007
0
LWPOLYLINE
5
174
100
AcDbEntity
8
0
100
AcDbPolyline
90
4
70
1
43
0.0
10
-330.94400000000002
20
-78.726107000000013
10
-316.94499999999999
20
-78.726107000000013
10
-316.94499999999999
20
-92.725407000000004
10
-330.94400000000002
20
-92.725407000000004
0
LWPOLYLINE
5
175
100
AcDbEntity
8
0
100
AcDbPolyline
90
4
70
1
43
0.0
10
-269.03200000000004
20
-107.30130700000002
10
-255.03200000000004
20
-107.30130700000002
10
-255.03200000000004
20
-121.30030700000003
10
-269.03200000000004
20
-121.30030700000003
0
LWPOLYLINE
5
176
100
AcDbEntity
8
0
100
AcDbPolyline
90
4
70
1
43
0.0
10
-349.99400000000003
20
-107.30130700000002
10
-335.995
20
-107.30130700000002
10
-335.995
20
-121.30030700000003
10
-349.99400000000003
20
-121.30030700000003
0
LWPOLYLINE
5
177
100
AcDbEntity
8
0
100
AcDbPolyline
90
4
70
1
43
0.0
10
-330.94400000000002
20
-107.30130700000002
10
-316.94499999999999
20
-107.30130700000002
10
-316.94499999999999
20
-121.30030700000003
10
-330.94400000000002
20
-121.30030700000003
0
LWPOLYLINE
5
178
100
AcDbEntity
8
0
100
AcDbPolyline
90
4
70
1
43
0.0
10
-297.60700000000003
20
-78.726107000000013
10
-283.60700000000003
20
-78.726107000000013
10
-283.60700000000003
20
-92.725407000000004
10
-297.60700000000003
20
-92.725407000000004
0
LWPOLYLINE
5
179
100
AcDbEntity
8
0
100
AcDbPolyline
90
4
70
1
43
0.0
10
-349.99400000000003
20
-78.726107000000013
10
-335.995
20
-78.726107000000013
10
-335.995
20
-92.725407000000004
10
-349.99400000000003
20
-92.725407000000004
0
LWPOLYLINE
5
180
100
AcDbEntity
8
0
100
AcDbPolyline
90
4
70
1
43
0.0
10
-369.04400000000004
20
-78.726107000000013
10
-355.04600000000005
20
-78.726107000000013
10
-355.04600000000005
20
-92.725407000000004
10
-369.04400000000004
20
-92.725407000000004
0
LWPOLYLINE
5
181
100
AcDbEntity
8
0
100
AcDbPolyline
90
4
70
1
43
0.0
10
-330.94400000000002
20
-2.5259469999999986
10
-316.94499999999999
20
-2.5259469999999977
10
-316.94499999999999
20
-16.525407000000001
10
-330.94400000000002
20
-16.525407000000001
0
LWPOLYLINE
5
182
100
AcDbEntity
8
0
100
AcDbPolyline
90
4
70
1
43
0.0
10
-290.46199999999999
20
-21.575907000000001
10
-276.46199999999999
20
-21.575907000000001
10
-276.46199999999999
20
-35.575307000000002
10
-290.46199999999999
20
-35.575307000000002
0
LWPOLYLINE
5
183
100
AcDbEntity
8
0
100
AcDbPolyline
90
4
70
1
43
0.0
10
-272.72600000000006
20
-39.626107000000005
10
-272.72600000000006
20
-54.126107000000012
10
-279.72600000000006
20
-54.126107000000012
10
-279.72600000000006
20
-39.626107000000005
0
LWPOLYLINE
5
184
100
AcDbEntity
8
0
100
AcDbPolyline
90
4
70
1
43
0.0
10
-221.40700000000004
20
-107.30130700000002
10
-207.40700000000004
20
-107.30130700000002
10
-207.40700000000004
20
-121.30030700000003
10
-221.40700000000004
20
-121.30030700000003
0
LWPOLYLINE
5
185
100
AcDbEntity
8
0
100
AcDbPolyline
90
4
70
1
43
0.0
10
-164.25700000000001
20
-107.30130700000002
10
-150.25700000000001
20
-107.30130700000002
10
-150.25700000000001
20
-121.30030700000003
10
-164.25700000000001
20
-121.30030700000003
0
LWPOLYLINE
5
186
100
AcDbEntity
8
0
100
AcDbPolyline
90
4
70
1
43
0.0
10
-78.531499999999994
20
-107.30130700000002
10
-64.532200000000003
20
-107.30130700000002
10
-64.532200000000003
20
-121.30030700000003
10
-78.531499999999994
20
-121.30030700000003
0
LWPOLYLINE
5
187
100
AcDbEntity
8
0
100
AcDbPolyline
90
4
70
1
43
0.0
10
-40.4315
20
-78.726107000000013
10
-26.432200000000002
20
-78.726107000000013
10
-26.432200000000002
20
-92.725407000000004
10
-40.4315
20
-92.725407000000004
0
LWPOLYLINE
5
188
100
AcDbEntity
8
0
100
AcDbPolyline
90
4
70
1
43
0.0
10
-116.63200000000002
20
-78.726107000000013
10
-102.63200000000001
20
-78.726107000000013
10
-102.63200000000001
20
-92.725407000000004
10
-116.63200000000002
20
-92.725407000000004
0
LWPOLYLINE
5
189
100
AcDbEntity
8
0
100
AcDbPolyline
90
4
70
1
43
0.0
10
-192.83199999999997
20
-78.726107000000013
10
-178.83199999999999
20
-78.726107000000013
10
-178.83199999999999
20
-92.725407000000004
10
-192.83199999999997
20
-92.725407000000004
0
LWPOLYLINE
5
190
100
AcDbEntity
8
0
100
AcDbPolyline
90
4
70
1
43
0.0
10
-259.50700000000001
20
-59.676107000000009
10
-245.50700000000003
20
-59.676107000000009
10
-245.50700000000003
20
-73.675407000000007
10
-259.50700000000001
20
-73.675407000000007
0
LWPOLYLINE
5
191
100
AcDbEntity
8
0
100
AcDbPolyline
90
4
70
1
43
0.0
10
-202.35699999999997
20
-59.676107000000009
10
-188.357
20
-59.676107000000009
10
-188.357
20
-73.675407000000007
10
-202.35699999999997
20
-73.675407000000007
0
LWPOLYLINE
5
192
100
AcDbEntity
8
0
100
AcDbPolyline
90
4
70
1
43
0.0
10
-107.10700000000003
20
-59.676107000000009
10
-93.10720000000002
20
-59.676107000000009
10
-93.10720000000002
20
-73.675407000000007
10
-107.10700000000003
20
-73.675407000000007
0
LWPOLYLINE
5
193
100
AcDbEntity
8
0
100
AcDbPolyline
90
4
70
1
43
0.0
10
-47.575299999999999
20
-40.626107000000005
10
-33.575900000000004
20
-40.626107000000005
10
-33.575900000000004
20
-54.62540700000001
10
-47.575299999999999
20
-54.62540700000001
0
LWPOLYLINE
5
194
100
AcDbEntity
8
0
100
AcDbPolyline
90
4
70
1
43
0.0
10
-130.91899999999998
20
-40.626107000000005
10
-116.92
20
-40.626107000000005
10
-116.92
20
-54.62540700000001
10
-130.91899999999998
20
-54.62540700000001
0
LWPOLYLINE
5
195
100
AcDbEntity
8
0
100
AcDbPolyline
90
4
70
1
43
0.0
10
-226.16900000000001
20
-40.626107000000005
10
-212.16999999999999
20
-40.626107000000005
10
-212.16999999999999
20
-54.62540700000001
10
-226.16900000000001
20
-54.62540700000001
0
LWPOLYLINE
5
196
100
AcDbEntity
8
0
100
AcDbPolyline
90
4
70
1
43
0.0
10
-140.44399999999999
20
-21.575907000000004
10
-126.44500000000001
20
-21.575907000000004
10
-126.44500000000001
20
-35.575307000000009
10
-140.44399999999999
20
-35.575307000000009
0
LWPOLYLINE
5
197
100
AcDbEntity
8
0
100
AcDbPolyline
90
4
70
1
43
0.0
10
-216.64400000000001
20
-21.575907000000001
10
-202.64500000000001
20
-21.575907000000001
10
-202.64500000000001
20
-35.575307000000002
10
-216.64400000000001
20
-35.575307000000002
0
LWPOLYLINE
5
198
100
AcDbEntity
8
0
100
AcDbPolyline
90
4
70
1
43
0.0
10
-233.31200000000001
20
-2.5259469999999999
10
-219.31200000000004
20
-2.5259469999999999
10
-219.31200000000004
20
-16.525407000000005
10
-233.31200000000001
20
-16.525407000000005
0
LWPOLYLINE
5
199
100
AcDbEntity
8
0
100
AcDbPolyline
90
4
70
1
43
0.0
10
-121.39400000000001
20
-21.575907000000004
10
-107.395
20
-21.575907000000004
10
-107.395
20
-35.575307000000009
10
-121.39400000000001
20
-35.575307000000009
0
LWPOLYLINE
5
200
100
AcDbEntity
8
0
100
AcDbPolyline
90
4
70
1
43
0.0
10
-66.62530000000001
20
-2.5259469999999999
10
-52.626000000000005
20
-2.5259469999999999
10
-52.626000000000005
20
-16.525407000000008
10
-66.62530000000001
20
-16.525407000000008
0
LWPOLYLINE
5
201
100
AcDbEntity
8
0
100
AcDbPolyline
90
4
70
1
43
0.0
10
-42.811999999999998
20
-2.5259470000000013
10
-28.811999999999998
20
-2.5259469999999999
10
-28.811999999999998
20
-16.525407000000008
10
-42.811999999999998
20
-16.525407000000008
0
LWPOLYLINE
5
202
100
AcDbEntity
8
0
100
AcDbPolyline
90
4
70
1
43
0.0
10
-16.619199999999999
20
-59.676107000000009
10
-2.61965
20
-59.676107000000009
10
-2.61965
20
-73.675407000000007
10
-16.619199999999999
20
-73.675407000000007
0
LWPOLYLINE
5
203
100
AcDbEntity
8
0
100
AcDbPolyline
90
48
70
1
43
0.0
10
-192.33200000000011
20
-128.83765349999993
10
-189.03200000000004
20
-124.43765349999993
42
-0.49999999999998451
10
-182.63200000000009
20
-124.43765349999985
10
-179.33199999999999
20
-128.83765349999993
10
-97.957000000000178
20
-128.83765350000004
10
-94.657000000000096
20
-124.43765349999991
42
-0.50000000000000477
10
-88.257000000000062
20
-124.43765349999994
10
-84.957000000000065
20
-128.83765349999993
10
-4.3686760103769728
20
-128.83765350000004
10
-1.5989929526472904
20
-124.16197140645174
42
-0.12596795110232287
10
0.24231790645174778
20
-122.32066054735257
10
4.9179999999999069
20
-119.55097748962302
10
4.9179999999999069
20
-68.412653499999848
10
0.51799999999993407
20
-65.112653499999936
42
-0.50000000000000089
10
0.51799999999985857
20
-58.712653499999945
10
4.9179999999999069
20
-55.412653499999784
10
4.9179999999999069
20
-4.2743295103767665
10
0.24231790645174972
20
-1.5046464526472949
42
-0.12596795110237316
10
-1.5989929526472924
20
0.33666440645196527
10
-4.3686760103768307
20
5.0123465000000778
10
-84.957000000000164
20
5.01234650000006
10
-88.25700000000009
20
0.61234650000006052
42
-0.499999999999996
10
-94.657000000000124
20
0.61234650000009916
10
-97.956999999999994
20
5.01234650000006
10
-179.33199999999999
20
5.0123465000000422
10
-182.63200000000006
20
0.61234650000006385
42
-0.49999999999999795
10
-189.03200000000012
20
0.61234650000010826
10
-192.33199999999997
20
5.0123465000000422
10
-273.70700000000011
20
5.0123465000000422
10
-277.00700000000006
20
0.6123465000000583
42
-0.50000000000000167
10
-283.4070000000001
20
0.61234650000004553
10
-286.70700000000005
20
5.0123465000000245
10
-367.29532398962397
20
5.0123465000000245
10
-370.06500704735242
20
0.33666440645232804
42
-0.12596795110238918
10
-371.90631790645222
20
-1.504646452647505
10
-376.58200000000011
20
-4.2743295103762513
10
-376.58200000000011
20
-55.412653499999919
10
-372.18200000000013
20
-58.712653499999917
42
-0.49999999999999506
10
-372.18200000000002
20
-65.112653499999993
10
-376.58200000000011
20
-68.412653499999948
10
-376.58200000000011
20
-119.55097748962314
10
-371.90631790645193
20
-122.32066054735257
42
-0.1259679511023595
10
-370.06500704735276
20
-124.16197140645187
10
-367.29532398962317
20
-128.83765350000004
10
-286.70700000000016
20
-128.83765350000004
10
-283.40700000000004
20
-124.43765349999987
42
-0.49999999999999667
10
-277.00700000000012
20
-124.43765349999995
10
-273.70700000000005
20
-128.83765349999999
0
ENDSEC
0
SECTION
2
OBJECTS
0
DICTIONARY
5
C
100
AcDbDictionary
3
ACAD_GROUP
350
D
3
ACAD_MLINESTYLE
350
17
0
DICTIONARY
5
D
100
AcDbDictionary
0
DICTIONARY
5
1A
330
C
100
AcDbDictionary
0
DICTIONARY
5
17
100
AcDbDictionary
0
ENDSEC
0
EOF
