0
SECTION
2
HEADER
9
$INSUNITS
70
4
9
$ACADVER
1
AC1014
9
$HANDSEED
5
FFFF
0
ENDSEC
0
SECTION
2
TABLES
0
TABLE
2
VPORT
5
8
100
AcDbSymbolTable
0
ENDTAB
0
TABLE
2
LTYPE
5
5
100
AcDbSymbolTable
0
LTYPE
5
14
100
AcDbSymbolTableRecord
100
AcDbLinetypeTableRecord
2
BYBLOCK
70
0
0
LTYPE
5
15
100
AcDbSymbolTableRecord
100
AcDbLinetypeTableRecord
2
BYLAYER
70
0
0
ENDTAB
0
TABLE
2
LAYER
5
2
100
AcDbSymbolTable
70
2
0
LAYER
5
50
100
AcDbSymbolTableRecord
100
AcDbLayerTableRecord
2
0
70
0
6
CONTINUOUS
0
ENDTAB
0
TABLE
2
STYLE
5
3
100
AcDbSymbolTable
70
1
0
STYLE
5
11
100
AcDbSymbolTableRecord
100
AcDbTextStyleTableRecord
2
STANDARD
70
0
0
ENDTAB
0
TABLE
2
VIEW
5
6
100
AcDbSymbolTable
70
0
0
ENDTAB
0
TABLE
2
UCS
5
7
100
AcDbSymbolTable
70
0
0
ENDTAB
0
TABLE
2
APPID
5
9
100
AcDbSymbolTable
70
2
0
APPID
5
12
100
AcDbSymbolTableRecord
100
AcDbRegAppTableRecord
2
ACAD
70
0
0
ENDTAB
0
TABLE
2
DIMSTYLE
5
A
100
AcDbSymbolTable
70
1
0
ENDTAB
0
TABLE
2
BLOCK_RECORD
5
1
100
AcDbSymbolTable
70
1
0
BLOCK_RECORD
5
1F
100
AcDbSymbolTableRecord
100
AcDbBlockTableRecord
2
*MODEL_SPACE
0
BLOCK_RECORD
5
1B
100
AcDbSymbolTableRecord
100
AcDbBlockTableRecord
2
*PAPER_SPACE
0
ENDTAB
0
ENDSEC
0
SECTION
2
BLOCKS
0
BLOCK
5
20
100
AcDbEntity
100
AcDbBlockBegin
2
*MODEL_SPACE
0
ENDBLK
5
21
100
AcDbEntity
100
AcDbBlockEnd
0
BLOCK
5
1C
100
AcDbEntity
100
AcDbBlockBegin
2
*PAPER_SPACE
0
ENDBLK
5
1D
100
AcDbEntity
100
AcDbBlockEnd
0
ENDSEC
0
SECTION
2
ENTITIES
0
LWPOLYLINE
5
100
100
AcDbEntity
8
0
100
AcDbPolyline
90
48
70
1
43
0.0
10
0.60000000000000187
20
-59.225561984994684
10
5.0000000000000169
20
-55.925561984994665
10
5.0000000000000195
20
-4.787237995370992
10
0.32431790645218728
20
-2.0175549376422492
42
-0.12596795110240452
10
-1.5169929526476045
20
-0.17624407854241742
10
-4.2866760103761292
20
4.4994380150052766
10
-84.875000000000043
20
4.4994380150052855
10
-88.174999999999983
20
0.099438015005299252
42
-0.50000000000000189
10
-94.574999999999989
20
0.09943801500530175
10
-97.874999999999943
20
4.4994380150052873
10
-179.25000000000011
20
4.4994380150052944
10
-182.54999999999995
20
0.099438015005360314
42
-0.50000000000000389
10
-188.94999999999996
20
0.099438015005295921
10
-192.25000000000011
20
4.4994380150052944
10
-273.62500000000011
20
4.4994380150053033
10
-276.92499999999995
20
0.099438015005338665
42
-0.50000000000000444
10
-283.32499999999999
20
0.099438015005312574
10
-286.62499999999989
20
4.4994380150053033
10
-367.21332398962329
20
4.4994380150053219
10
-369.98300704735266
20
-0.17624407854279656
42
-0.12596795110235759
10
-371.82431790645182
20
-2.0175549376420547
10
-376.5
20
-4.7872379953715232
10
-376.5
20
-55.925561984994545
10
-372.09999999999991
20
-59.225561984994712
42
-0.500000000000003
10
-372.10000000000002
20
-65.625561984994718
10
-376.5
20
-68.925561984994616
10
-376.5
20
-120.06388597461778
10
-371.82431790645182
20
-122.83356903234731
42
-0.12596795110232986
10
-369.98300704735266
20
-124.67487989144647
10
-367.21332398962306
20
-129.35056198499478
10
-286.625
20
-129.3505619849947
10
-283.32499999999999
20
-124.95056198499469
42
-0.50000000000000389
10
-276.92500000000001
20
-124.95056198499468
10
-273.62499999999989
20
-129.35056198499478
10
-192.25000000000009
20
-129.3505619849947
10
-188.94999999999999
20
-124.95056198499461
42
-0.49999999999999339
10
-182.55000000000001
20
-124.95056198499468
10
-179.24999999999997
20
-129.3505619849947
10
-97.875000000000014
20
-129.3505619849947
10
-94.574999999999974
20
-124.95056198499469
42
-0.49999999999999911
10
-88.175000000000011
20
-124.95056198499464
10
-84.874999999999858
20
-129.35056198499478
10
-4.2866760103768442
20
-129.35056198499478
10
-1.5169929526473516
20
-124.67487989144655
42
-0.12596795110235579
10
0.32431790645183367
20
-122.83356903234733
10
5.0000000000000133
20
-120.06388597461785
10
5.0000000000000009
20
-68.925561984994687
10
0.5999999999999861
20
-65.625561984994704
42
-0.50000000000000033
0
ENDSEC
0
SECTION
2
OBJECTS
0
DICTIONARY
5
C
100
AcDbDictionary
3
ACAD_GROUP
350
D
3
ACAD_MLINESTYLE
350
17
0
DICTIONARY
5
D
100
AcDbDictionary
0
DICTIONARY
5
1A
330
C
100
AcDbDictionary
0
DICTIONARY
5
17
100
AcDbDictionary
0
ENDSEC
0
EOF
