G04 #@! TF.GenerationSoftware,KiCad,Pcbnew,7.0.2*
G04 #@! TF.CreationDate,2023-06-28T22:35:23-06:00*
G04 #@! TF.ProjectId,TKL_Keyboard,544b4c5f-4b65-4796-926f-6172642e6b69,rev?*
G04 #@! TF.SameCoordinates,Original*
G04 #@! TF.FileFunction,Copper,L1,Top*
G04 #@! TF.FilePolarity,Positive*
%FSLAX46Y46*%
G04 Gerber Fmt 4.6, Leading zero omitted, Abs format (unit mm)*
G04 Created by KiCad (PCBNEW 7.0.2) date 2023-06-28 22:35:23*
%MOMM*%
%LPD*%
G01*
G04 APERTURE LIST*
G04 #@! TA.AperFunction,ComponentPad*
%ADD10R,1.700000X1.700000*%
G04 #@! TD*
G04 #@! TA.AperFunction,ComponentPad*
%ADD11O,1.700000X1.700000*%
G04 #@! TD*
G04 #@! TA.AperFunction,ComponentPad*
%ADD12R,2.000000X2.000000*%
G04 #@! TD*
G04 #@! TA.AperFunction,ComponentPad*
%ADD13C,2.000000*%
G04 #@! TD*
G04 #@! TA.AperFunction,ComponentPad*
%ADD14R,3.200000X2.000000*%
G04 #@! TD*
G04 #@! TA.AperFunction,ComponentPad*
%ADD15C,0.700000*%
G04 #@! TD*
G04 #@! TA.AperFunction,ComponentPad*
%ADD16O,0.900000X1.700000*%
G04 #@! TD*
G04 #@! TA.AperFunction,ComponentPad*
%ADD17O,0.900000X2.400000*%
G04 #@! TD*
G04 #@! TA.AperFunction,ViaPad*
%ADD18C,0.800000*%
G04 #@! TD*
G04 #@! TA.AperFunction,Conductor*
%ADD19C,0.500000*%
G04 #@! TD*
G04 #@! TA.AperFunction,Conductor*
%ADD20C,0.250000*%
G04 #@! TD*
G04 #@! TA.AperFunction,Conductor*
%ADD21C,0.300000*%
G04 #@! TD*
G04 #@! TA.AperFunction,Conductor*
%ADD22C,0.200000*%
G04 #@! TD*
G04 APERTURE END LIST*
D10*
X89600000Y-30900000D03*
D11*
X89600000Y-33440000D03*
X89600000Y-35980000D03*
X89600000Y-38520000D03*
X89600000Y-41060000D03*
D12*
X30400000Y-35375000D03*
D13*
X30400000Y-40375000D03*
X30400000Y-37875000D03*
D14*
X37900000Y-32275000D03*
X37900000Y-43475000D03*
D13*
X44900000Y-40375000D03*
X44900000Y-35375000D03*
D15*
X79500000Y-33900000D03*
X80350000Y-33900000D03*
X81200000Y-33900000D03*
X82050000Y-33900000D03*
X82900000Y-33900000D03*
X83750000Y-33900000D03*
X84600000Y-33900000D03*
X85450000Y-33900000D03*
X85450000Y-32550000D03*
X84600000Y-32550000D03*
X83750000Y-32550000D03*
X82900000Y-32550000D03*
X82050000Y-32550000D03*
X81200000Y-32550000D03*
X80350000Y-32550000D03*
X79500000Y-32550000D03*
D16*
X78150000Y-29540000D03*
D17*
X78150000Y-32920000D03*
D16*
X86800000Y-29540000D03*
D17*
X86800000Y-32920000D03*
D18*
X87300000Y-50300000D03*
X84350000Y-53300000D03*
X85100000Y-55100000D03*
X68050000Y-51950000D03*
X75650000Y-36750000D03*
X78900000Y-57100000D03*
X76975000Y-33775000D03*
X96000000Y-49500000D03*
X80875500Y-47850000D03*
X92500000Y-40675000D03*
X84400000Y-47700000D03*
X93800000Y-30800000D03*
X79450000Y-36100000D03*
X76325000Y-51050000D03*
X76600000Y-36750000D03*
X67700000Y-45575000D03*
X76975000Y-34700000D03*
X78850000Y-34950000D03*
X78500000Y-43200000D03*
X79050000Y-53300000D03*
X67550000Y-47750000D03*
X75575000Y-55375000D03*
X83972527Y-42600734D03*
X77950000Y-34950000D03*
X72400000Y-72900000D03*
X73734378Y-47178830D03*
X73684341Y-48253465D03*
X73150000Y-90300000D03*
X90450000Y-110900000D03*
X73624500Y-49337905D03*
X83400000Y-110880498D03*
X94100000Y-110900000D03*
X95050000Y-127750000D03*
X74513475Y-49794774D03*
X81300000Y-38150000D03*
X83700000Y-38150000D03*
X84301791Y-44583281D03*
X87900000Y-42400000D03*
X86050000Y-41700000D03*
X83150000Y-43550000D03*
X49000000Y-41600000D03*
X71700000Y-45150000D03*
X73739538Y-45131461D03*
X71650000Y-46150000D03*
X73734087Y-46154522D03*
X60250000Y-105000000D03*
X53150000Y-67100000D03*
X64950000Y-124250000D03*
X53355000Y-38545000D03*
X72200000Y-41100000D03*
X75700000Y-40850000D03*
X55700000Y-143250000D03*
X57950000Y-86000000D03*
X100852500Y-85997500D03*
X115002500Y-124347500D03*
X105702500Y-105247500D03*
X103350000Y-143300000D03*
X91252500Y-67097500D03*
X78850000Y-51150500D03*
X110502500Y-67047500D03*
X134302500Y-124297500D03*
X119952500Y-86147500D03*
X124702500Y-105297500D03*
X79730120Y-48300000D03*
X110405000Y-38545000D03*
X143700000Y-105250000D03*
X101056323Y-55948498D03*
X83450000Y-52350000D03*
X139000000Y-86050000D03*
X127350000Y-53969000D03*
X153350000Y-124350000D03*
X129400000Y-38600000D03*
X129400000Y-67100000D03*
X148550000Y-38600000D03*
X84217839Y-51710134D03*
X101024500Y-54949503D03*
X147200000Y-53244500D03*
X157950000Y-86050000D03*
X172250000Y-124400000D03*
X162900000Y-105100000D03*
X148400000Y-67150000D03*
X186650000Y-67100000D03*
X200850000Y-105200000D03*
X196050000Y-38550000D03*
X196100000Y-86100000D03*
X185100000Y-51795500D03*
X210400000Y-124350000D03*
X101024500Y-52950497D03*
X88500000Y-48050000D03*
X101024500Y-51950994D03*
X229350000Y-124300000D03*
X204450000Y-51071000D03*
X215300000Y-38600000D03*
X205700000Y-67000000D03*
X219900000Y-105350000D03*
X89800000Y-47050000D03*
X215200000Y-86250000D03*
X94725500Y-46350000D03*
X223400000Y-50346500D03*
X238900000Y-105400000D03*
X234150000Y-38700000D03*
X101024500Y-50951491D03*
X224750000Y-67050000D03*
X248450000Y-124350000D03*
X234200000Y-86300000D03*
X246200000Y-143400000D03*
X250550000Y-49622000D03*
X269900000Y-143350000D03*
X258100000Y-105200000D03*
X253350000Y-86050000D03*
X94725500Y-45325402D03*
X101024500Y-49951988D03*
X267500000Y-124350000D03*
X243750000Y-67050000D03*
X262900000Y-38700000D03*
X318300000Y-137000000D03*
X281700000Y-67050000D03*
X300850000Y-38650000D03*
X291450000Y-86150000D03*
X101024500Y-47952982D03*
X308150000Y-105200000D03*
X93131651Y-43975500D03*
X289950000Y-48173000D03*
X101024500Y-46953479D03*
X92212078Y-43475500D03*
X309850000Y-47448500D03*
X320000000Y-38600000D03*
X315150000Y-86250000D03*
X310450000Y-67000000D03*
X101024500Y-45953976D03*
X342500000Y-46724000D03*
X343850000Y-38500000D03*
X343900000Y-67100000D03*
X343900000Y-86400000D03*
X343900000Y-143400000D03*
X91339390Y-42975500D03*
X362700000Y-143250000D03*
X362852500Y-38547500D03*
X362850000Y-66950000D03*
X362850000Y-124400000D03*
X101063443Y-44955232D03*
X361600000Y-45999500D03*
X362700000Y-86250000D03*
X81500000Y-39850000D03*
X381950000Y-38500000D03*
X381950000Y-67300000D03*
X80750000Y-39050000D03*
X101101666Y-43956461D03*
X381000000Y-45275000D03*
X86850000Y-39050000D03*
X90425500Y-34750000D03*
X381850000Y-143400000D03*
X381900000Y-86200000D03*
X29355000Y-143295000D03*
X71744115Y-43012729D03*
X29355000Y-85995000D03*
X29500000Y-67000000D03*
X29455000Y-105095000D03*
X29355000Y-124095000D03*
X74659028Y-44475500D03*
X86450000Y-105250000D03*
X75550000Y-61900000D03*
X76424500Y-69150000D03*
X81950000Y-86150000D03*
X81650000Y-136650000D03*
X94500000Y-125550000D03*
X77800000Y-51150500D03*
X165800000Y-52520000D03*
X177150000Y-86150000D03*
X84909134Y-50988250D03*
X174700000Y-143300000D03*
X167550000Y-67100000D03*
X191250000Y-124300000D03*
X177150000Y-38650000D03*
X181850000Y-105300000D03*
X101024500Y-53950000D03*
X83000000Y-35313750D03*
X81950000Y-35313750D03*
X94054814Y-44475500D03*
X281900000Y-38600000D03*
X272200000Y-86150000D03*
X262900000Y-67050000D03*
X101024500Y-48952485D03*
X277150000Y-105150000D03*
X293700000Y-143250000D03*
X293120000Y-121120000D03*
X270100000Y-48897500D03*
X99050000Y-148450000D03*
X75525000Y-49900000D03*
X95300000Y-58775500D03*
X70450000Y-50625000D03*
X106550000Y-44050000D03*
X71699498Y-44011235D03*
X73750000Y-43999500D03*
D19*
X80350000Y-32055026D02*
X80350000Y-32550000D01*
X84600000Y-32550000D02*
X84600000Y-32055026D01*
X84600000Y-32055026D02*
X84194974Y-31650000D01*
X84194974Y-31650000D02*
X80755026Y-31650000D01*
X80755026Y-31650000D02*
X80350000Y-32055026D01*
X79500000Y-33900000D02*
X79500000Y-34850000D01*
X85450000Y-32550000D02*
X85450000Y-31350000D01*
X85450000Y-33900000D02*
X85450000Y-34950000D01*
X79500000Y-32550000D02*
X79500000Y-31350000D01*
D20*
X72400000Y-72900000D02*
X72400000Y-69600000D01*
X71400000Y-49512501D02*
X73384036Y-47528465D01*
X73384036Y-47528465D02*
X73384743Y-47528465D01*
X72400000Y-69600000D02*
X71400000Y-68600000D01*
X73384743Y-47528465D02*
X73734378Y-47178830D01*
X71400000Y-68600000D02*
X71400000Y-49512501D01*
X72150000Y-49787100D02*
X73324195Y-48612905D01*
X73350000Y-69400000D02*
X72150000Y-68200000D01*
X73324195Y-48612905D02*
X73324901Y-48612905D01*
X73324901Y-48612905D02*
X73684341Y-48253465D01*
X73350000Y-90100000D02*
X73350000Y-69400000D01*
X73150000Y-90300000D02*
X73350000Y-90100000D01*
X72150000Y-68200000D02*
X72150000Y-49787100D01*
X72899500Y-67799500D02*
X72899500Y-50062198D01*
X73324902Y-49637503D02*
X73624500Y-49337905D01*
X72899500Y-50062198D02*
X73324195Y-49637503D01*
X74150000Y-69050000D02*
X72899500Y-67799500D01*
X74150000Y-101400000D02*
X74150000Y-69050000D01*
X83400000Y-110650000D02*
X74150000Y-101400000D01*
X73324195Y-49637503D02*
X73324902Y-49637503D01*
X90450000Y-110900000D02*
X94100000Y-110900000D01*
X83400000Y-110880498D02*
X83400000Y-110650000D01*
X73624500Y-50683749D02*
X73624500Y-67424500D01*
X74513475Y-49794774D02*
X73624500Y-50683749D01*
X73624500Y-67424500D02*
X74950000Y-68750000D01*
X95400000Y-121550000D02*
X95400000Y-127400000D01*
X74950000Y-68750000D02*
X74950000Y-101100000D01*
X95400000Y-127400000D02*
X95050000Y-127750000D01*
X74950000Y-101100000D02*
X95400000Y-121550000D01*
D19*
X83700000Y-38150000D02*
X81300000Y-38150000D01*
D20*
X84301791Y-44583281D02*
X85716719Y-44583281D01*
X85716719Y-44583281D02*
X87900000Y-42400000D01*
D21*
X86050000Y-41700000D02*
X84200000Y-43550000D01*
X84200000Y-43550000D02*
X83150000Y-43550000D01*
D20*
X49000000Y-39475000D02*
X44900000Y-35375000D01*
X49000000Y-41600000D02*
X49000000Y-39475000D01*
X71700000Y-45150000D02*
X71718539Y-45131461D01*
X71718539Y-45131461D02*
X73739538Y-45131461D01*
X71654522Y-46154522D02*
X73734087Y-46154522D01*
X71650000Y-46150000D02*
X71654522Y-46154522D01*
X72250000Y-41050000D02*
X72200000Y-41100000D01*
X75700000Y-40850000D02*
X75500000Y-41050000D01*
X75500000Y-41050000D02*
X72250000Y-41050000D01*
X53150000Y-81200000D02*
X53150000Y-67100000D01*
X55700000Y-143250000D02*
X55700000Y-133500000D01*
X60250000Y-88300000D02*
X57950000Y-86000000D01*
X53150000Y-67100000D02*
X53150000Y-38750000D01*
X57950000Y-86000000D02*
X53150000Y-81200000D01*
X55700000Y-133500000D02*
X64950000Y-124250000D01*
X64950000Y-124250000D02*
X64950000Y-109700000D01*
X60250000Y-105000000D02*
X60250000Y-88300000D01*
X53150000Y-38750000D02*
X53355000Y-38545000D01*
X64950000Y-109700000D02*
X60250000Y-105000000D01*
X88805000Y-64650000D02*
X91252500Y-67097500D01*
X105702500Y-105247500D02*
X115002500Y-114547500D01*
X83450000Y-64650000D02*
X88805000Y-64650000D01*
X77400000Y-52600000D02*
X77400000Y-58600000D01*
X103350000Y-136000000D02*
X103350000Y-143300000D01*
X78850000Y-51150500D02*
X78849500Y-51150500D01*
X115002500Y-124347500D02*
X103350000Y-136000000D01*
X91252500Y-67097500D02*
X100852500Y-76697500D01*
X100852500Y-100397500D02*
X105702500Y-105247500D01*
X100852500Y-76697500D02*
X100852500Y-85997500D01*
X78849500Y-51150500D02*
X77400000Y-52600000D01*
X115002500Y-114547500D02*
X115002500Y-124347500D01*
X100852500Y-85997500D02*
X100852500Y-100397500D01*
X77400000Y-58600000D02*
X83450000Y-64650000D01*
X110502500Y-59500000D02*
X110502500Y-67047500D01*
X124702500Y-90897500D02*
X124702500Y-105297500D01*
X79730120Y-51319880D02*
X77975000Y-53075000D01*
X77975000Y-58275000D02*
X79200000Y-59500000D01*
X119952500Y-86147500D02*
X124702500Y-90897500D01*
X110502500Y-38642500D02*
X110502500Y-59500000D01*
X79200000Y-59500000D02*
X110502500Y-59500000D01*
X134302500Y-114897500D02*
X134302500Y-124297500D01*
X77975000Y-53075000D02*
X77975000Y-58275000D01*
X124702500Y-105297500D02*
X134302500Y-114897500D01*
X110502500Y-67047500D02*
X119952500Y-76497500D01*
X79730120Y-48300000D02*
X79730120Y-51319880D01*
X119952500Y-76497500D02*
X119952500Y-86147500D01*
X110405000Y-38545000D02*
X110502500Y-38642500D01*
X127350000Y-53969000D02*
X129369000Y-53969000D01*
X153350000Y-114900000D02*
X153350000Y-124350000D01*
X83535134Y-52435134D02*
X84785134Y-52435134D01*
X129400000Y-38600000D02*
X129400000Y-54000000D01*
X143700000Y-105250000D02*
X153350000Y-114900000D01*
X129369000Y-53969000D02*
X129400000Y-54000000D01*
X143700000Y-90750000D02*
X143700000Y-105250000D01*
X84785134Y-52435134D02*
X88298498Y-55948498D01*
X129400000Y-54000000D02*
X129400000Y-67100000D01*
X83450000Y-52350000D02*
X83535134Y-52435134D01*
X129400000Y-67100000D02*
X139000000Y-76700000D01*
X139000000Y-76700000D02*
X139000000Y-86050000D01*
X139000000Y-86050000D02*
X143700000Y-90750000D01*
X88298498Y-55948498D02*
X101056323Y-55948498D01*
X148550000Y-53300000D02*
X148550000Y-67000000D01*
X84608829Y-51713250D02*
X85163250Y-51713250D01*
X148550000Y-67000000D02*
X148400000Y-67150000D01*
X157950000Y-76700000D02*
X157950000Y-86050000D01*
X148550000Y-38600000D02*
X148550000Y-53150000D01*
X157950000Y-86050000D02*
X162900000Y-91000000D01*
X148494500Y-53244500D02*
X148550000Y-53300000D01*
X148550000Y-53150000D02*
X148550000Y-53300000D01*
X84217839Y-51710134D02*
X84605713Y-51710134D01*
X88400000Y-54950000D02*
X101024003Y-54950000D01*
X147200000Y-53244500D02*
X148494500Y-53244500D01*
X101024003Y-54950000D02*
X101024500Y-54949503D01*
X85163250Y-51713250D02*
X88400000Y-54950000D01*
X162900000Y-91000000D02*
X162900000Y-105100000D01*
X172250000Y-114450000D02*
X172250000Y-124400000D01*
X148400000Y-67150000D02*
X157950000Y-76700000D01*
X162900000Y-105100000D02*
X172250000Y-114450000D01*
X84605713Y-51710134D02*
X84608829Y-51713250D01*
X185100000Y-51795500D02*
X186604500Y-51795500D01*
X92100000Y-51650000D02*
X97950000Y-51650000D01*
X196100000Y-86100000D02*
X200850000Y-90850000D01*
X210400000Y-114750000D02*
X210400000Y-124350000D01*
X97950000Y-51650000D02*
X99250497Y-52950497D01*
X186650000Y-67100000D02*
X196100000Y-76550000D01*
X186650000Y-47950000D02*
X186650000Y-51000000D01*
X200850000Y-105200000D02*
X210400000Y-114750000D01*
X196050000Y-38550000D02*
X186650000Y-47950000D01*
X88500000Y-48050000D02*
X92100000Y-51650000D01*
X186650000Y-51100000D02*
X186650000Y-51750000D01*
X196100000Y-76550000D02*
X196100000Y-86100000D01*
X186650000Y-51750000D02*
X186650000Y-67100000D01*
X186604500Y-51795500D02*
X186650000Y-51750000D01*
X200850000Y-90850000D02*
X200850000Y-105200000D01*
X99250497Y-52950497D02*
X101024500Y-52950497D01*
X186650000Y-51000000D02*
X186650000Y-51100000D01*
X205671000Y-51071000D02*
X205700000Y-51100000D01*
X89800000Y-47050000D02*
X93650000Y-50900000D01*
X205700000Y-67000000D02*
X205700000Y-51100000D01*
X204450000Y-51071000D02*
X205671000Y-51071000D01*
X215200000Y-86250000D02*
X219900000Y-90950000D01*
X205700000Y-51100000D02*
X205700000Y-48200000D01*
X98250000Y-50900000D02*
X99300994Y-51950994D01*
X219900000Y-90950000D02*
X219900000Y-105350000D01*
X205700000Y-67000000D02*
X215200000Y-76500000D01*
X215300000Y-38600000D02*
X205700000Y-48200000D01*
X219900000Y-105350000D02*
X229350000Y-114800000D01*
X99300994Y-51950994D02*
X101024500Y-51950994D01*
X215200000Y-76500000D02*
X215200000Y-86250000D01*
X93650000Y-50900000D02*
X98250000Y-50900000D01*
X229350000Y-114800000D02*
X229350000Y-124300000D01*
X99351491Y-50951491D02*
X101024500Y-50951491D01*
X234150000Y-38700000D02*
X224750000Y-48100000D01*
X224750000Y-50350000D02*
X224750000Y-67050000D01*
X94750000Y-46350000D02*
X99351491Y-50951491D01*
X238900000Y-91000000D02*
X238900000Y-105400000D01*
X223400000Y-50346500D02*
X224746500Y-50346500D01*
X234200000Y-86300000D02*
X238900000Y-91000000D01*
X224750000Y-48100000D02*
X224750000Y-50350000D01*
X238900000Y-105400000D02*
X248450000Y-114950000D01*
X248450000Y-114950000D02*
X248450000Y-124350000D01*
X246200000Y-126600000D02*
X246200000Y-143400000D01*
X94725500Y-46350000D02*
X94750000Y-46350000D01*
X224750000Y-67050000D02*
X234200000Y-76500000D01*
X234200000Y-76500000D02*
X234200000Y-86300000D01*
X224746500Y-50346500D02*
X224750000Y-50350000D01*
X248450000Y-124350000D02*
X246200000Y-126600000D01*
X258100000Y-105200000D02*
X267500000Y-114600000D01*
X243750000Y-67050000D02*
X253350000Y-76650000D01*
X258100000Y-90800000D02*
X258100000Y-105200000D01*
X251978000Y-49622000D02*
X250550000Y-49622000D01*
X269900000Y-126750000D02*
X269900000Y-143350000D01*
X253350000Y-86050000D02*
X258100000Y-90800000D01*
X252375000Y-49225000D02*
X262900000Y-38700000D01*
X94725500Y-45325402D02*
X99400098Y-50000000D01*
X267500000Y-114600000D02*
X267500000Y-124350000D01*
X252375000Y-49225000D02*
X243750000Y-57850000D01*
X100976488Y-50000000D02*
X101024500Y-49951988D01*
X267500000Y-124350000D02*
X269900000Y-126750000D01*
X252375000Y-49225000D02*
X251978000Y-49622000D01*
X243750000Y-57850000D02*
X243750000Y-67050000D01*
X253350000Y-76650000D02*
X253350000Y-86050000D01*
X99400098Y-50000000D02*
X100976488Y-50000000D01*
X318300000Y-115350000D02*
X318300000Y-137000000D01*
X291450000Y-76800000D02*
X291450000Y-86150000D01*
X291327000Y-48173000D02*
X289950000Y-48173000D01*
X93356651Y-43750500D02*
X95400500Y-43750500D01*
X291450000Y-86150000D02*
X291450000Y-88500000D01*
X291650000Y-47850000D02*
X281700000Y-57800000D01*
X291650000Y-47850000D02*
X300850000Y-38650000D01*
X99602982Y-47952982D02*
X101024500Y-47952982D01*
X281700000Y-57800000D02*
X281700000Y-67050000D01*
X308150000Y-105200000D02*
X318300000Y-115350000D01*
X291450000Y-88500000D02*
X308150000Y-105200000D01*
X281700000Y-67050000D02*
X291450000Y-76800000D01*
X95400500Y-43750500D02*
X99602982Y-47952982D01*
X291650000Y-47850000D02*
X291327000Y-48173000D01*
X93131651Y-43975500D02*
X93356651Y-43750500D01*
X311175000Y-47425000D02*
X320000000Y-38600000D01*
X310450000Y-48150000D02*
X310450000Y-67000000D01*
X311151500Y-47448500D02*
X309850000Y-47448500D01*
X92637578Y-43050000D02*
X95750000Y-43050000D01*
X310450000Y-48150000D02*
X311175000Y-47425000D01*
X99653479Y-46953479D02*
X101024500Y-46953479D01*
X310450000Y-67000000D02*
X310450000Y-81550000D01*
X92212078Y-43475500D02*
X92637578Y-43050000D01*
X311175000Y-47425000D02*
X311151500Y-47448500D01*
X310450000Y-81550000D02*
X315150000Y-86250000D01*
X95750000Y-43050000D02*
X99653479Y-46953479D01*
X343900000Y-86400000D02*
X343900000Y-67100000D01*
X343850000Y-46650000D02*
X343850000Y-67050000D01*
X99603976Y-45953976D02*
X101024500Y-45953976D01*
X96000000Y-42350000D02*
X99603976Y-45953976D01*
X343900000Y-143400000D02*
X343900000Y-86400000D01*
X343850000Y-38500000D02*
X343850000Y-46650000D01*
X91964890Y-42350000D02*
X96000000Y-42350000D01*
X343850000Y-46650000D02*
X342574000Y-46650000D01*
X343850000Y-67050000D02*
X343900000Y-67100000D01*
X91339390Y-42975500D02*
X91964890Y-42350000D01*
X342574000Y-46650000D02*
X342500000Y-46724000D01*
X362850000Y-46000000D02*
X362850000Y-66950000D01*
X81550000Y-39800000D02*
X86450000Y-39800000D01*
X99605232Y-44955232D02*
X101063443Y-44955232D01*
X86450000Y-39800000D02*
X89000000Y-42350000D01*
X81500000Y-39850000D02*
X81550000Y-39800000D01*
X362850000Y-38550000D02*
X362850000Y-46000000D01*
X90400000Y-42350000D02*
X91050000Y-41700000D01*
X89000000Y-42350000D02*
X90400000Y-42350000D01*
X362849500Y-45999500D02*
X362850000Y-46000000D01*
X361600000Y-45999500D02*
X362849500Y-45999500D01*
X91050000Y-41700000D02*
X96350000Y-41700000D01*
X362850000Y-86100000D02*
X362850000Y-66950000D01*
X362700000Y-124550000D02*
X362850000Y-124400000D01*
X362850000Y-86400000D02*
X362700000Y-86250000D01*
X362850000Y-124400000D02*
X362850000Y-86400000D01*
X96350000Y-41700000D02*
X99605232Y-44955232D01*
X362852500Y-38547500D02*
X362850000Y-38550000D01*
X362700000Y-143250000D02*
X362700000Y-124550000D01*
X362700000Y-86250000D02*
X362850000Y-86100000D01*
X92275000Y-36599500D02*
X92275000Y-38475000D01*
X381950000Y-45250000D02*
X381950000Y-38500000D01*
X90425500Y-34750000D02*
X92275000Y-36599500D01*
X92275000Y-38475000D02*
X94850000Y-41050000D01*
X99606461Y-43956461D02*
X101101666Y-43956461D01*
X381900000Y-86200000D02*
X381850000Y-86250000D01*
X381025000Y-45250000D02*
X381000000Y-45275000D01*
X96700000Y-41050000D02*
X99606461Y-43956461D01*
X381950000Y-45250000D02*
X381025000Y-45250000D01*
X381950000Y-67300000D02*
X381950000Y-86150000D01*
X94850000Y-41050000D02*
X96700000Y-41050000D01*
X86850000Y-39050000D02*
X80750000Y-39050000D01*
X381950000Y-67300000D02*
X381950000Y-45250000D01*
X381850000Y-86250000D02*
X381850000Y-143400000D01*
X381950000Y-86150000D02*
X381900000Y-86200000D01*
X29455000Y-105095000D02*
X30150000Y-104400000D01*
X29355000Y-105195000D02*
X29455000Y-105095000D01*
X29355000Y-124095000D02*
X29355000Y-105195000D01*
X73788534Y-43012729D02*
X74659028Y-43883223D01*
X29500000Y-55775000D02*
X44900000Y-40375000D01*
X29355000Y-67145000D02*
X29500000Y-67000000D01*
X30150000Y-86790000D02*
X29355000Y-85995000D01*
X29355000Y-143295000D02*
X29355000Y-124095000D01*
X71744115Y-43012729D02*
X73788534Y-43012729D01*
X29500000Y-67000000D02*
X29500000Y-55775000D01*
X29355000Y-85995000D02*
X29355000Y-67145000D01*
X74659028Y-43883223D02*
X74659028Y-44475500D01*
X30150000Y-104400000D02*
X30150000Y-86790000D01*
X77800000Y-51150500D02*
X76800000Y-52150500D01*
X81650000Y-136650000D02*
X84950000Y-136650000D01*
X94500000Y-127100000D02*
X94500000Y-125550000D01*
X81950000Y-100750000D02*
X81950000Y-86150000D01*
X76800000Y-52150500D02*
X76800000Y-60650000D01*
X86450000Y-105250000D02*
X81950000Y-100750000D01*
X76800000Y-60650000D02*
X75550000Y-61900000D01*
X84950000Y-136650000D02*
X94500000Y-127100000D01*
X81950000Y-74675500D02*
X76424500Y-69150000D01*
X81950000Y-86150000D02*
X81950000Y-74675500D01*
X181850000Y-90850000D02*
X181850000Y-105300000D01*
X84909134Y-50988250D02*
X85538250Y-50988250D01*
X85538250Y-50988250D02*
X88500000Y-53950000D01*
X167550000Y-67100000D02*
X177150000Y-76700000D01*
X167530000Y-52520000D02*
X167550000Y-52500000D01*
X167550000Y-52500000D02*
X167550000Y-67100000D01*
X191250000Y-114700000D02*
X191250000Y-124300000D01*
X88500000Y-53950000D02*
X101024500Y-53950000D01*
X177150000Y-86150000D02*
X181850000Y-90850000D01*
X191250000Y-124300000D02*
X174700000Y-140850000D01*
X177150000Y-76700000D02*
X177150000Y-86150000D01*
X165800000Y-52520000D02*
X167530000Y-52520000D01*
X167550000Y-48250000D02*
X167550000Y-52500000D01*
X174700000Y-140850000D02*
X174700000Y-143300000D01*
X177150000Y-38650000D02*
X167550000Y-48250000D01*
X181850000Y-105300000D02*
X191250000Y-114700000D01*
D22*
X83000000Y-35313750D02*
X82050000Y-34363750D01*
X82050000Y-34363750D02*
X82050000Y-33900000D01*
X82900000Y-33830761D02*
X82050000Y-32980761D01*
X82050000Y-32980761D02*
X82050000Y-32550000D01*
D20*
X94975500Y-44475500D02*
X99452485Y-48952485D01*
X99452485Y-48952485D02*
X101024500Y-48952485D01*
X271900000Y-48600000D02*
X281900000Y-38600000D01*
X293120000Y-121120000D02*
X293700000Y-121700000D01*
X271900000Y-48600000D02*
X271602500Y-48897500D01*
X271900000Y-48600000D02*
X262900000Y-57600000D01*
X277150000Y-91100000D02*
X277150000Y-105150000D01*
X271602500Y-48897500D02*
X270100000Y-48897500D01*
X272200000Y-76350000D02*
X272200000Y-86150000D01*
X94054814Y-44475500D02*
X94975500Y-44475500D01*
X262900000Y-67050000D02*
X272200000Y-76350000D01*
X262900000Y-57600000D02*
X262900000Y-67050000D01*
X272200000Y-86150000D02*
X277150000Y-91100000D01*
X293700000Y-121700000D02*
X293700000Y-143250000D01*
X293120000Y-121120000D02*
X277150000Y-105150000D01*
X75700000Y-68450000D02*
X75700000Y-100800000D01*
X96100000Y-126774695D02*
X99050000Y-129724695D01*
X75700000Y-100800000D02*
X96100000Y-121200000D01*
X74350000Y-67100000D02*
X75700000Y-68450000D01*
X74350000Y-51075000D02*
X74350000Y-67100000D01*
X99050000Y-129724695D02*
X99050000Y-148450000D01*
X75525000Y-49900000D02*
X74350000Y-51075000D01*
X96100000Y-121200000D02*
X96100000Y-126774695D01*
X71711233Y-43999500D02*
X73750000Y-43999500D01*
X71699498Y-44011235D02*
X71688765Y-44011235D01*
X70450000Y-45250000D02*
X70450000Y-50625000D01*
X106550000Y-55050000D02*
X106550000Y-44050000D01*
X95300000Y-58775500D02*
X102824500Y-58775500D01*
X102824500Y-58775500D02*
X106550000Y-55050000D01*
X71688765Y-44011235D02*
X70450000Y-45250000D01*
X71699498Y-44011235D02*
X71711233Y-43999500D01*
G04 #@! TA.AperFunction,Conductor*
G36*
X90967507Y-35893755D02*
G01*
X91813181Y-36739429D01*
X91846666Y-36800752D01*
X91849500Y-36827110D01*
X91849500Y-38542393D01*
X91856962Y-38565359D01*
X91861502Y-38584270D01*
X91865281Y-38608126D01*
X91865281Y-38608127D01*
X91865282Y-38608128D01*
X91876242Y-38629638D01*
X91883689Y-38647616D01*
X91891151Y-38670582D01*
X91905340Y-38690111D01*
X91915508Y-38706703D01*
X91926471Y-38728220D01*
X91950444Y-38752192D01*
X94261071Y-41062819D01*
X94294556Y-41124142D01*
X94289572Y-41193834D01*
X94247700Y-41249767D01*
X94182236Y-41274184D01*
X94173390Y-41274500D01*
X90982606Y-41274500D01*
X90959633Y-41281963D01*
X90940722Y-41286503D01*
X90897479Y-41293353D01*
X90897136Y-41291191D01*
X90856886Y-41298747D01*
X90792147Y-41272465D01*
X90751895Y-41215356D01*
X90745799Y-41163926D01*
X90749937Y-41119265D01*
X90755429Y-41060000D01*
X90735756Y-40847690D01*
X90677405Y-40642611D01*
X90672157Y-40632071D01*
X90582368Y-40451747D01*
X90453873Y-40281594D01*
X90296301Y-40137947D01*
X90115014Y-40025699D01*
X90086038Y-40014474D01*
X90030636Y-39971902D01*
X90007046Y-39906135D01*
X90022757Y-39838054D01*
X90072781Y-39789276D01*
X90078427Y-39786466D01*
X90277576Y-39693600D01*
X90471081Y-39558106D01*
X90638106Y-39391081D01*
X90773600Y-39197576D01*
X90873430Y-38983492D01*
X90930636Y-38770000D01*
X90033686Y-38770000D01*
X90059493Y-38729844D01*
X90100000Y-38591889D01*
X90100000Y-38448111D01*
X90059493Y-38310156D01*
X90033686Y-38270000D01*
X90930636Y-38270000D01*
X90930635Y-38269999D01*
X90873430Y-38056507D01*
X90773599Y-37842421D01*
X90638109Y-37648921D01*
X90471081Y-37481893D01*
X90277576Y-37346399D01*
X90078427Y-37253533D01*
X90025988Y-37207360D01*
X90006836Y-37140167D01*
X90027052Y-37073286D01*
X90080217Y-37027951D01*
X90086025Y-37025530D01*
X90115019Y-37014298D01*
X90296302Y-36902052D01*
X90453872Y-36758407D01*
X90582366Y-36588255D01*
X90582366Y-36588253D01*
X90582368Y-36588252D01*
X90674153Y-36403919D01*
X90677405Y-36397389D01*
X90735756Y-36192310D01*
X90755429Y-35980000D01*
X90755428Y-35979994D01*
X90756355Y-35969996D01*
X90782141Y-35905058D01*
X90838941Y-35864370D01*
X90908722Y-35860850D01*
X90967507Y-35893755D01*
G37*
G04 #@! TD.AperFunction*
G04 #@! TA.AperFunction,Conductor*
G36*
X104698099Y-28107809D02*
G01*
X104718939Y-28124522D01*
X106513546Y-29913658D01*
X106547125Y-29974930D01*
X106549999Y-30001473D01*
X106550000Y-43231387D01*
X106530315Y-43298426D01*
X106477511Y-43344181D01*
X106455675Y-43351784D01*
X106299775Y-43390209D01*
X106149149Y-43469265D01*
X106021815Y-43582072D01*
X105925182Y-43722069D01*
X105864860Y-43881127D01*
X105844354Y-44049999D01*
X105864860Y-44218872D01*
X105925182Y-44377930D01*
X106021815Y-44517927D01*
X106021816Y-44517928D01*
X106021817Y-44517929D01*
X106082727Y-44571890D01*
X106119853Y-44631077D01*
X106124500Y-44664705D01*
X106124500Y-54822390D01*
X106104815Y-54889429D01*
X106088181Y-54910071D01*
X102684571Y-58313681D01*
X102623248Y-58347166D01*
X102596890Y-58350000D01*
X95922550Y-58350000D01*
X95855511Y-58330315D01*
X95840777Y-58316061D01*
X95839453Y-58317556D01*
X95828184Y-58307572D01*
X95828183Y-58307571D01*
X95700852Y-58194766D01*
X95686588Y-58187280D01*
X95550224Y-58115709D01*
X95425765Y-58085033D01*
X95385056Y-58075000D01*
X95214944Y-58075000D01*
X95182284Y-58083049D01*
X95049775Y-58115709D01*
X94899149Y-58194765D01*
X94771815Y-58307572D01*
X94675182Y-58447569D01*
X94614860Y-58606627D01*
X94594354Y-58775500D01*
X94613789Y-58935553D01*
X94602329Y-59004477D01*
X94555425Y-59056263D01*
X94490693Y-59074500D01*
X79427610Y-59074500D01*
X79360571Y-59054815D01*
X79339929Y-59038181D01*
X78436819Y-58135071D01*
X78403334Y-58073748D01*
X78400500Y-58047390D01*
X78400500Y-53302609D01*
X78420185Y-53235570D01*
X78436819Y-53214928D01*
X79201002Y-52450745D01*
X80054674Y-51597074D01*
X80054674Y-51597073D01*
X80078648Y-51573100D01*
X80089613Y-51551578D01*
X80099776Y-51534995D01*
X80113970Y-51515460D01*
X80121433Y-51492489D01*
X80128871Y-51474530D01*
X80139839Y-51453006D01*
X80143615Y-51429158D01*
X80148156Y-51410240D01*
X80155620Y-51387273D01*
X80155620Y-51252487D01*
X80155620Y-51252486D01*
X80155620Y-48914704D01*
X80175305Y-48847666D01*
X80197390Y-48821891D01*
X80258303Y-48767929D01*
X80354938Y-48627930D01*
X80415260Y-48468872D01*
X80435765Y-48300000D01*
X80415260Y-48131128D01*
X80354938Y-47972070D01*
X80258303Y-47832071D01*
X80130972Y-47719266D01*
X80097764Y-47701837D01*
X79980344Y-47640209D01*
X79855885Y-47609533D01*
X79815176Y-47599500D01*
X79645064Y-47599500D01*
X79612404Y-47607549D01*
X79479895Y-47640209D01*
X79329269Y-47719265D01*
X79201935Y-47832072D01*
X79105302Y-47972069D01*
X79044980Y-48131127D01*
X79024474Y-48300000D01*
X79044980Y-48468872D01*
X79105302Y-48627930D01*
X79201935Y-48767927D01*
X79201936Y-48767928D01*
X79201937Y-48767929D01*
X79262847Y-48821890D01*
X79299973Y-48881077D01*
X79304620Y-48914705D01*
X79304620Y-50392863D01*
X79284935Y-50459902D01*
X79232131Y-50505657D01*
X79162973Y-50515601D01*
X79122995Y-50502660D01*
X79100225Y-50490710D01*
X79059750Y-50480734D01*
X78935056Y-50450000D01*
X78764944Y-50450000D01*
X78732284Y-50458049D01*
X78599775Y-50490709D01*
X78449146Y-50569767D01*
X78407226Y-50606905D01*
X78343993Y-50636626D01*
X78274729Y-50627442D01*
X78242774Y-50606905D01*
X78200853Y-50569767D01*
X78200852Y-50569766D01*
X78117447Y-50525991D01*
X78050224Y-50490709D01*
X77925230Y-50459902D01*
X77885056Y-50450000D01*
X77714944Y-50450000D01*
X77682284Y-50458049D01*
X77549775Y-50490709D01*
X77399149Y-50569765D01*
X77271815Y-50682572D01*
X77175182Y-50822569D01*
X77114860Y-50981627D01*
X77094354Y-51150502D01*
X77098326Y-51183213D01*
X77086865Y-51252137D01*
X77062911Y-51285839D01*
X76529339Y-51819412D01*
X76529338Y-51819413D01*
X76451470Y-51897282D01*
X76440509Y-51918794D01*
X76430347Y-51935377D01*
X76416151Y-51954917D01*
X76408687Y-51977887D01*
X76401244Y-51995856D01*
X76390280Y-52017374D01*
X76386503Y-52041223D01*
X76381962Y-52060139D01*
X76374500Y-52083106D01*
X76374500Y-59363313D01*
X76354815Y-59430352D01*
X76302011Y-59476107D01*
X76250653Y-59487313D01*
X75694990Y-59487997D01*
X74899650Y-59488977D01*
X74832589Y-59469376D01*
X74786769Y-59416628D01*
X74775500Y-59364978D01*
X74775500Y-51302608D01*
X74795185Y-51235569D01*
X74811814Y-51214932D01*
X75389927Y-50636818D01*
X75451251Y-50603334D01*
X75477609Y-50600500D01*
X75610055Y-50600500D01*
X75610056Y-50600500D01*
X75775225Y-50559790D01*
X75925852Y-50480734D01*
X76053183Y-50367929D01*
X76149818Y-50227930D01*
X76210140Y-50068872D01*
X76230645Y-49900000D01*
X76210140Y-49731128D01*
X76149818Y-49572070D01*
X76085585Y-49479013D01*
X76053184Y-49432072D01*
X76040025Y-49420414D01*
X75925852Y-49319266D01*
X75869121Y-49289491D01*
X75775224Y-49240209D01*
X75650764Y-49209533D01*
X75610056Y-49199500D01*
X75439944Y-49199500D01*
X75399235Y-49209533D01*
X75274776Y-49240209D01*
X75142760Y-49309497D01*
X75074251Y-49323222D01*
X75009198Y-49297729D01*
X75002929Y-49292534D01*
X74914327Y-49214040D01*
X74852162Y-49181413D01*
X74763699Y-49134983D01*
X74626420Y-49101148D01*
X74598531Y-49094274D01*
X74428419Y-49094274D01*
X74428416Y-49094274D01*
X74400524Y-49101148D01*
X74330722Y-49098078D01*
X74273661Y-49057757D01*
X74254910Y-49024721D01*
X74249318Y-49009975D01*
X74174152Y-48901079D01*
X74152270Y-48834727D01*
X74169735Y-48767076D01*
X74193974Y-48737827D01*
X74212524Y-48721394D01*
X74309159Y-48581395D01*
X74369481Y-48422337D01*
X74389986Y-48253465D01*
X74369481Y-48084593D01*
X74309159Y-47925535D01*
X74234473Y-47817335D01*
X74212591Y-47750982D01*
X74230056Y-47683330D01*
X74254298Y-47654079D01*
X74262561Y-47646759D01*
X74359196Y-47506760D01*
X74419518Y-47347702D01*
X74440023Y-47178830D01*
X74419518Y-47009958D01*
X74359196Y-46850900D01*
X74306435Y-46774463D01*
X74280511Y-46736905D01*
X74258628Y-46670551D01*
X74276093Y-46602899D01*
X74280511Y-46596025D01*
X74301723Y-46565294D01*
X74358905Y-46482452D01*
X74419227Y-46323394D01*
X74439732Y-46154522D01*
X74419227Y-45985650D01*
X74358905Y-45826592D01*
X74283521Y-45717380D01*
X74261638Y-45651026D01*
X74279103Y-45583374D01*
X74283521Y-45576500D01*
X74297008Y-45556961D01*
X74364356Y-45459391D01*
X74424678Y-45300333D01*
X74426803Y-45282831D01*
X74454421Y-45218655D01*
X74512354Y-45179597D01*
X74558914Y-45178062D01*
X74558915Y-45176000D01*
X74744083Y-45176000D01*
X74744084Y-45176000D01*
X74909253Y-45135290D01*
X75059880Y-45056234D01*
X75187211Y-44943429D01*
X75283846Y-44803430D01*
X75344168Y-44644372D01*
X75364673Y-44475500D01*
X75344168Y-44306628D01*
X75283846Y-44147570D01*
X75194361Y-44017929D01*
X75187210Y-44007569D01*
X75126301Y-43953609D01*
X75089174Y-43894420D01*
X75084528Y-43860794D01*
X75084528Y-43815831D01*
X75084528Y-43815830D01*
X75077065Y-43792865D01*
X75072523Y-43773942D01*
X75068747Y-43750097D01*
X75057785Y-43728584D01*
X75050336Y-43710601D01*
X75042876Y-43687640D01*
X75028682Y-43668103D01*
X75018517Y-43651515D01*
X75007555Y-43630002D01*
X74065728Y-42688175D01*
X74041754Y-42664200D01*
X74020237Y-42653237D01*
X74003645Y-42643069D01*
X73984116Y-42628880D01*
X73961150Y-42621418D01*
X73943172Y-42613971D01*
X73921662Y-42603011D01*
X73921661Y-42603010D01*
X73921660Y-42603010D01*
X73897804Y-42599231D01*
X73878893Y-42594691D01*
X73855927Y-42587229D01*
X73822022Y-42587229D01*
X72366665Y-42587229D01*
X72299626Y-42567544D01*
X72284892Y-42553290D01*
X72283568Y-42554785D01*
X72272299Y-42544801D01*
X72272298Y-42544800D01*
X72144967Y-42431995D01*
X72084010Y-42400002D01*
X71994339Y-42352938D01*
X71869879Y-42322262D01*
X71829171Y-42312229D01*
X71659059Y-42312229D01*
X71644936Y-42315710D01*
X71493890Y-42352938D01*
X71343264Y-42431994D01*
X71215930Y-42544801D01*
X71119297Y-42684798D01*
X71058975Y-42843856D01*
X71038469Y-43012729D01*
X71058975Y-43181601D01*
X71119297Y-43340659D01*
X71166623Y-43409222D01*
X71188506Y-43475576D01*
X71171041Y-43543228D01*
X71166623Y-43550102D01*
X71074680Y-43683304D01*
X71014358Y-43842362D01*
X70993852Y-44011237D01*
X70996662Y-44034377D01*
X70985201Y-44103301D01*
X70961247Y-44137003D01*
X70196780Y-44901472D01*
X70101471Y-44996780D01*
X70090509Y-45018294D01*
X70080347Y-45034877D01*
X70066151Y-45054417D01*
X70058687Y-45077387D01*
X70051244Y-45095356D01*
X70040280Y-45116874D01*
X70036503Y-45140723D01*
X70031962Y-45159639D01*
X70024500Y-45182606D01*
X70024500Y-50010294D01*
X70004815Y-50077333D01*
X69982727Y-50103109D01*
X69921817Y-50157069D01*
X69825182Y-50297069D01*
X69764860Y-50456127D01*
X69744354Y-50624999D01*
X69764860Y-50793872D01*
X69825182Y-50952930D01*
X69921815Y-51092927D01*
X69921816Y-51092928D01*
X69921817Y-51092929D01*
X70049148Y-51205734D01*
X70199775Y-51284790D01*
X70364944Y-51325500D01*
X70364945Y-51325500D01*
X70535055Y-51325500D01*
X70535056Y-51325500D01*
X70700225Y-51284790D01*
X70792876Y-51236162D01*
X70861381Y-51222437D01*
X70926435Y-51247929D01*
X70967379Y-51304544D01*
X70974500Y-51345959D01*
X70974500Y-59369964D01*
X70954815Y-59437003D01*
X70902011Y-59482758D01*
X70850654Y-59493963D01*
X68001402Y-59497472D01*
X67934340Y-59477871D01*
X67913624Y-59461208D01*
X67817275Y-59364978D01*
X66767066Y-58316061D01*
X65986373Y-57536328D01*
X65952850Y-57475026D01*
X65950000Y-57448593D01*
X65950000Y-41099999D01*
X71494354Y-41099999D01*
X71514860Y-41268872D01*
X71575182Y-41427930D01*
X71671815Y-41567927D01*
X71671816Y-41567928D01*
X71671817Y-41567929D01*
X71799148Y-41680734D01*
X71949775Y-41759790D01*
X72114944Y-41800500D01*
X72114945Y-41800500D01*
X72285055Y-41800500D01*
X72285056Y-41800500D01*
X72450225Y-41759790D01*
X72600852Y-41680734D01*
X72728183Y-41567929D01*
X72741777Y-41548233D01*
X72755013Y-41529060D01*
X72809296Y-41485070D01*
X72857063Y-41475500D01*
X75353879Y-41475500D01*
X75411503Y-41489703D01*
X75449775Y-41509790D01*
X75614944Y-41550500D01*
X75614945Y-41550500D01*
X75785055Y-41550500D01*
X75785056Y-41550500D01*
X75950225Y-41509790D01*
X76100852Y-41430734D01*
X76228183Y-41317929D01*
X76324818Y-41177930D01*
X76385140Y-41018872D01*
X76405645Y-40850000D01*
X76385140Y-40681128D01*
X76324818Y-40522070D01*
X76261773Y-40430734D01*
X76228184Y-40382072D01*
X76228183Y-40382071D01*
X76100852Y-40269266D01*
X76035698Y-40235070D01*
X75950224Y-40190209D01*
X75825765Y-40159533D01*
X75785056Y-40149500D01*
X75614944Y-40149500D01*
X75590301Y-40155574D01*
X75449775Y-40190209D01*
X75299149Y-40269265D01*
X75171815Y-40382072D01*
X75075182Y-40522068D01*
X75070747Y-40533762D01*
X75066686Y-40544470D01*
X75024511Y-40600173D01*
X74958914Y-40624231D01*
X74950745Y-40624500D01*
X72766663Y-40624500D01*
X72699624Y-40604815D01*
X72684443Y-40593321D01*
X72600852Y-40519266D01*
X72600850Y-40519264D01*
X72450226Y-40440210D01*
X72367640Y-40419855D01*
X72285056Y-40399500D01*
X72114944Y-40399500D01*
X72082284Y-40407549D01*
X71949775Y-40440209D01*
X71799149Y-40519265D01*
X71671815Y-40632072D01*
X71575182Y-40772069D01*
X71514860Y-40931127D01*
X71494354Y-41099999D01*
X65950000Y-41099999D01*
X65950000Y-39016488D01*
X65969685Y-38949449D01*
X66022489Y-38903694D01*
X66091647Y-38893750D01*
X66148729Y-38917536D01*
X66163528Y-38928712D01*
X66358542Y-39025818D01*
X66568074Y-39085435D01*
X66606176Y-39088965D01*
X66730653Y-39100500D01*
X66733525Y-39100500D01*
X66836475Y-39100500D01*
X66839347Y-39100500D01*
X66976523Y-39087788D01*
X67001925Y-39085435D01*
X67126466Y-39050000D01*
X80044354Y-39050000D01*
X80064860Y-39218872D01*
X80125182Y-39377930D01*
X80221815Y-39517927D01*
X80221816Y-39517928D01*
X80221817Y-39517929D01*
X80349148Y-39630734D01*
X80499775Y-39709790D01*
X80664944Y-39750500D01*
X80672419Y-39750500D01*
X80739458Y-39770185D01*
X80785213Y-39822989D01*
X80795515Y-39859553D01*
X80814860Y-40018872D01*
X80875182Y-40177930D01*
X80971815Y-40317927D01*
X80971816Y-40317928D01*
X80971817Y-40317929D01*
X81099148Y-40430734D01*
X81249775Y-40509790D01*
X81414944Y-40550500D01*
X81414945Y-40550500D01*
X81585055Y-40550500D01*
X81585056Y-40550500D01*
X81750225Y-40509790D01*
X81900852Y-40430734D01*
X82028183Y-40317929D01*
X82053264Y-40281594D01*
X82055013Y-40279060D01*
X82109296Y-40235070D01*
X82157063Y-40225500D01*
X86222390Y-40225500D01*
X86289429Y-40245185D01*
X86310071Y-40261819D01*
X87621565Y-41573313D01*
X87655050Y-41634636D01*
X87650066Y-41704328D01*
X87608194Y-41760261D01*
X87591514Y-41770787D01*
X87551427Y-41791827D01*
X87499149Y-41819265D01*
X87371815Y-41932072D01*
X87275182Y-42072069D01*
X87214860Y-42231127D01*
X87194354Y-42400002D01*
X87198326Y-42432713D01*
X87186865Y-42501637D01*
X87162911Y-42535339D01*
X85576790Y-44121462D01*
X85515467Y-44154947D01*
X85489109Y-44157781D01*
X84924341Y-44157781D01*
X84857302Y-44138096D01*
X84842568Y-44123842D01*
X84841244Y-44125337D01*
X84829975Y-44115353D01*
X84829974Y-44115352D01*
X84702643Y-44002547D01*
X84702641Y-44002546D01*
X84702640Y-44002545D01*
X84643256Y-43971378D01*
X84593043Y-43922793D01*
X84577069Y-43854774D01*
X84600405Y-43788916D01*
X84613195Y-43773907D01*
X85950283Y-42436819D01*
X86011607Y-42403334D01*
X86037965Y-42400500D01*
X86135055Y-42400500D01*
X86135056Y-42400500D01*
X86300225Y-42359790D01*
X86450852Y-42280734D01*
X86578183Y-42167929D01*
X86674818Y-42027930D01*
X86735140Y-41868872D01*
X86755645Y-41700000D01*
X86735140Y-41531128D01*
X86674818Y-41372070D01*
X86578183Y-41232071D01*
X86450852Y-41119266D01*
X86414142Y-41099999D01*
X86300224Y-41040209D01*
X86175764Y-41009533D01*
X86135056Y-40999500D01*
X85964944Y-40999500D01*
X85932284Y-41007549D01*
X85799775Y-41040209D01*
X85649149Y-41119265D01*
X85521815Y-41232072D01*
X85425182Y-41372069D01*
X85364860Y-41531127D01*
X85344354Y-41700004D01*
X85344498Y-41701187D01*
X85343433Y-41707586D01*
X85342540Y-41714947D01*
X85342216Y-41714907D01*
X85333036Y-41770110D01*
X85309083Y-41803811D01*
X84049716Y-43063181D01*
X83988393Y-43096666D01*
X83962035Y-43099500D01*
X83744884Y-43099500D01*
X83677845Y-43079815D01*
X83662658Y-43068316D01*
X83557889Y-42975500D01*
X83550852Y-42969266D01*
X83475538Y-42929738D01*
X83400224Y-42890209D01*
X83275765Y-42859533D01*
X83235056Y-42849500D01*
X83064944Y-42849500D01*
X83032284Y-42857549D01*
X82899775Y-42890209D01*
X82749149Y-42969265D01*
X82621815Y-43082072D01*
X82525182Y-43222069D01*
X82464860Y-43381127D01*
X82444354Y-43550000D01*
X82464860Y-43718872D01*
X82525182Y-43877930D01*
X82621815Y-44017927D01*
X82621816Y-44017928D01*
X82621817Y-44017929D01*
X82749148Y-44130734D01*
X82899775Y-44209790D01*
X83064944Y-44250500D01*
X83064945Y-44250500D01*
X83235055Y-44250500D01*
X83235056Y-44250500D01*
X83400225Y-44209790D01*
X83477812Y-44169068D01*
X83546318Y-44155343D01*
X83611372Y-44180835D01*
X83652316Y-44237450D01*
X83656153Y-44307214D01*
X83651379Y-44322835D01*
X83616651Y-44414406D01*
X83596145Y-44583281D01*
X83616651Y-44752153D01*
X83676973Y-44911211D01*
X83773606Y-45051208D01*
X83773607Y-45051209D01*
X83773608Y-45051210D01*
X83900939Y-45164015D01*
X84051566Y-45243071D01*
X84216735Y-45283781D01*
X84216736Y-45283781D01*
X84386846Y-45283781D01*
X84386847Y-45283781D01*
X84552016Y-45243071D01*
X84702643Y-45164015D01*
X84829974Y-45051210D01*
X84829975Y-45051208D01*
X84841244Y-45041225D01*
X84844211Y-45044574D01*
X84876591Y-45018343D01*
X84924341Y-45008781D01*
X85784110Y-45008781D01*
X85784112Y-45008781D01*
X85807082Y-45001316D01*
X85825985Y-44996778D01*
X85849845Y-44993000D01*
X85871366Y-44982033D01*
X85889335Y-44974590D01*
X85912300Y-44967130D01*
X85931830Y-44952939D01*
X85948423Y-44942770D01*
X85969939Y-44931809D01*
X86065247Y-44836501D01*
X87764928Y-43136818D01*
X87826251Y-43103334D01*
X87852609Y-43100500D01*
X87985055Y-43100500D01*
X87985056Y-43100500D01*
X88150225Y-43059790D01*
X88300852Y-42980734D01*
X88428183Y-42867929D01*
X88524818Y-42727930D01*
X88525925Y-42725010D01*
X88568101Y-42669307D01*
X88633697Y-42645247D01*
X88701888Y-42660472D01*
X88729546Y-42681294D01*
X88746780Y-42698528D01*
X88746781Y-42698529D01*
X88768290Y-42709488D01*
X88784881Y-42719655D01*
X88804416Y-42733848D01*
X88804418Y-42733848D01*
X88804420Y-42733850D01*
X88827390Y-42741313D01*
X88845359Y-42748756D01*
X88852805Y-42752551D01*
X88866873Y-42759719D01*
X88876084Y-42761177D01*
X88890723Y-42763495D01*
X88909636Y-42768036D01*
X88932607Y-42775500D01*
X88932609Y-42775500D01*
X90467392Y-42775500D01*
X90467393Y-42775500D01*
X90481013Y-42771073D01*
X90550853Y-42769075D01*
X90610688Y-42805153D01*
X90641519Y-42867852D01*
X90642432Y-42903949D01*
X90633744Y-42975498D01*
X90654250Y-43144372D01*
X90714572Y-43303430D01*
X90811205Y-43443427D01*
X90811206Y-43443428D01*
X90811207Y-43443429D01*
X90938538Y-43556234D01*
X91089165Y-43635290D01*
X91254334Y-43676000D01*
X91254335Y-43676000D01*
X91439502Y-43676000D01*
X91439502Y-43677232D01*
X91492277Y-43679550D01*
X91549342Y-43719866D01*
X91568099Y-43752908D01*
X91587260Y-43803430D01*
X91683893Y-43943427D01*
X91683894Y-43943428D01*
X91683895Y-43943429D01*
X91811226Y-44056234D01*
X91961853Y-44135290D01*
X92127022Y-44176000D01*
X92127023Y-44176000D01*
X92297132Y-44176000D01*
X92297134Y-44176000D01*
X92338050Y-44165915D01*
X92407849Y-44168984D01*
X92464912Y-44209303D01*
X92483665Y-44242341D01*
X92506832Y-44303429D01*
X92603466Y-44443427D01*
X92603467Y-44443428D01*
X92603468Y-44443429D01*
X92730799Y-44556234D01*
X92881426Y-44635290D01*
X93046595Y-44676000D01*
X93046596Y-44676000D01*
X93216706Y-44676000D01*
X93216707Y-44676000D01*
X93260904Y-44665106D01*
X93330705Y-44668175D01*
X93387768Y-44708494D01*
X93406521Y-44741532D01*
X93429995Y-44803429D01*
X93526629Y-44943427D01*
X93526630Y-44943428D01*
X93526631Y-44943429D01*
X93653962Y-45056234D01*
X93804589Y-45135290D01*
X93929349Y-45166040D01*
X93989730Y-45201196D01*
X94021519Y-45263415D01*
X94022771Y-45301383D01*
X94019854Y-45325400D01*
X94040360Y-45494274D01*
X94100682Y-45653332D01*
X94179322Y-45767261D01*
X94201205Y-45833615D01*
X94183740Y-45901267D01*
X94179322Y-45908141D01*
X94100682Y-46022069D01*
X94040360Y-46181127D01*
X94019854Y-46350000D01*
X94040360Y-46518872D01*
X94100682Y-46677930D01*
X94197315Y-46817927D01*
X94197316Y-46817928D01*
X94197317Y-46817929D01*
X94324648Y-46930734D01*
X94475275Y-47009790D01*
X94640444Y-47050500D01*
X94640445Y-47050500D01*
X94797390Y-47050500D01*
X94864429Y-47070185D01*
X94885071Y-47086819D01*
X98061071Y-50262819D01*
X98094556Y-50324142D01*
X98089572Y-50393834D01*
X98047700Y-50449767D01*
X97982236Y-50474184D01*
X97973390Y-50474500D01*
X93877609Y-50474500D01*
X93810570Y-50454815D01*
X93789928Y-50438181D01*
X90537087Y-47185339D01*
X90503602Y-47124016D01*
X90501672Y-47082715D01*
X90505645Y-47050000D01*
X90485140Y-46881128D01*
X90424818Y-46722070D01*
X90358194Y-46625549D01*
X90328184Y-46582072D01*
X90328183Y-46582071D01*
X90200852Y-46469266D01*
X90171245Y-46453727D01*
X90050224Y-46390209D01*
X89925765Y-46359533D01*
X89885056Y-46349500D01*
X89714944Y-46349500D01*
X89682284Y-46357549D01*
X89549775Y-46390209D01*
X89399149Y-46469265D01*
X89271815Y-46582072D01*
X89175182Y-46722069D01*
X89114860Y-46881127D01*
X89094354Y-47050000D01*
X89109998Y-47178830D01*
X89114860Y-47218872D01*
X89175182Y-47377930D01*
X89189148Y-47398164D01*
X89211031Y-47464517D01*
X89198484Y-47513117D01*
X89226493Y-47508143D01*
X89290971Y-47535058D01*
X89295110Y-47538565D01*
X89399148Y-47630734D01*
X89549775Y-47709790D01*
X89714944Y-47750500D01*
X89714945Y-47750500D01*
X89847390Y-47750500D01*
X89914429Y-47770185D01*
X89935071Y-47786819D01*
X91593360Y-49445108D01*
X93161072Y-51012819D01*
X93194557Y-51074142D01*
X93189573Y-51143834D01*
X93147701Y-51199767D01*
X93082237Y-51224184D01*
X93073391Y-51224500D01*
X92327610Y-51224500D01*
X92260571Y-51204815D01*
X92239929Y-51188181D01*
X89237087Y-48185339D01*
X89203602Y-48124016D01*
X89201672Y-48082715D01*
X89205645Y-48050000D01*
X89185140Y-47881128D01*
X89124818Y-47722070D01*
X89110851Y-47701836D01*
X89088968Y-47635483D01*
X89101514Y-47586881D01*
X89073505Y-47591856D01*
X89009028Y-47564941D01*
X89004885Y-47561431D01*
X88900852Y-47469266D01*
X88870298Y-47453230D01*
X88750224Y-47390209D01*
X88625765Y-47359533D01*
X88585056Y-47349500D01*
X88414944Y-47349500D01*
X88382284Y-47357549D01*
X88249775Y-47390209D01*
X88099149Y-47469265D01*
X87971815Y-47582072D01*
X87875182Y-47722069D01*
X87814860Y-47881127D01*
X87794354Y-48050000D01*
X87814860Y-48218872D01*
X87875182Y-48377930D01*
X87971815Y-48517927D01*
X87971816Y-48517928D01*
X87971817Y-48517929D01*
X88099148Y-48630734D01*
X88249775Y-48709790D01*
X88414944Y-48750500D01*
X88414945Y-48750500D01*
X88547390Y-48750500D01*
X88614429Y-48770185D01*
X88635070Y-48786819D01*
X91751471Y-51903219D01*
X91751472Y-51903220D01*
X91846780Y-51998528D01*
X91868288Y-52009487D01*
X91884876Y-52019652D01*
X91904417Y-52033849D01*
X91904418Y-52033849D01*
X91904419Y-52033850D01*
X91927113Y-52041223D01*
X91927381Y-52041310D01*
X91945362Y-52048758D01*
X91955939Y-52054147D01*
X91966874Y-52059719D01*
X91990724Y-52063496D01*
X92009641Y-52068038D01*
X92032607Y-52075500D01*
X92066512Y-52075500D01*
X93055283Y-52075500D01*
X93122322Y-52095185D01*
X93168077Y-52147989D01*
X93178021Y-52217147D01*
X93165080Y-52257123D01*
X93133056Y-52318139D01*
X93090209Y-52399775D01*
X93049500Y-52564944D01*
X93049500Y-52735055D01*
X93090209Y-52900224D01*
X93116595Y-52950497D01*
X93169266Y-53050852D01*
X93229967Y-53119369D01*
X93282072Y-53178184D01*
X93422070Y-53274818D01*
X93447752Y-53284558D01*
X93503455Y-53326735D01*
X93527513Y-53392332D01*
X93512287Y-53460523D01*
X93462611Y-53509656D01*
X93403782Y-53524500D01*
X88727610Y-53524500D01*
X88660571Y-53504815D01*
X88639929Y-53488181D01*
X85832885Y-50681137D01*
X85832883Y-50681134D01*
X85815444Y-50663695D01*
X85791470Y-50639722D01*
X85789797Y-50638869D01*
X85769952Y-50628758D01*
X85753361Y-50618590D01*
X85733832Y-50604401D01*
X85710866Y-50596939D01*
X85692888Y-50589492D01*
X85671378Y-50578532D01*
X85671377Y-50578531D01*
X85671376Y-50578531D01*
X85647520Y-50574752D01*
X85628609Y-50570212D01*
X85605643Y-50562750D01*
X85571738Y-50562750D01*
X85531684Y-50562750D01*
X85464645Y-50543065D01*
X85449911Y-50528811D01*
X85448587Y-50530306D01*
X85437318Y-50520322D01*
X85437317Y-50520321D01*
X85309986Y-50407516D01*
X85260419Y-50381501D01*
X85159358Y-50328459D01*
X85031999Y-50297069D01*
X84994190Y-50287750D01*
X84824078Y-50287750D01*
X84791418Y-50295799D01*
X84658909Y-50328459D01*
X84508283Y-50407515D01*
X84380949Y-50520322D01*
X84284316Y-50660319D01*
X84223994Y-50819377D01*
X84213310Y-50907363D01*
X84185687Y-50971540D01*
X84127753Y-51010596D01*
X84119889Y-51012812D01*
X83967614Y-51050343D01*
X83816988Y-51129399D01*
X83689654Y-51242206D01*
X83593021Y-51382203D01*
X83527360Y-51555340D01*
X83526524Y-51555023D01*
X83505175Y-51604626D01*
X83447240Y-51643681D01*
X83409702Y-51649500D01*
X83364944Y-51649500D01*
X83332284Y-51657549D01*
X83199775Y-51690209D01*
X83049149Y-51769265D01*
X82921815Y-51882072D01*
X82825182Y-52022069D01*
X82764860Y-52181127D01*
X82744354Y-52350000D01*
X82764860Y-52518872D01*
X82825182Y-52677930D01*
X82921815Y-52817927D01*
X82921816Y-52817928D01*
X82921817Y-52817929D01*
X83049148Y-52930734D01*
X83199775Y-53009790D01*
X83364944Y-53050500D01*
X83364945Y-53050500D01*
X83535055Y-53050500D01*
X83535056Y-53050500D01*
X83700225Y-53009790D01*
X83850852Y-52930734D01*
X83888983Y-52896953D01*
X83894780Y-52891818D01*
X83958013Y-52862097D01*
X83977006Y-52860634D01*
X84557524Y-52860634D01*
X84624563Y-52880319D01*
X84645205Y-52896953D01*
X87949970Y-56201718D01*
X88045278Y-56297026D01*
X88063030Y-56306071D01*
X88066793Y-56307988D01*
X88083380Y-56318152D01*
X88102917Y-56332347D01*
X88117842Y-56337196D01*
X88125877Y-56339807D01*
X88143857Y-56347254D01*
X88165372Y-56358217D01*
X88189217Y-56361993D01*
X88208140Y-56366535D01*
X88231105Y-56373998D01*
X88265010Y-56373998D01*
X100433773Y-56373998D01*
X100500812Y-56393683D01*
X100515545Y-56407936D01*
X100516870Y-56406442D01*
X100528138Y-56416425D01*
X100528140Y-56416427D01*
X100655471Y-56529232D01*
X100806098Y-56608288D01*
X100971267Y-56648998D01*
X100971268Y-56648998D01*
X101141378Y-56648998D01*
X101141379Y-56648998D01*
X101306548Y-56608288D01*
X101457175Y-56529232D01*
X101584506Y-56416427D01*
X101681141Y-56276428D01*
X101741463Y-56117370D01*
X101761968Y-55948498D01*
X101741463Y-55779626D01*
X101681141Y-55620568D01*
X101613793Y-55522998D01*
X101595426Y-55496388D01*
X101573543Y-55430033D01*
X101591008Y-55362382D01*
X101595412Y-55355528D01*
X101649318Y-55277433D01*
X101709640Y-55118375D01*
X101730145Y-54949503D01*
X101709640Y-54780631D01*
X101649318Y-54621573D01*
X101579336Y-54520188D01*
X101557455Y-54453837D01*
X101574920Y-54386186D01*
X101579326Y-54379330D01*
X101649318Y-54277930D01*
X101709640Y-54118872D01*
X101730145Y-53950000D01*
X101709640Y-53781128D01*
X101649318Y-53622070D01*
X101579336Y-53520685D01*
X101557455Y-53454334D01*
X101574920Y-53386683D01*
X101579326Y-53379827D01*
X101649318Y-53278427D01*
X101709640Y-53119369D01*
X101730145Y-52950497D01*
X101709640Y-52781625D01*
X101649318Y-52622567D01*
X101579336Y-52521182D01*
X101557455Y-52454831D01*
X101574920Y-52387180D01*
X101579326Y-52380324D01*
X101649318Y-52278924D01*
X101709640Y-52119866D01*
X101730145Y-51950994D01*
X101709640Y-51782122D01*
X101649318Y-51623064D01*
X101579336Y-51521679D01*
X101557455Y-51455328D01*
X101574920Y-51387677D01*
X101579326Y-51380821D01*
X101649318Y-51279421D01*
X101709640Y-51120363D01*
X101730145Y-50951491D01*
X101709640Y-50782619D01*
X101649318Y-50623561D01*
X101579336Y-50522176D01*
X101557455Y-50455825D01*
X101574920Y-50388174D01*
X101579326Y-50381318D01*
X101649318Y-50279918D01*
X101709640Y-50120860D01*
X101730145Y-49951988D01*
X101709640Y-49783116D01*
X101649318Y-49624058D01*
X101579336Y-49522673D01*
X101557455Y-49456322D01*
X101574920Y-49388671D01*
X101579326Y-49381815D01*
X101649318Y-49280415D01*
X101709640Y-49121357D01*
X101730145Y-48952485D01*
X101709640Y-48783613D01*
X101649318Y-48624555D01*
X101579336Y-48523170D01*
X101557455Y-48456819D01*
X101574920Y-48389168D01*
X101579326Y-48382312D01*
X101649318Y-48280912D01*
X101709640Y-48121854D01*
X101730145Y-47952982D01*
X101709640Y-47784110D01*
X101649318Y-47625052D01*
X101579336Y-47523667D01*
X101557455Y-47457316D01*
X101574920Y-47389665D01*
X101579326Y-47382809D01*
X101649318Y-47281409D01*
X101709640Y-47122351D01*
X101730145Y-46953479D01*
X101709640Y-46784607D01*
X101649318Y-46625549D01*
X101579336Y-46524164D01*
X101557455Y-46457813D01*
X101574920Y-46390162D01*
X101579326Y-46383306D01*
X101649318Y-46281906D01*
X101709640Y-46122848D01*
X101730145Y-45953976D01*
X101709640Y-45785104D01*
X101649318Y-45626046D01*
X101599071Y-45553251D01*
X101577189Y-45486899D01*
X101594654Y-45419248D01*
X101599056Y-45412396D01*
X101688261Y-45283162D01*
X101748583Y-45124104D01*
X101769088Y-44955232D01*
X101748583Y-44786360D01*
X101688261Y-44627302D01*
X101637644Y-44553971D01*
X101615762Y-44487619D01*
X101633227Y-44419968D01*
X101637625Y-44413123D01*
X101726484Y-44284391D01*
X101786806Y-44125333D01*
X101807311Y-43956461D01*
X101786806Y-43787589D01*
X101726484Y-43628531D01*
X101634429Y-43495167D01*
X101629850Y-43488533D01*
X101620961Y-43480658D01*
X101502518Y-43375727D01*
X101442413Y-43344181D01*
X101351890Y-43296670D01*
X101227431Y-43265994D01*
X101186722Y-43255961D01*
X101016610Y-43255961D01*
X100983950Y-43264010D01*
X100851441Y-43296670D01*
X100700815Y-43375726D01*
X100684467Y-43390209D01*
X100573483Y-43488532D01*
X100573481Y-43488533D01*
X100562213Y-43498517D01*
X100559245Y-43495167D01*
X100526866Y-43521399D01*
X100479116Y-43530961D01*
X99834071Y-43530961D01*
X99767032Y-43511276D01*
X99746390Y-43494642D01*
X96994635Y-40742887D01*
X96994633Y-40742884D01*
X96977194Y-40725445D01*
X96953220Y-40701472D01*
X96931702Y-40690508D01*
X96915111Y-40680340D01*
X96895582Y-40666151D01*
X96872616Y-40658689D01*
X96854638Y-40651242D01*
X96833128Y-40640282D01*
X96833127Y-40640281D01*
X96833126Y-40640281D01*
X96809270Y-40636502D01*
X96790359Y-40631962D01*
X96767393Y-40624500D01*
X96733488Y-40624500D01*
X95077610Y-40624500D01*
X95010571Y-40604815D01*
X94989929Y-40588181D01*
X92736819Y-38335071D01*
X92703334Y-38273748D01*
X92700500Y-38247390D01*
X92700500Y-38038926D01*
X93554500Y-38038926D01*
X93593596Y-38248073D01*
X93594531Y-38253073D01*
X93673226Y-38456208D01*
X93787912Y-38641432D01*
X93934676Y-38802426D01*
X94108528Y-38933712D01*
X94303542Y-39030818D01*
X94513074Y-39090435D01*
X94551176Y-39093965D01*
X94675653Y-39105500D01*
X94678525Y-39105500D01*
X94781475Y-39105500D01*
X94784347Y-39105500D01*
X94921523Y-39092788D01*
X94946925Y-39090435D01*
X95156457Y-39030818D01*
X95251500Y-38983492D01*
X95351472Y-38933712D01*
X95525322Y-38802427D01*
X95672088Y-38641432D01*
X95786772Y-38456210D01*
X95805602Y-38407606D01*
X95839360Y-38320465D01*
X95865470Y-38253069D01*
X95905500Y-38038926D01*
X95905500Y-37930000D01*
X97504564Y-37930000D01*
X97524287Y-38230920D01*
X97525077Y-38234891D01*
X97525078Y-38234899D01*
X97582327Y-38522707D01*
X97582329Y-38522714D01*
X97583120Y-38526691D01*
X97610764Y-38608128D01*
X97676719Y-38802426D01*
X97680055Y-38812252D01*
X97681850Y-38815893D01*
X97681851Y-38815894D01*
X97787839Y-39030818D01*
X97813434Y-39082718D01*
X97815685Y-39086087D01*
X97815688Y-39086092D01*
X97904409Y-39218872D01*
X97980975Y-39333461D01*
X98179811Y-39560189D01*
X98406539Y-39759025D01*
X98657282Y-39926566D01*
X98927748Y-40059945D01*
X99213309Y-40156880D01*
X99509080Y-40215713D01*
X99734690Y-40230500D01*
X99736720Y-40230500D01*
X99883280Y-40230500D01*
X99885310Y-40230500D01*
X100110920Y-40215713D01*
X100406691Y-40156880D01*
X100692252Y-40059945D01*
X100962718Y-39926566D01*
X101213461Y-39759025D01*
X101440189Y-39560189D01*
X101639025Y-39333461D01*
X101806566Y-39082718D01*
X101939945Y-38812252D01*
X102036880Y-38526691D01*
X102095713Y-38230920D01*
X102108297Y-38038926D01*
X103714500Y-38038926D01*
X103753596Y-38248073D01*
X103754531Y-38253073D01*
X103833226Y-38456208D01*
X103947912Y-38641432D01*
X104094676Y-38802426D01*
X104268528Y-38933712D01*
X104463542Y-39030818D01*
X104673074Y-39090435D01*
X104711176Y-39093965D01*
X104835653Y-39105500D01*
X104838525Y-39105500D01*
X104941475Y-39105500D01*
X104944347Y-39105500D01*
X105081523Y-39092788D01*
X105106925Y-39090435D01*
X105316457Y-39030818D01*
X105411500Y-38983492D01*
X105511472Y-38933712D01*
X105685322Y-38802427D01*
X105832088Y-38641432D01*
X105946772Y-38456210D01*
X105965602Y-38407606D01*
X105999360Y-38320465D01*
X106025470Y-38253069D01*
X106065500Y-38038926D01*
X106065500Y-37821074D01*
X106025470Y-37606931D01*
X106013223Y-37575319D01*
X105946773Y-37403791D01*
X105851997Y-37250723D01*
X105832088Y-37218568D01*
X105766925Y-37147087D01*
X105685323Y-37057573D01*
X105511471Y-36926287D01*
X105316457Y-36829181D01*
X105106925Y-36769564D01*
X104947207Y-36754765D01*
X104947206Y-36754764D01*
X104944347Y-36754500D01*
X104835653Y-36754500D01*
X104832794Y-36754764D01*
X104832792Y-36754765D01*
X104673074Y-36769564D01*
X104463542Y-36829181D01*
X104268528Y-36926287D01*
X104094676Y-37057573D01*
X103947912Y-37218567D01*
X103833226Y-37403791D01*
X103754531Y-37606926D01*
X103754530Y-37606930D01*
X103754530Y-37606931D01*
X103714500Y-37821074D01*
X103714500Y-38038926D01*
X102108297Y-38038926D01*
X102115436Y-37930000D01*
X102095713Y-37629080D01*
X102036880Y-37333309D01*
X101939945Y-37047748D01*
X101806566Y-36777282D01*
X101781273Y-36739429D01*
X101641284Y-36529920D01*
X101639025Y-36526539D01*
X101440189Y-36299811D01*
X101432161Y-36292771D01*
X101216518Y-36103656D01*
X101213461Y-36100975D01*
X101210079Y-36098715D01*
X100966092Y-35935688D01*
X100966087Y-35935685D01*
X100962718Y-35933434D01*
X100959082Y-35931641D01*
X100959077Y-35931638D01*
X100695894Y-35801851D01*
X100695893Y-35801850D01*
X100692252Y-35800055D01*
X100406691Y-35703120D01*
X100402714Y-35702329D01*
X100402707Y-35702327D01*
X100114899Y-35645078D01*
X100114891Y-35645077D01*
X100110920Y-35644287D01*
X100106877Y-35644022D01*
X99887328Y-35629632D01*
X99887319Y-35629631D01*
X99885310Y-35629500D01*
X99734690Y-35629500D01*
X99732681Y-35629631D01*
X99732671Y-35629632D01*
X99513122Y-35644022D01*
X99513120Y-35644022D01*
X99509080Y-35644287D01*
X99505110Y-35645076D01*
X99505100Y-35645078D01*
X99217292Y-35702327D01*
X99217281Y-35702329D01*
X99213309Y-35703120D01*
X99209466Y-35704424D01*
X99209464Y-35704425D01*
X98931594Y-35798749D01*
X98931587Y-35798751D01*
X98927748Y-35800055D01*
X98924111Y-35801848D01*
X98924105Y-35801851D01*
X98660922Y-35931638D01*
X98660910Y-35931644D01*
X98657282Y-35933434D01*
X98653919Y-35935681D01*
X98653907Y-35935688D01*
X98409920Y-36098715D01*
X98409911Y-36098721D01*
X98406539Y-36100975D01*
X98403488Y-36103650D01*
X98403481Y-36103656D01*
X98182859Y-36297137D01*
X98182851Y-36297144D01*
X98179811Y-36299811D01*
X98177144Y-36302851D01*
X98177137Y-36302859D01*
X97983656Y-36523481D01*
X97983650Y-36523488D01*
X97980975Y-36526539D01*
X97978721Y-36529911D01*
X97978715Y-36529920D01*
X97815688Y-36773907D01*
X97815681Y-36773919D01*
X97813434Y-36777282D01*
X97811644Y-36780910D01*
X97811638Y-36780922D01*
X97681851Y-37044105D01*
X97681848Y-37044111D01*
X97680055Y-37047748D01*
X97678751Y-37051587D01*
X97678749Y-37051594D01*
X97611154Y-37250723D01*
X97583120Y-37333309D01*
X97582329Y-37337281D01*
X97582327Y-37337292D01*
X97525078Y-37625100D01*
X97525076Y-37625110D01*
X97524287Y-37629080D01*
X97524022Y-37633120D01*
X97524022Y-37633122D01*
X97520814Y-37682071D01*
X97504564Y-37930000D01*
X95905500Y-37930000D01*
X95905500Y-37821074D01*
X95865470Y-37606931D01*
X95817030Y-37481893D01*
X95786774Y-37403794D01*
X95786772Y-37403790D01*
X95769438Y-37375795D01*
X95750883Y-37308436D01*
X95771691Y-37241737D01*
X95825256Y-37196875D01*
X95884132Y-37186866D01*
X95932624Y-37190500D01*
X95934941Y-37190500D01*
X96065059Y-37190500D01*
X96067376Y-37190500D01*
X96269103Y-37175383D01*
X96532195Y-37115334D01*
X96783398Y-37016743D01*
X97017102Y-36881815D01*
X97228085Y-36713561D01*
X97411635Y-36515741D01*
X97563651Y-36292775D01*
X97680738Y-36049641D01*
X97760280Y-35791772D01*
X97800500Y-35524929D01*
X97800500Y-35255071D01*
X97760280Y-34988228D01*
X97680738Y-34730359D01*
X97563651Y-34487226D01*
X97411635Y-34264259D01*
X97228085Y-34066439D01*
X97017102Y-33898185D01*
X96783398Y-33763257D01*
X96532195Y-33664666D01*
X96478060Y-33652310D01*
X96269100Y-33604616D01*
X96069690Y-33589673D01*
X96069679Y-33589672D01*
X96067376Y-33589500D01*
X95932624Y-33589500D01*
X95930321Y-33589672D01*
X95930309Y-33589673D01*
X95730899Y-33604616D01*
X95467804Y-33664666D01*
X95216601Y-33763257D01*
X94982899Y-33898184D01*
X94771914Y-34066439D01*
X94588366Y-34264256D01*
X94521655Y-34362104D01*
X94439267Y-34482946D01*
X94436348Y-34487227D01*
X94319262Y-34730359D01*
X94239719Y-34988228D01*
X94199500Y-35255071D01*
X94199500Y-35524928D01*
X94239719Y-35791771D01*
X94274664Y-35905058D01*
X94319262Y-36049641D01*
X94373643Y-36162564D01*
X94436347Y-36292771D01*
X94436348Y-36292772D01*
X94436349Y-36292774D01*
X94588365Y-36515741D01*
X94628008Y-36558466D01*
X94659176Y-36620996D01*
X94651589Y-36690453D01*
X94607656Y-36744782D01*
X94548552Y-36766277D01*
X94513074Y-36769564D01*
X94303542Y-36829181D01*
X94108528Y-36926287D01*
X93934676Y-37057573D01*
X93787912Y-37218567D01*
X93673226Y-37403791D01*
X93594531Y-37606926D01*
X93594530Y-37606930D01*
X93594530Y-37606931D01*
X93554500Y-37821074D01*
X93554500Y-38038926D01*
X92700500Y-38038926D01*
X92700500Y-36532108D01*
X92699789Y-36529920D01*
X92693037Y-36509142D01*
X92688495Y-36490219D01*
X92684719Y-36466374D01*
X92673756Y-36444859D01*
X92666309Y-36426879D01*
X92663698Y-36418844D01*
X92658849Y-36403919D01*
X92644654Y-36384382D01*
X92634490Y-36367795D01*
X92623527Y-36346279D01*
X91162587Y-34885339D01*
X91129102Y-34824016D01*
X91127172Y-34782715D01*
X91131145Y-34750000D01*
X91110640Y-34581128D01*
X91050318Y-34422070D01*
X90992555Y-34338386D01*
X90953684Y-34282072D01*
X90933574Y-34264256D01*
X90826352Y-34169266D01*
X90826350Y-34169265D01*
X90826349Y-34169264D01*
X90692625Y-34099080D01*
X90642412Y-34050495D01*
X90626438Y-33982476D01*
X90639250Y-33934014D01*
X90677405Y-33857389D01*
X90735756Y-33652310D01*
X90755429Y-33440000D01*
X90735756Y-33227690D01*
X90717876Y-33164851D01*
X90696375Y-33089283D01*
X90677405Y-33022611D01*
X90658642Y-32984928D01*
X100549500Y-32984928D01*
X100589719Y-33251771D01*
X100600680Y-33287304D01*
X100669262Y-33509641D01*
X100710599Y-33595477D01*
X100786347Y-33752771D01*
X100786348Y-33752772D01*
X100786349Y-33752774D01*
X100938365Y-33975741D01*
X101121915Y-34173561D01*
X101332898Y-34341815D01*
X101566602Y-34476743D01*
X101817805Y-34575334D01*
X102080897Y-34635383D01*
X102282624Y-34650500D01*
X102284941Y-34650500D01*
X102415059Y-34650500D01*
X102417376Y-34650500D01*
X102619103Y-34635383D01*
X102882195Y-34575334D01*
X103133398Y-34476743D01*
X103367102Y-34341815D01*
X103578085Y-34173561D01*
X103761635Y-33975741D01*
X103913651Y-33752775D01*
X104030738Y-33509641D01*
X104110280Y-33251772D01*
X104150500Y-32984929D01*
X104150500Y-32715071D01*
X104110280Y-32448228D01*
X104030738Y-32190359D01*
X103913651Y-31947226D01*
X103761635Y-31724259D01*
X103578085Y-31526439D01*
X103367102Y-31358185D01*
X103133398Y-31223257D01*
X102882195Y-31124666D01*
X102839539Y-31114930D01*
X102619100Y-31064616D01*
X102419690Y-31049673D01*
X102419679Y-31049672D01*
X102417376Y-31049500D01*
X102282624Y-31049500D01*
X102280321Y-31049672D01*
X102280309Y-31049673D01*
X102080899Y-31064616D01*
X101817804Y-31124666D01*
X101566601Y-31223257D01*
X101332899Y-31358184D01*
X101121914Y-31526439D01*
X100938366Y-31724256D01*
X100841656Y-31866105D01*
X100789758Y-31942226D01*
X100786348Y-31947227D01*
X100669262Y-32190359D01*
X100589719Y-32448228D01*
X100549500Y-32715071D01*
X100549500Y-32984928D01*
X90658642Y-32984928D01*
X90656152Y-32979928D01*
X90582368Y-32831747D01*
X90453873Y-32661594D01*
X90296301Y-32517947D01*
X90175622Y-32443226D01*
X90115019Y-32405702D01*
X90115017Y-32405701D01*
X89916198Y-32328679D01*
X89916198Y-32328678D01*
X89743455Y-32296387D01*
X89681175Y-32264719D01*
X89645902Y-32204407D01*
X89648836Y-32134599D01*
X89689045Y-32077459D01*
X89753763Y-32051128D01*
X89766232Y-32050499D01*
X90494864Y-32050499D01*
X90519991Y-32047585D01*
X90622765Y-32002206D01*
X90702206Y-31922765D01*
X90747585Y-31819991D01*
X90750500Y-31794865D01*
X90750499Y-30005136D01*
X90747585Y-29980009D01*
X90702206Y-29877235D01*
X90702204Y-29877233D01*
X90702204Y-29877232D01*
X90622767Y-29797795D01*
X90519990Y-29752414D01*
X90498414Y-29749911D01*
X90498401Y-29749910D01*
X90494865Y-29749500D01*
X90491290Y-29749500D01*
X88708714Y-29749500D01*
X88708696Y-29749500D01*
X88705136Y-29749501D01*
X88701592Y-29749911D01*
X88701592Y-29749912D01*
X88680008Y-29752415D01*
X88577232Y-29797795D01*
X88497795Y-29877232D01*
X88452414Y-29980009D01*
X88449911Y-30001585D01*
X88449911Y-30001592D01*
X88449500Y-30005135D01*
X88449500Y-30008708D01*
X88449500Y-30008709D01*
X88449500Y-31791285D01*
X88449500Y-31791302D01*
X88449501Y-31794864D01*
X88449912Y-31798407D01*
X88452415Y-31819991D01*
X88497795Y-31922767D01*
X88577232Y-32002204D01*
X88577233Y-32002204D01*
X88577235Y-32002206D01*
X88680009Y-32047585D01*
X88705135Y-32050500D01*
X89433759Y-32050499D01*
X89500796Y-32070183D01*
X89546551Y-32122987D01*
X89556495Y-32192146D01*
X89527470Y-32255702D01*
X89468692Y-32293476D01*
X89456544Y-32296387D01*
X89283802Y-32328679D01*
X89230357Y-32349383D01*
X89084982Y-32405701D01*
X88903698Y-32517947D01*
X88746126Y-32661594D01*
X88617631Y-32831747D01*
X88522595Y-33022609D01*
X88464243Y-33227689D01*
X88444571Y-33439999D01*
X88464243Y-33652310D01*
X88522595Y-33857390D01*
X88617631Y-34048252D01*
X88746126Y-34218405D01*
X88746128Y-34218407D01*
X88903698Y-34362052D01*
X89084981Y-34474298D01*
X89283802Y-34551321D01*
X89480613Y-34588111D01*
X89542893Y-34619779D01*
X89578166Y-34680092D01*
X89575232Y-34749900D01*
X89535023Y-34807040D01*
X89480613Y-34831888D01*
X89350475Y-34856215D01*
X89283801Y-34868679D01*
X89084982Y-34945701D01*
X88903698Y-35057947D01*
X88746126Y-35201594D01*
X88617631Y-35371747D01*
X88522595Y-35562609D01*
X88464243Y-35767689D01*
X88444571Y-35980000D01*
X88464243Y-36192310D01*
X88522595Y-36397390D01*
X88617631Y-36588252D01*
X88746126Y-36758405D01*
X88746128Y-36758407D01*
X88903698Y-36902052D01*
X89084981Y-37014298D01*
X89113961Y-37025524D01*
X89169362Y-37068096D01*
X89192953Y-37133863D01*
X89177243Y-37201943D01*
X89127219Y-37250723D01*
X89121573Y-37253533D01*
X88922419Y-37346401D01*
X88728921Y-37481890D01*
X88561890Y-37648921D01*
X88426400Y-37842421D01*
X88326569Y-38056507D01*
X88269364Y-38269999D01*
X88269364Y-38270000D01*
X89166314Y-38270000D01*
X89140507Y-38310156D01*
X89100000Y-38448111D01*
X89100000Y-38591889D01*
X89140507Y-38729844D01*
X89166314Y-38770000D01*
X88269364Y-38770000D01*
X88326569Y-38983492D01*
X88426399Y-39197576D01*
X88561893Y-39391081D01*
X88728918Y-39558106D01*
X88922423Y-39693600D01*
X89121572Y-39786466D01*
X89174011Y-39832638D01*
X89193163Y-39899832D01*
X89172947Y-39966713D01*
X89119782Y-40012048D01*
X89113962Y-40014474D01*
X89084984Y-40025700D01*
X88903698Y-40137947D01*
X88746126Y-40281594D01*
X88617631Y-40451747D01*
X88522595Y-40642609D01*
X88464243Y-40847689D01*
X88457678Y-40918539D01*
X88431891Y-40983476D01*
X88375090Y-41024163D01*
X88305309Y-41027683D01*
X88246526Y-40994778D01*
X87128435Y-39876687D01*
X87094950Y-39815364D01*
X87099934Y-39745672D01*
X87141806Y-39689739D01*
X87158485Y-39679212D01*
X87250852Y-39630734D01*
X87378183Y-39517929D01*
X87474818Y-39377930D01*
X87535140Y-39218872D01*
X87555645Y-39050000D01*
X87535140Y-38881128D01*
X87474818Y-38722070D01*
X87378183Y-38582071D01*
X87250852Y-38469266D01*
X87210545Y-38448111D01*
X87100224Y-38390209D01*
X86970232Y-38358170D01*
X86935056Y-38349500D01*
X86764944Y-38349500D01*
X86732284Y-38357549D01*
X86599775Y-38390209D01*
X86449149Y-38469265D01*
X86449147Y-38469266D01*
X86449148Y-38469266D01*
X86321817Y-38582071D01*
X86321815Y-38582072D01*
X86310547Y-38592056D01*
X86307579Y-38588706D01*
X86275200Y-38614938D01*
X86227450Y-38624500D01*
X84448876Y-38624500D01*
X84381837Y-38604815D01*
X84336082Y-38552011D01*
X84326138Y-38482853D01*
X84332934Y-38456529D01*
X84334952Y-38451208D01*
X84385140Y-38318872D01*
X84405645Y-38150000D01*
X84385140Y-37981128D01*
X84324818Y-37822070D01*
X84228183Y-37682071D01*
X84100852Y-37569266D01*
X84086588Y-37561780D01*
X83950224Y-37490209D01*
X83825765Y-37459533D01*
X83785056Y-37449500D01*
X83614944Y-37449500D01*
X83559887Y-37463069D01*
X83449773Y-37490210D01*
X83285816Y-37576263D01*
X83285320Y-37575319D01*
X83236989Y-37598036D01*
X83217994Y-37599500D01*
X81782006Y-37599500D01*
X81714967Y-37579815D01*
X81701444Y-37569576D01*
X81550226Y-37490210D01*
X81467640Y-37469855D01*
X81385056Y-37449500D01*
X81214944Y-37449500D01*
X81182284Y-37457549D01*
X81049775Y-37490209D01*
X80899149Y-37569265D01*
X80771815Y-37682072D01*
X80675182Y-37822069D01*
X80614860Y-37981127D01*
X80594354Y-38150000D01*
X80606684Y-38251542D01*
X80595223Y-38320465D01*
X80548320Y-38372251D01*
X80513267Y-38386884D01*
X80499774Y-38390210D01*
X80349150Y-38469264D01*
X80221815Y-38582072D01*
X80125182Y-38722069D01*
X80064860Y-38881127D01*
X80044354Y-39050000D01*
X67126466Y-39050000D01*
X67211457Y-39025818D01*
X67296459Y-38983492D01*
X67406472Y-38928712D01*
X67580322Y-38797427D01*
X67727088Y-38636432D01*
X67841772Y-38451210D01*
X67858665Y-38407606D01*
X67892423Y-38320465D01*
X67920470Y-38248069D01*
X67960500Y-38033926D01*
X67960500Y-37816074D01*
X67920470Y-37601931D01*
X67910160Y-37575319D01*
X67841773Y-37398791D01*
X67744529Y-37241737D01*
X67727088Y-37213568D01*
X67666483Y-37147087D01*
X67580323Y-37052573D01*
X67406471Y-36921287D01*
X67211457Y-36824181D01*
X67001925Y-36764564D01*
X66842207Y-36749765D01*
X66842206Y-36749764D01*
X66839347Y-36749500D01*
X66730653Y-36749500D01*
X66727794Y-36749764D01*
X66727792Y-36749765D01*
X66568074Y-36764564D01*
X66358542Y-36824181D01*
X66163528Y-36921287D01*
X66148727Y-36932465D01*
X66083365Y-36957157D01*
X66015031Y-36942592D01*
X65965418Y-36893394D01*
X65950000Y-36833511D01*
X65950000Y-33715033D01*
X77200000Y-33715033D01*
X77200317Y-33721298D01*
X77214648Y-33862222D01*
X77272488Y-34046569D01*
X77366253Y-34215503D01*
X77492105Y-34362104D01*
X77644892Y-34480370D01*
X77818358Y-34565458D01*
X77900000Y-34586595D01*
X77900000Y-33836110D01*
X77924457Y-33875610D01*
X78013962Y-33943201D01*
X78121840Y-33973895D01*
X78233521Y-33963546D01*
X78333922Y-33913552D01*
X78400000Y-33841069D01*
X78400000Y-34590470D01*
X78570527Y-34527314D01*
X78734498Y-34425111D01*
X78750883Y-34409533D01*
X78751199Y-34384591D01*
X78748094Y-34378905D01*
X78753078Y-34309213D01*
X78781579Y-34264866D01*
X79412318Y-33634127D01*
X79473641Y-33600642D01*
X79543333Y-33605626D01*
X79587680Y-33634127D01*
X79669226Y-33715673D01*
X79702711Y-33776996D01*
X79704641Y-33818299D01*
X79700000Y-33856521D01*
X79700000Y-33854351D01*
X79660387Y-33772095D01*
X79589008Y-33715173D01*
X79522532Y-33700000D01*
X79477468Y-33700000D01*
X79410992Y-33715173D01*
X79339613Y-33772095D01*
X79300000Y-33854351D01*
X79300000Y-33945649D01*
X79339613Y-34027905D01*
X79410992Y-34084827D01*
X79477468Y-34100000D01*
X79522532Y-34100000D01*
X79589008Y-34084827D01*
X79660387Y-34027905D01*
X79700000Y-33945649D01*
X79700000Y-33943473D01*
X79713763Y-34056818D01*
X79759720Y-34177997D01*
X79765087Y-34247660D01*
X79731939Y-34309166D01*
X79670801Y-34342988D01*
X79601083Y-34338386D01*
X79556097Y-34309649D01*
X79500001Y-34253553D01*
X79500000Y-34253553D01*
X79100832Y-34652719D01*
X79100833Y-34652720D01*
X79235889Y-34712851D01*
X79410659Y-34750000D01*
X79589341Y-34750000D01*
X79764110Y-34712851D01*
X79899165Y-34652720D01*
X79907469Y-34607914D01*
X79910767Y-34561807D01*
X79952639Y-34505874D01*
X80018103Y-34481457D01*
X80084575Y-34495344D01*
X80117635Y-34512696D01*
X80271015Y-34550500D01*
X80428985Y-34550500D01*
X80582365Y-34512696D01*
X80717377Y-34441835D01*
X80785881Y-34428110D01*
X80832620Y-34441834D01*
X80967635Y-34512696D01*
X81121015Y-34550500D01*
X81278985Y-34550500D01*
X81432361Y-34512697D01*
X81432361Y-34512696D01*
X81432365Y-34512696D01*
X81511466Y-34471179D01*
X81579970Y-34457455D01*
X81645023Y-34482946D01*
X81685968Y-34539562D01*
X81687020Y-34542658D01*
X81687445Y-34543966D01*
X81689440Y-34613808D01*
X81653360Y-34673641D01*
X81627142Y-34692081D01*
X81549148Y-34733016D01*
X81421815Y-34845822D01*
X81325182Y-34985819D01*
X81264860Y-35144877D01*
X81244354Y-35313750D01*
X81264860Y-35482622D01*
X81325182Y-35641680D01*
X81421815Y-35781677D01*
X81421816Y-35781678D01*
X81421817Y-35781679D01*
X81549148Y-35894484D01*
X81699775Y-35973540D01*
X81864944Y-36014250D01*
X81864945Y-36014250D01*
X82035055Y-36014250D01*
X82035056Y-36014250D01*
X82200225Y-35973540D01*
X82350852Y-35894484D01*
X82392774Y-35857343D01*
X82456005Y-35827624D01*
X82525268Y-35836806D01*
X82557224Y-35857342D01*
X82599148Y-35894484D01*
X82599150Y-35894485D01*
X82743022Y-35969996D01*
X82749775Y-35973540D01*
X82914944Y-36014250D01*
X82914945Y-36014250D01*
X83085055Y-36014250D01*
X83085056Y-36014250D01*
X83250225Y-35973540D01*
X83400852Y-35894484D01*
X83528183Y-35781679D01*
X83624818Y-35641680D01*
X83685140Y-35482622D01*
X83705645Y-35313750D01*
X83685140Y-35144878D01*
X83624818Y-34985820D01*
X83576500Y-34915820D01*
X83528184Y-34845822D01*
X83484408Y-34807040D01*
X83400852Y-34733016D01*
X83287724Y-34673641D01*
X83265914Y-34662194D01*
X83215702Y-34613609D01*
X83199728Y-34545590D01*
X83223064Y-34479732D01*
X83265895Y-34442612D01*
X83267364Y-34441841D01*
X83335866Y-34428109D01*
X83382620Y-34441834D01*
X83517635Y-34512696D01*
X83671015Y-34550500D01*
X83828985Y-34550500D01*
X83982365Y-34512696D01*
X84117377Y-34441835D01*
X84185881Y-34428110D01*
X84232620Y-34441834D01*
X84367635Y-34512696D01*
X84521015Y-34550500D01*
X84678985Y-34550500D01*
X84832365Y-34512696D01*
X84865418Y-34495348D01*
X84933926Y-34481621D01*
X84998980Y-34507112D01*
X85039925Y-34563727D01*
X85042282Y-34606583D01*
X85050833Y-34652720D01*
X85185889Y-34712851D01*
X85360659Y-34750000D01*
X85539341Y-34750000D01*
X85714110Y-34712851D01*
X85849165Y-34652720D01*
X85849165Y-34652719D01*
X85450001Y-34253553D01*
X85393902Y-34309651D01*
X85332578Y-34343135D01*
X85262887Y-34338151D01*
X85206953Y-34296279D01*
X85182537Y-34230814D01*
X85190278Y-34178000D01*
X85236237Y-34056818D01*
X85250000Y-33943468D01*
X85250000Y-33945649D01*
X85289613Y-34027905D01*
X85360992Y-34084827D01*
X85427468Y-34100000D01*
X85472532Y-34100000D01*
X85539008Y-34084827D01*
X85610387Y-34027905D01*
X85650000Y-33945649D01*
X85650000Y-33854351D01*
X85610387Y-33772095D01*
X85539008Y-33715173D01*
X85472532Y-33700000D01*
X85427468Y-33700000D01*
X85360992Y-33715173D01*
X85289613Y-33772095D01*
X85250000Y-33854351D01*
X85250000Y-33856531D01*
X85245357Y-33818298D01*
X85256817Y-33749378D01*
X85280772Y-33715673D01*
X85362318Y-33634127D01*
X85423641Y-33600642D01*
X85493333Y-33605626D01*
X85537680Y-33634127D01*
X86168420Y-34264866D01*
X86201905Y-34326189D01*
X86198673Y-34371371D01*
X86200976Y-34407673D01*
X86294892Y-34480370D01*
X86468358Y-34565458D01*
X86550000Y-34586595D01*
X86550000Y-33836110D01*
X86574457Y-33875610D01*
X86663962Y-33943201D01*
X86771840Y-33973895D01*
X86883521Y-33963546D01*
X86983922Y-33913552D01*
X87050000Y-33841069D01*
X87050000Y-34590470D01*
X87220527Y-34527314D01*
X87384501Y-34425109D01*
X87524535Y-34291996D01*
X87634912Y-34133414D01*
X87711106Y-33955862D01*
X87750000Y-33766604D01*
X87750000Y-33170000D01*
X87100000Y-33170000D01*
X87100000Y-32670000D01*
X87750000Y-32670000D01*
X87750000Y-32124966D01*
X87749682Y-32118701D01*
X87735351Y-31977777D01*
X87677511Y-31793430D01*
X87583746Y-31624496D01*
X87457894Y-31477895D01*
X87305109Y-31359631D01*
X87131641Y-31274541D01*
X87050000Y-31253403D01*
X87050000Y-32003889D01*
X87025543Y-31964390D01*
X86936038Y-31896799D01*
X86828160Y-31866105D01*
X86716479Y-31876454D01*
X86616078Y-31926448D01*
X86550000Y-31998930D01*
X86550000Y-31249528D01*
X86549999Y-31249528D01*
X86379469Y-31312685D01*
X86215498Y-31414890D01*
X86075464Y-31548003D01*
X85965084Y-31706590D01*
X85963376Y-31710570D01*
X85918845Y-31764410D01*
X85852275Y-31785628D01*
X85798994Y-31774941D01*
X85714108Y-31737147D01*
X85539341Y-31700000D01*
X85360659Y-31700000D01*
X85185887Y-31737148D01*
X85177079Y-31741070D01*
X85107829Y-31750351D01*
X85044554Y-31720720D01*
X85038969Y-31715471D01*
X85027844Y-31704346D01*
X85013708Y-31690210D01*
X85005209Y-31680792D01*
X84979277Y-31648917D01*
X84964612Y-31638565D01*
X84948441Y-31624943D01*
X84592381Y-31268882D01*
X84589467Y-31265868D01*
X84545654Y-31218956D01*
X84545653Y-31218955D01*
X84545652Y-31218954D01*
X84510548Y-31197607D01*
X84500053Y-31190464D01*
X84494885Y-31186545D01*
X84467316Y-31165639D01*
X84467314Y-31165638D01*
X84450618Y-31159053D01*
X84431688Y-31149650D01*
X84416358Y-31140328D01*
X84385898Y-31131793D01*
X84376788Y-31129240D01*
X84364769Y-31125199D01*
X84326538Y-31110124D01*
X84326537Y-31110123D01*
X84326535Y-31110123D01*
X84308689Y-31108288D01*
X84287926Y-31104342D01*
X84270642Y-31099500D01*
X84270639Y-31099500D01*
X84229556Y-31099500D01*
X84216875Y-31098850D01*
X84176001Y-31094647D01*
X84158318Y-31097697D01*
X84137249Y-31099500D01*
X80766548Y-31099500D01*
X80762315Y-31099428D01*
X80698199Y-31097237D01*
X80658281Y-31106965D01*
X80645810Y-31109335D01*
X80605104Y-31114930D01*
X80588638Y-31122082D01*
X80568604Y-31128818D01*
X80551176Y-31133065D01*
X80515359Y-31153203D01*
X80503996Y-31158847D01*
X80466303Y-31175220D01*
X80452384Y-31186545D01*
X80434909Y-31198439D01*
X80419265Y-31207235D01*
X80390210Y-31236289D01*
X80380789Y-31244792D01*
X80348916Y-31270723D01*
X80338567Y-31285384D01*
X80324946Y-31301554D01*
X79968880Y-31657619D01*
X79965837Y-31660560D01*
X79906502Y-31715977D01*
X79903394Y-31712649D01*
X79875236Y-31738266D01*
X79806338Y-31749877D01*
X79770580Y-31740029D01*
X79764108Y-31737147D01*
X79589341Y-31700000D01*
X79410659Y-31700000D01*
X79235891Y-31737147D01*
X79147497Y-31776503D01*
X79078247Y-31785787D01*
X79014970Y-31756158D01*
X78988643Y-31723401D01*
X78933745Y-31624494D01*
X78807894Y-31477895D01*
X78655109Y-31359631D01*
X78481641Y-31274541D01*
X78400000Y-31253403D01*
X78400000Y-32003889D01*
X78375543Y-31964390D01*
X78286038Y-31896799D01*
X78178160Y-31866105D01*
X78066479Y-31876454D01*
X77966078Y-31926448D01*
X77900000Y-31998930D01*
X77900000Y-31249528D01*
X77899999Y-31249528D01*
X77729469Y-31312685D01*
X77565498Y-31414890D01*
X77425464Y-31548003D01*
X77315087Y-31706585D01*
X77238893Y-31884137D01*
X77200000Y-32073395D01*
X77200000Y-32670000D01*
X77850000Y-32670000D01*
X77850000Y-33170000D01*
X77200000Y-33170000D01*
X77200000Y-33715033D01*
X65950000Y-33715033D01*
X65950000Y-33444675D01*
X65955509Y-33408125D01*
X65955715Y-33407457D01*
X66005280Y-33246772D01*
X66045500Y-32979929D01*
X66045500Y-32710071D01*
X66005280Y-32443228D01*
X65969947Y-32328680D01*
X65955509Y-32281872D01*
X65950000Y-32245323D01*
X65950000Y-30151131D01*
X65969685Y-30084092D01*
X65986040Y-30063730D01*
X66954877Y-29088701D01*
X67796363Y-28241837D01*
X67857578Y-28208157D01*
X67883917Y-28205241D01*
X77475773Y-28174726D01*
X77542871Y-28194197D01*
X77588794Y-28246855D01*
X77598957Y-28315981D01*
X77570135Y-28379629D01*
X77561596Y-28388599D01*
X77425464Y-28518003D01*
X77315087Y-28676585D01*
X77238893Y-28854137D01*
X77200000Y-29043395D01*
X77200000Y-29290000D01*
X77850000Y-29290000D01*
X77850000Y-29790000D01*
X77200000Y-29790000D01*
X77200000Y-29985033D01*
X77200317Y-29991298D01*
X77214648Y-30132222D01*
X77272488Y-30316569D01*
X77366253Y-30485503D01*
X77492105Y-30632104D01*
X77644892Y-30750370D01*
X77818358Y-30835458D01*
X77900000Y-30856595D01*
X77900000Y-30106110D01*
X77924457Y-30145610D01*
X78013962Y-30213201D01*
X78121840Y-30243895D01*
X78233521Y-30233546D01*
X78333922Y-30183552D01*
X78400000Y-30111069D01*
X78400000Y-30860470D01*
X78570527Y-30797314D01*
X78734501Y-30695109D01*
X78874535Y-30561996D01*
X78984912Y-30403414D01*
X79061106Y-30225862D01*
X79100000Y-30036604D01*
X79100000Y-29790000D01*
X78450000Y-29790000D01*
X78450000Y-29290000D01*
X79100000Y-29290000D01*
X79100000Y-29094966D01*
X79099682Y-29088701D01*
X79085351Y-28947777D01*
X79027511Y-28763430D01*
X78933746Y-28594496D01*
X78807894Y-28447895D01*
X78736369Y-28392531D01*
X78695405Y-28335930D01*
X78691544Y-28266167D01*
X78726013Y-28205392D01*
X78787868Y-28172900D01*
X78811871Y-28170476D01*
X86163263Y-28147089D01*
X86230362Y-28166560D01*
X86276285Y-28219218D01*
X86286448Y-28288344D01*
X86257626Y-28351992D01*
X86229250Y-28376318D01*
X86215500Y-28384888D01*
X86075464Y-28518003D01*
X85965087Y-28676585D01*
X85888893Y-28854137D01*
X85850000Y-29043395D01*
X85850000Y-29290000D01*
X86500000Y-29290000D01*
X86500000Y-29790000D01*
X85850000Y-29790000D01*
X85850000Y-29985033D01*
X85850317Y-29991298D01*
X85864648Y-30132222D01*
X85922488Y-30316569D01*
X86016253Y-30485503D01*
X86142105Y-30632104D01*
X86294892Y-30750370D01*
X86468358Y-30835458D01*
X86550000Y-30856595D01*
X86550000Y-30106110D01*
X86574457Y-30145610D01*
X86663962Y-30213201D01*
X86771840Y-30243895D01*
X86883521Y-30233546D01*
X86983922Y-30183552D01*
X87050000Y-30111069D01*
X87050000Y-30860470D01*
X87220527Y-30797314D01*
X87384501Y-30695109D01*
X87524535Y-30561996D01*
X87634912Y-30403414D01*
X87711106Y-30225862D01*
X87750000Y-30036604D01*
X87750000Y-29790000D01*
X87100000Y-29790000D01*
X87100000Y-29290000D01*
X87750000Y-29290000D01*
X87750000Y-29094966D01*
X87749682Y-29088701D01*
X87735351Y-28947777D01*
X87677511Y-28763430D01*
X87583746Y-28594496D01*
X87457894Y-28447895D01*
X87350964Y-28365125D01*
X87310000Y-28308524D01*
X87306139Y-28238761D01*
X87340609Y-28177986D01*
X87402464Y-28145494D01*
X87426459Y-28143071D01*
X104631001Y-28088338D01*
X104698099Y-28107809D01*
G37*
G04 #@! TD.AperFunction*
M02*
