M48
; DRILL file {KiCad 7.0.2} date Wed Jun 28 22:35:29 2023
; FORMAT={-:-/ absolute / metric / decimal}
; #@! TF.CreationDate,2023-06-28T22:35:29-06:00
; #@! TF.GenerationSoftware,Kicad,Pcbnew,7.0.2
; #@! TF.FileFunction,Plated,1,2,PTH
FMAT,2
METRIC
; #@! TA.AperFunction,Plated,PTH,ViaDrill
T1C0.400
; #@! TA.AperFunction,Plated,PTH,ComponentDrill
T2C0.400
; #@! TA.AperFunction,Plated,PTH,ComponentDrill
T3C0.600
; #@! TA.AperFunction,Plated,PTH,ComponentDrill
T4C1.000
; #@! TA.AperFunction,Plated,PTH,ComponentDrill
T5C1.500
%
G90
G05
T1
X29.355Y-85.995
X29.355Y-124.095
X29.355Y-143.295
X29.455Y-105.095
X29.5Y-67.0
X49.0Y-41.6
X53.15Y-67.1
X53.355Y-38.545
X55.7Y-143.25
X57.95Y-86.0
X60.25Y-105.0
X64.95Y-124.25
X67.55Y-47.75
X67.7Y-45.575
X68.05Y-51.95
X70.45Y-50.625
X71.65Y-46.15
X71.699Y-44.011
X71.7Y-45.15
X71.744Y-43.013
X72.2Y-41.1
X72.4Y-72.9
X73.15Y-90.3
X73.624Y-49.338
X73.684Y-48.253
X73.734Y-46.155
X73.734Y-47.179
X73.74Y-45.131
X73.75Y-43.999
X74.513Y-49.795
X74.659Y-44.475
X75.525Y-49.9
X75.55Y-61.9
X75.575Y-55.375
X75.65Y-36.75
X75.7Y-40.85
X76.325Y-51.05
X76.424Y-69.15
X76.6Y-36.75
X76.975Y-33.775
X76.975Y-34.7
X77.8Y-51.151
X77.95Y-34.95
X78.5Y-43.2
X78.85Y-34.95
X78.85Y-51.151
X78.9Y-57.1
X79.05Y-53.3
X79.45Y-36.1
X79.73Y-48.3
X80.75Y-39.05
X80.876Y-47.85
X81.3Y-38.15
X81.5Y-39.85
X81.65Y-136.65
X81.95Y-35.314
X81.95Y-86.15
X83.0Y-35.314
X83.15Y-43.55
X83.4Y-110.88
X83.45Y-52.35
X83.7Y-38.15
X83.973Y-42.601
X84.218Y-51.71
X84.302Y-44.583
X84.35Y-53.3
X84.4Y-47.7
X84.909Y-50.988
X85.1Y-55.1
X86.05Y-41.7
X86.45Y-105.25
X86.85Y-39.05
X87.3Y-50.3
X87.9Y-42.4
X88.5Y-48.05
X89.8Y-47.05
X90.425Y-34.75
X90.45Y-110.9
X91.252Y-67.097
X91.339Y-42.975
X92.212Y-43.475
X92.5Y-40.675
X93.132Y-43.975
X93.8Y-30.8
X94.055Y-44.475
X94.1Y-110.9
X94.5Y-125.55
X94.725Y-45.325
X94.725Y-46.35
X95.05Y-127.75
X95.3Y-58.775
X96.0Y-49.5
X99.05Y-148.45
X100.852Y-85.998
X101.024Y-45.954
X101.024Y-46.953
X101.024Y-47.953
X101.024Y-48.952
X101.024Y-49.952
X101.024Y-50.951
X101.024Y-51.951
X101.024Y-52.95
X101.024Y-53.95
X101.024Y-54.95
X101.056Y-55.948
X101.063Y-44.955
X101.102Y-43.956
X103.35Y-143.3
X105.703Y-105.248
X106.55Y-44.05
X110.405Y-38.545
X110.502Y-67.047
X115.002Y-124.347
X119.953Y-86.147
X124.703Y-105.297
X127.35Y-53.969
X129.4Y-38.6
X129.4Y-67.1
X134.302Y-124.297
X139.0Y-86.05
X143.7Y-105.25
X147.2Y-53.244
X148.4Y-67.15
X148.55Y-38.6
X153.35Y-124.35
X157.95Y-86.05
X162.9Y-105.1
X165.8Y-52.52
X167.55Y-67.1
X172.25Y-124.4
X174.7Y-143.3
X177.15Y-38.65
X177.15Y-86.15
X181.85Y-105.3
X185.1Y-51.795
X186.65Y-67.1
X191.25Y-124.3
X196.05Y-38.55
X196.1Y-86.1
X200.85Y-105.2
X204.45Y-51.071
X205.7Y-67.0
X210.4Y-124.35
X215.2Y-86.25
X215.3Y-38.6
X219.9Y-105.35
X223.4Y-50.346
X224.75Y-67.05
X229.35Y-124.3
X234.15Y-38.7
X234.2Y-86.3
X238.9Y-105.4
X243.75Y-67.05
X246.2Y-143.4
X248.45Y-124.35
X250.55Y-49.622
X253.35Y-86.05
X258.1Y-105.2
X262.9Y-38.7
X262.9Y-67.05
X267.5Y-124.35
X269.9Y-143.35
X270.1Y-48.898
X272.2Y-86.15
X277.15Y-105.15
X281.7Y-67.05
X281.9Y-38.6
X289.95Y-48.173
X291.45Y-86.15
X293.12Y-121.12
X293.7Y-143.25
X300.85Y-38.65
X308.15Y-105.2
X309.85Y-47.448
X310.45Y-67.0
X315.15Y-86.25
X318.3Y-137.0
X320.0Y-38.6
X342.5Y-46.724
X343.85Y-38.5
X343.9Y-67.1
X343.9Y-86.4
X343.9Y-143.4
X361.6Y-45.999
X362.7Y-86.25
X362.7Y-143.25
X362.85Y-66.95
X362.85Y-124.4
X362.852Y-38.547
X381.0Y-45.275
X381.85Y-143.4
X381.9Y-86.2
X381.95Y-38.5
X381.95Y-67.3
T2
X79.5Y-32.55
X79.5Y-33.9
X80.35Y-32.55
X80.35Y-33.9
X81.2Y-32.55
X81.2Y-33.9
X82.05Y-32.55
X82.05Y-33.9
X82.9Y-32.55
X82.9Y-33.9
X83.75Y-32.55
X83.75Y-33.9
X84.6Y-32.55
X84.6Y-33.9
X85.45Y-32.55
X85.45Y-33.9
T4
X30.4Y-35.375
X30.4Y-37.875
X30.4Y-40.375
X44.9Y-35.375
X44.9Y-40.375
X89.6Y-30.9
X89.6Y-33.44
X89.6Y-35.98
X89.6Y-38.52
X89.6Y-41.06
T3
X78.15Y-29.14G85X78.15Y-29.94
G05
X78.15Y-32.17G85X78.15Y-33.67
G05
X86.8Y-29.14G85X86.8Y-29.94
G05
X86.8Y-32.17G85X86.8Y-33.67
G05
T5
X37.25Y-32.275G85X38.55Y-32.275
G05
X37.25Y-43.475G85X38.55Y-43.475
G05
T0
M30
