G04 #@! TF.GenerationSoftware,KiCad,Pcbnew,7.0.2*
G04 #@! TF.CreationDate,2023-06-28T22:35:23-06:00*
G04 #@! TF.ProjectId,TKL_Keyboard,544b4c5f-4b65-4796-926f-6172642e6b69,rev?*
G04 #@! TF.SameCoordinates,Original*
G04 #@! TF.FileFunction,Copper,L2,Bot*
G04 #@! TF.FilePolarity,Positive*
%FSLAX46Y46*%
G04 Gerber Fmt 4.6, Leading zero omitted, Abs format (unit mm)*
G04 Created by KiCad (PCBNEW 7.0.2) date 2023-06-28 22:35:23*
%MOMM*%
%LPD*%
G01*
G04 APERTURE LIST*
G04 Aperture macros list*
%AMRoundRect*
0 Rectangle with rounded corners*
0 $1 Rounding radius*
0 $2 $3 $4 $5 $6 $7 $8 $9 X,Y pos of 4 corners*
0 Add a 4 corners polygon primitive as box body*
4,1,4,$2,$3,$4,$5,$6,$7,$8,$9,$2,$3,0*
0 Add four circle primitives for the rounded corners*
1,1,$1+$1,$2,$3*
1,1,$1+$1,$4,$5*
1,1,$1+$1,$6,$7*
1,1,$1+$1,$8,$9*
0 Add four rect primitives between the rounded corners*
20,1,$1+$1,$2,$3,$4,$5,0*
20,1,$1+$1,$4,$5,$6,$7,0*
20,1,$1+$1,$6,$7,$8,$9,0*
20,1,$1+$1,$8,$9,$2,$3,0*%
G04 Aperture macros list end*
G04 #@! TA.AperFunction,SMDPad,CuDef*
%ADD10R,2.550000X2.500000*%
G04 #@! TD*
G04 #@! TA.AperFunction,ComponentPad*
%ADD11R,1.700000X1.700000*%
G04 #@! TD*
G04 #@! TA.AperFunction,ComponentPad*
%ADD12O,1.700000X1.700000*%
G04 #@! TD*
G04 #@! TA.AperFunction,ComponentPad*
%ADD13R,2.000000X2.000000*%
G04 #@! TD*
G04 #@! TA.AperFunction,ComponentPad*
%ADD14C,2.000000*%
G04 #@! TD*
G04 #@! TA.AperFunction,ComponentPad*
%ADD15R,3.200000X2.000000*%
G04 #@! TD*
G04 #@! TA.AperFunction,SMDPad,CuDef*
%ADD16RoundRect,0.140000X0.170000X-0.140000X0.170000X0.140000X-0.170000X0.140000X-0.170000X-0.140000X0*%
G04 #@! TD*
G04 #@! TA.AperFunction,SMDPad,CuDef*
%ADD17RoundRect,0.225000X0.375000X-0.225000X0.375000X0.225000X-0.375000X0.225000X-0.375000X-0.225000X0*%
G04 #@! TD*
G04 #@! TA.AperFunction,ComponentPad*
%ADD18C,0.700000*%
G04 #@! TD*
G04 #@! TA.AperFunction,ComponentPad*
%ADD19O,0.900000X1.700000*%
G04 #@! TD*
G04 #@! TA.AperFunction,ComponentPad*
%ADD20O,0.900000X2.400000*%
G04 #@! TD*
G04 #@! TA.AperFunction,SMDPad,CuDef*
%ADD21RoundRect,0.250000X0.262500X0.450000X-0.262500X0.450000X-0.262500X-0.450000X0.262500X-0.450000X0*%
G04 #@! TD*
G04 #@! TA.AperFunction,SMDPad,CuDef*
%ADD22RoundRect,0.140000X-0.170000X0.140000X-0.170000X-0.140000X0.170000X-0.140000X0.170000X0.140000X0*%
G04 #@! TD*
G04 #@! TA.AperFunction,SMDPad,CuDef*
%ADD23RoundRect,0.250000X-0.450000X0.262500X-0.450000X-0.262500X0.450000X-0.262500X0.450000X0.262500X0*%
G04 #@! TD*
G04 #@! TA.AperFunction,SMDPad,CuDef*
%ADD24RoundRect,0.150000X0.512500X0.150000X-0.512500X0.150000X-0.512500X-0.150000X0.512500X-0.150000X0*%
G04 #@! TD*
G04 #@! TA.AperFunction,SMDPad,CuDef*
%ADD25RoundRect,0.218750X0.256250X-0.218750X0.256250X0.218750X-0.256250X0.218750X-0.256250X-0.218750X0*%
G04 #@! TD*
G04 #@! TA.AperFunction,SMDPad,CuDef*
%ADD26R,1.600000X1.300000*%
G04 #@! TD*
G04 #@! TA.AperFunction,SMDPad,CuDef*
%ADD27RoundRect,0.250000X0.475000X-0.250000X0.475000X0.250000X-0.475000X0.250000X-0.475000X-0.250000X0*%
G04 #@! TD*
G04 #@! TA.AperFunction,SMDPad,CuDef*
%ADD28RoundRect,0.250000X-0.262500X-0.450000X0.262500X-0.450000X0.262500X0.450000X-0.262500X0.450000X0*%
G04 #@! TD*
G04 #@! TA.AperFunction,SMDPad,CuDef*
%ADD29RoundRect,0.250000X-0.475000X0.250000X-0.475000X-0.250000X0.475000X-0.250000X0.475000X0.250000X0*%
G04 #@! TD*
G04 #@! TA.AperFunction,SMDPad,CuDef*
%ADD30RoundRect,0.140000X-0.140000X-0.170000X0.140000X-0.170000X0.140000X0.170000X-0.140000X0.170000X0*%
G04 #@! TD*
G04 #@! TA.AperFunction,SMDPad,CuDef*
%ADD31RoundRect,0.140000X0.140000X0.170000X-0.140000X0.170000X-0.140000X-0.170000X0.140000X-0.170000X0*%
G04 #@! TD*
G04 #@! TA.AperFunction,SMDPad,CuDef*
%ADD32R,1.000000X0.800000*%
G04 #@! TD*
G04 #@! TA.AperFunction,SMDPad,CuDef*
%ADD33R,0.700000X1.500000*%
G04 #@! TD*
G04 #@! TA.AperFunction,SMDPad,CuDef*
%ADD34RoundRect,0.250000X-0.250000X-0.475000X0.250000X-0.475000X0.250000X0.475000X-0.250000X0.475000X0*%
G04 #@! TD*
G04 #@! TA.AperFunction,SMDPad,CuDef*
%ADD35RoundRect,0.075000X0.075000X-0.662500X0.075000X0.662500X-0.075000X0.662500X-0.075000X-0.662500X0*%
G04 #@! TD*
G04 #@! TA.AperFunction,SMDPad,CuDef*
%ADD36RoundRect,0.075000X0.662500X-0.075000X0.662500X0.075000X-0.662500X0.075000X-0.662500X-0.075000X0*%
G04 #@! TD*
G04 #@! TA.AperFunction,ViaPad*
%ADD37C,0.800000*%
G04 #@! TD*
G04 #@! TA.AperFunction,Conductor*
%ADD38C,0.500000*%
G04 #@! TD*
G04 #@! TA.AperFunction,Conductor*
%ADD39C,0.300000*%
G04 #@! TD*
G04 #@! TA.AperFunction,Conductor*
%ADD40C,0.250000*%
G04 #@! TD*
G04 #@! TA.AperFunction,Conductor*
%ADD41C,0.200000*%
G04 #@! TD*
G04 APERTURE END LIST*
D10*
X116523000Y-121140000D03*
X129450000Y-118600000D03*
X235598000Y-83040000D03*
X248525000Y-80500000D03*
X159398000Y-83015000D03*
X172325000Y-80475000D03*
X247498000Y-140165000D03*
X260425000Y-137625000D03*
X111745000Y-35410000D03*
X124672000Y-32870000D03*
X176073000Y-140165000D03*
X189000000Y-137625000D03*
X230823000Y-121140000D03*
X243750000Y-118600000D03*
X154648000Y-121115000D03*
X167575000Y-118575000D03*
X30798000Y-121140000D03*
X43725000Y-118600000D03*
X207023000Y-63965000D03*
X219950000Y-61425000D03*
X216550000Y-35400000D03*
X229477000Y-32860000D03*
X345123000Y-140190000D03*
X358050000Y-137650000D03*
X264170000Y-35410000D03*
X277097000Y-32870000D03*
X345123000Y-83015000D03*
X358050000Y-80475000D03*
X54623000Y-63990000D03*
X67550000Y-61450000D03*
X178448000Y-83040000D03*
X191375000Y-80500000D03*
X87948000Y-102065000D03*
X100875000Y-99525000D03*
X202248000Y-102065000D03*
X215175000Y-99525000D03*
X268923000Y-121115000D03*
X281850000Y-118575000D03*
X383223000Y-140165000D03*
X396150000Y-137625000D03*
D11*
X89600000Y-30900000D03*
D12*
X89600000Y-33440000D03*
X89600000Y-35980000D03*
X89600000Y-38520000D03*
X89600000Y-41060000D03*
D10*
X178445000Y-35385000D03*
X191372000Y-32845000D03*
X316548000Y-83040000D03*
X329475000Y-80500000D03*
X216548000Y-83015000D03*
X229475000Y-80475000D03*
X30798000Y-63990000D03*
X43725000Y-61450000D03*
X30798000Y-140190000D03*
X43725000Y-137650000D03*
X187973000Y-63990000D03*
X200900000Y-61450000D03*
X383225000Y-63975000D03*
X396152000Y-61435000D03*
X321325000Y-35400000D03*
X334252000Y-32860000D03*
X197498000Y-83040000D03*
X210425000Y-80500000D03*
X107023000Y-102065000D03*
X119950000Y-99525000D03*
X130825000Y-35425000D03*
X143752000Y-32885000D03*
X318923000Y-140165000D03*
X331850000Y-137625000D03*
X83200000Y-83040000D03*
X96127000Y-80500000D03*
X164148000Y-102090000D03*
X177075000Y-99550000D03*
X30800000Y-83025000D03*
X43727000Y-80485000D03*
X364173000Y-140190000D03*
X377100000Y-137650000D03*
X292748000Y-83040000D03*
X305675000Y-80500000D03*
X59375000Y-83025000D03*
X72302000Y-80485000D03*
X192725000Y-121140000D03*
X205652000Y-118600000D03*
X61750000Y-102075000D03*
X74677000Y-99535000D03*
X304648000Y-121115000D03*
X317575000Y-118575000D03*
X73673000Y-63990000D03*
X86600000Y-61450000D03*
D13*
X30400000Y-35375000D03*
D14*
X30400000Y-40375000D03*
X30400000Y-37875000D03*
D15*
X37900000Y-32275000D03*
X37900000Y-43475000D03*
D14*
X44900000Y-40375000D03*
X44900000Y-35375000D03*
D10*
X264173000Y-63965000D03*
X277100000Y-61425000D03*
X104623000Y-140165000D03*
X117550000Y-137625000D03*
X92725000Y-35390000D03*
X105652000Y-32850000D03*
X309423000Y-102065000D03*
X322350000Y-99525000D03*
X273698000Y-83040000D03*
X286625000Y-80500000D03*
X383225000Y-35400000D03*
X396152000Y-32860000D03*
X149870000Y-35400000D03*
X162797000Y-32860000D03*
X56998000Y-140190000D03*
X69925000Y-137650000D03*
X283223000Y-63965000D03*
X296150000Y-61425000D03*
X173673000Y-121140000D03*
X186600000Y-118600000D03*
X54620000Y-35385000D03*
X67547000Y-32845000D03*
X311798000Y-63990000D03*
X324725000Y-61450000D03*
X383223000Y-83040000D03*
X396150000Y-80500000D03*
X345123000Y-63990000D03*
X358050000Y-61450000D03*
X249873000Y-121140000D03*
X262800000Y-118600000D03*
X364173000Y-121140000D03*
X377100000Y-118600000D03*
X364173000Y-83040000D03*
X377100000Y-80500000D03*
X211773000Y-121140000D03*
X224700000Y-118600000D03*
X345125000Y-35400000D03*
X358052000Y-32860000D03*
X221298000Y-102065000D03*
X234225000Y-99525000D03*
X302250000Y-35400000D03*
X315177000Y-32860000D03*
X259398000Y-102065000D03*
X272325000Y-99525000D03*
X97473000Y-121140000D03*
X110400000Y-118600000D03*
X295123000Y-140190000D03*
X308050000Y-137650000D03*
X283200000Y-35400000D03*
X296127000Y-32860000D03*
X80798000Y-140190000D03*
X93725000Y-137650000D03*
X235595000Y-35400000D03*
X248522000Y-32860000D03*
X111773000Y-63965000D03*
X124700000Y-61425000D03*
X30798000Y-102090000D03*
X43725000Y-99550000D03*
X226073000Y-63965000D03*
X239000000Y-61425000D03*
X135573000Y-121140000D03*
X148500000Y-118600000D03*
X102250000Y-83025000D03*
X115177000Y-80485000D03*
X271323000Y-140165000D03*
X284250000Y-137625000D03*
X121300000Y-83025000D03*
X134227000Y-80485000D03*
X240348000Y-102090000D03*
X253275000Y-99550000D03*
X278448000Y-102090000D03*
X291375000Y-99550000D03*
X245123000Y-63965000D03*
X258050000Y-61425000D03*
X149875000Y-63990000D03*
X162802000Y-61450000D03*
X254648000Y-83015000D03*
X267575000Y-80475000D03*
X92723000Y-64000000D03*
X105650000Y-61460000D03*
X183198000Y-102090000D03*
X196125000Y-99550000D03*
X364175000Y-63965000D03*
X377102000Y-61425000D03*
X168923000Y-63990000D03*
X181850000Y-61450000D03*
X126048000Y-102065000D03*
X138975000Y-99525000D03*
X145098000Y-102090000D03*
X158025000Y-99550000D03*
X140348000Y-83015000D03*
X153275000Y-80475000D03*
X364175000Y-35400000D03*
X377102000Y-32860000D03*
X197495000Y-35400000D03*
X210422000Y-32860000D03*
X66523000Y-121115000D03*
X79450000Y-118575000D03*
X130823000Y-63965000D03*
X143750000Y-61425000D03*
D16*
X75575000Y-52010000D03*
X75575000Y-51050000D03*
D17*
X70000000Y-72900000D03*
X70000000Y-69600000D03*
X255750000Y-111000000D03*
X255750000Y-107700000D03*
D18*
X79500000Y-33900000D03*
X80350000Y-33900000D03*
X81200000Y-33900000D03*
X82050000Y-33900000D03*
X82900000Y-33900000D03*
X83750000Y-33900000D03*
X84600000Y-33900000D03*
X85450000Y-33900000D03*
X85450000Y-32550000D03*
X84600000Y-32550000D03*
X83750000Y-32550000D03*
X82900000Y-32550000D03*
X82050000Y-32550000D03*
X81200000Y-32550000D03*
X80350000Y-32550000D03*
X79500000Y-32550000D03*
D19*
X78150000Y-29540000D03*
D20*
X78150000Y-32920000D03*
D19*
X86800000Y-29540000D03*
D20*
X86800000Y-32920000D03*
D17*
X270000000Y-91900000D03*
X270000000Y-88600000D03*
D21*
X61850000Y-46700000D03*
X60025000Y-46700000D03*
D16*
X91550000Y-41050000D03*
X91550000Y-40090000D03*
D17*
X360500000Y-149150000D03*
X360500000Y-145850000D03*
D22*
X68475000Y-46775000D03*
X68475000Y-47735000D03*
D23*
X80400000Y-35137500D03*
X80400000Y-36962500D03*
D17*
X165500000Y-72750000D03*
X165500000Y-69450000D03*
X174750000Y-92000000D03*
X174750000Y-88700000D03*
X396450000Y-72900000D03*
X396450000Y-69600000D03*
X117750000Y-92000000D03*
X117750000Y-88700000D03*
D22*
X66775000Y-44620000D03*
X66775000Y-45580000D03*
D17*
X395800000Y-90950000D03*
X395800000Y-87650000D03*
X294000000Y-111050000D03*
X294000000Y-107750000D03*
X189000000Y-130050000D03*
X189000000Y-126750000D03*
X379750000Y-130050000D03*
X379750000Y-126750000D03*
X96250000Y-149150000D03*
X96250000Y-145850000D03*
X146000000Y-73000000D03*
X146000000Y-69700000D03*
X81500000Y-130150000D03*
X81500000Y-126850000D03*
X246250000Y-129900000D03*
X246250000Y-126600000D03*
D24*
X76200000Y-35950000D03*
X76200000Y-37850000D03*
X73925000Y-36900000D03*
D25*
X74300000Y-53580000D03*
X74300000Y-52005000D03*
D17*
X184500000Y-72800000D03*
X184500000Y-69500000D03*
D26*
X83560000Y-57100000D03*
X80260000Y-57100000D03*
X80260000Y-55100000D03*
X83560000Y-55100000D03*
D17*
X241500000Y-72800000D03*
X241500000Y-69500000D03*
X127250000Y-44000000D03*
X127250000Y-40700000D03*
X98750000Y-91900000D03*
X98750000Y-88600000D03*
X46250000Y-72800000D03*
X46250000Y-69500000D03*
D27*
X78150000Y-37850000D03*
X78150000Y-35950000D03*
D17*
X396400000Y-149100000D03*
X396400000Y-145800000D03*
X193750000Y-92050000D03*
X193750000Y-88750000D03*
D28*
X91987500Y-29550000D03*
X93812500Y-29550000D03*
D17*
X310500000Y-149050000D03*
X310500000Y-145750000D03*
D28*
X93012500Y-48800000D03*
X94837500Y-48800000D03*
D17*
X160500000Y-111000000D03*
X160500000Y-107700000D03*
X191500000Y-149050000D03*
X191500000Y-145750000D03*
X46250000Y-110900000D03*
X46250000Y-107600000D03*
D29*
X73950000Y-41000000D03*
X73950000Y-42900000D03*
D17*
X194000000Y-44400000D03*
X194000000Y-41100000D03*
D30*
X79840000Y-52000000D03*
X80800000Y-52000000D03*
D17*
X108250000Y-72800000D03*
X108250000Y-69500000D03*
X317750000Y-44400000D03*
X317750000Y-41100000D03*
X151250000Y-130150000D03*
X151250000Y-126850000D03*
X136750000Y-91900000D03*
X136750000Y-88600000D03*
D23*
X47775000Y-47637500D03*
X47775000Y-49462500D03*
D17*
X232000000Y-91900000D03*
X232000000Y-88600000D03*
X263250000Y-149050000D03*
X263250000Y-145750000D03*
X49000000Y-46050000D03*
X49000000Y-42750000D03*
X379500000Y-91900000D03*
X379500000Y-88600000D03*
X396450000Y-44300000D03*
X396450000Y-41000000D03*
X46250000Y-91900000D03*
X46250000Y-88600000D03*
X141500000Y-111050000D03*
X141500000Y-107750000D03*
X379750000Y-44150000D03*
X379750000Y-40850000D03*
X260500000Y-73000000D03*
X260500000Y-69700000D03*
X213000000Y-44500000D03*
X213000000Y-41200000D03*
X289250000Y-92000000D03*
X289250000Y-88700000D03*
X298750000Y-44150000D03*
X298750000Y-40850000D03*
X120000000Y-149050000D03*
X120000000Y-145750000D03*
X170250000Y-130050000D03*
X170250000Y-126750000D03*
X284500000Y-130050000D03*
X284500000Y-126750000D03*
D30*
X85240000Y-49900000D03*
X86200000Y-49900000D03*
D17*
X122500000Y-111000000D03*
X122500000Y-107700000D03*
D31*
X80800000Y-53300000D03*
X79840000Y-53300000D03*
D17*
X279750000Y-72800000D03*
X279750000Y-69500000D03*
X379500000Y-149050000D03*
X379500000Y-145750000D03*
X222500000Y-72900000D03*
X222500000Y-69600000D03*
X103500000Y-110900000D03*
X103500000Y-107600000D03*
X327250000Y-73000000D03*
X327250000Y-69700000D03*
X227250000Y-130150000D03*
X227250000Y-126850000D03*
X251000000Y-44250000D03*
X251000000Y-40950000D03*
X332000000Y-91800000D03*
X332000000Y-88500000D03*
D32*
X98900000Y-53750000D03*
X98900000Y-51540000D03*
X91600000Y-53750000D03*
X91600000Y-51540000D03*
D33*
X97500000Y-50890000D03*
X94500000Y-50890000D03*
X93000000Y-50890000D03*
D17*
X251000000Y-91900000D03*
X251000000Y-88600000D03*
X112750000Y-130150000D03*
X112750000Y-126850000D03*
X179750000Y-111000000D03*
X179750000Y-107700000D03*
X265250000Y-130050000D03*
X265250000Y-126750000D03*
X334250000Y-149150000D03*
X334250000Y-145850000D03*
D22*
X75500000Y-41940000D03*
X75500000Y-42900000D03*
D17*
X279750000Y-44400000D03*
X279750000Y-41100000D03*
X72500000Y-149150000D03*
X72500000Y-145850000D03*
X208000000Y-129900000D03*
X208000000Y-126600000D03*
X298750000Y-72800000D03*
X298750000Y-69500000D03*
X324500000Y-110900000D03*
X324500000Y-107600000D03*
X308250000Y-91800000D03*
X308250000Y-88500000D03*
X198750000Y-111050000D03*
X198750000Y-107750000D03*
X379750000Y-72800000D03*
X379750000Y-69500000D03*
D22*
X75575000Y-53590000D03*
X75575000Y-54550000D03*
D28*
X83137500Y-36750000D03*
X84962500Y-36750000D03*
D17*
X275000000Y-111150000D03*
X275000000Y-107850000D03*
X236750000Y-111050000D03*
X236750000Y-107750000D03*
X127250000Y-72800000D03*
X127250000Y-69500000D03*
X74750000Y-92000000D03*
X74750000Y-88700000D03*
X165250000Y-44150000D03*
X165250000Y-40850000D03*
D21*
X61850000Y-44600000D03*
X60025000Y-44600000D03*
D34*
X74000000Y-34200000D03*
X75900000Y-34200000D03*
D16*
X87400000Y-48900000D03*
X87400000Y-47940000D03*
D17*
X70000000Y-43650000D03*
X70000000Y-40350000D03*
X132000000Y-130150000D03*
X132000000Y-126850000D03*
X46250000Y-130150000D03*
X46250000Y-126850000D03*
X360500000Y-72900000D03*
X360500000Y-69600000D03*
D31*
X84900000Y-39500000D03*
X83940000Y-39500000D03*
D17*
X217750000Y-110900000D03*
X217750000Y-107600000D03*
D35*
X84225000Y-49612500D03*
X83725000Y-49612500D03*
X83225000Y-49612500D03*
X82725000Y-49612500D03*
X82225000Y-49612500D03*
X81725000Y-49612500D03*
X81225000Y-49612500D03*
X80725000Y-49612500D03*
X80225000Y-49612500D03*
X79725000Y-49612500D03*
X79225000Y-49612500D03*
X78725000Y-49612500D03*
D36*
X77312500Y-48200000D03*
X77312500Y-47700000D03*
X77312500Y-47200000D03*
X77312500Y-46700000D03*
X77312500Y-46200000D03*
X77312500Y-45700000D03*
X77312500Y-45200000D03*
X77312500Y-44700000D03*
X77312500Y-44200000D03*
X77312500Y-43700000D03*
X77312500Y-43200000D03*
X77312500Y-42700000D03*
D35*
X78725000Y-41287500D03*
X79225000Y-41287500D03*
X79725000Y-41287500D03*
X80225000Y-41287500D03*
X80725000Y-41287500D03*
X81225000Y-41287500D03*
X81725000Y-41287500D03*
X82225000Y-41287500D03*
X82725000Y-41287500D03*
X83225000Y-41287500D03*
X83725000Y-41287500D03*
X84225000Y-41287500D03*
D36*
X85637500Y-42700000D03*
X85637500Y-43200000D03*
X85637500Y-43700000D03*
X85637500Y-44200000D03*
X85637500Y-44700000D03*
X85637500Y-45200000D03*
X85637500Y-45700000D03*
X85637500Y-46200000D03*
X85637500Y-46700000D03*
X85637500Y-47200000D03*
X85637500Y-47700000D03*
X85637500Y-48200000D03*
D17*
X108250000Y-44050000D03*
X108250000Y-40750000D03*
X46250000Y-149150000D03*
X46250000Y-145850000D03*
X360500000Y-44150000D03*
X360500000Y-40850000D03*
X146250000Y-44250000D03*
X146250000Y-40950000D03*
X232000000Y-44400000D03*
X232000000Y-41100000D03*
X89000000Y-72900000D03*
X89000000Y-69600000D03*
X213000000Y-91900000D03*
X213000000Y-88600000D03*
D30*
X82440000Y-53300000D03*
X83400000Y-53300000D03*
D17*
X319750000Y-129800000D03*
X319750000Y-126500000D03*
X360500000Y-92050000D03*
X360500000Y-88750000D03*
X336750000Y-44150000D03*
X336750000Y-40850000D03*
D23*
X45750000Y-48937500D03*
X45750000Y-50762500D03*
D17*
X203500000Y-72800000D03*
X203500000Y-69500000D03*
X155750000Y-92000000D03*
X155750000Y-88700000D03*
X77250000Y-110900000D03*
X77250000Y-107600000D03*
X286750000Y-149050000D03*
X286750000Y-145750000D03*
D37*
X87300000Y-50300000D03*
X84350000Y-53300000D03*
X85100000Y-55100000D03*
X68050000Y-51950000D03*
X75650000Y-36750000D03*
X78900000Y-57100000D03*
X76975000Y-33775000D03*
X96000000Y-49500000D03*
X80875500Y-47850000D03*
X92500000Y-40675000D03*
X84400000Y-47700000D03*
X93800000Y-30800000D03*
X79450000Y-36100000D03*
X76325000Y-51050000D03*
X76600000Y-36750000D03*
X67700000Y-45575000D03*
X76975000Y-34700000D03*
X78850000Y-34950000D03*
X78500000Y-43200000D03*
X79050000Y-53300000D03*
X67550000Y-47750000D03*
X75575000Y-55375000D03*
X83972527Y-42600734D03*
X77950000Y-34950000D03*
X72400000Y-72900000D03*
X73734378Y-47178830D03*
X73684341Y-48253465D03*
X73150000Y-90300000D03*
X90450000Y-110900000D03*
X73624500Y-49337905D03*
X83400000Y-110880498D03*
X94100000Y-110900000D03*
X95050000Y-127750000D03*
X74513475Y-49794774D03*
X81300000Y-38150000D03*
X83700000Y-38150000D03*
X84301791Y-44583281D03*
X87900000Y-42400000D03*
X86050000Y-41700000D03*
X83150000Y-43550000D03*
X49000000Y-41600000D03*
X71700000Y-45150000D03*
X73739538Y-45131461D03*
X71650000Y-46150000D03*
X73734087Y-46154522D03*
X60250000Y-105000000D03*
X53150000Y-67100000D03*
X64950000Y-124250000D03*
X53355000Y-38545000D03*
X72200000Y-41100000D03*
X75700000Y-40850000D03*
X55700000Y-143250000D03*
X57950000Y-86000000D03*
X100852500Y-85997500D03*
X115002500Y-124347500D03*
X105702500Y-105247500D03*
X103350000Y-143300000D03*
X91252500Y-67097500D03*
X78850000Y-51150500D03*
X110502500Y-67047500D03*
X134302500Y-124297500D03*
X119952500Y-86147500D03*
X124702500Y-105297500D03*
X79730120Y-48300000D03*
X110405000Y-38545000D03*
X143700000Y-105250000D03*
X101056323Y-55948498D03*
X83450000Y-52350000D03*
X139000000Y-86050000D03*
X127350000Y-53969000D03*
X153350000Y-124350000D03*
X129400000Y-38600000D03*
X129400000Y-67100000D03*
X148550000Y-38600000D03*
X84217839Y-51710134D03*
X101024500Y-54949503D03*
X147200000Y-53244500D03*
X157950000Y-86050000D03*
X172250000Y-124400000D03*
X162900000Y-105100000D03*
X148400000Y-67150000D03*
X186650000Y-67100000D03*
X200850000Y-105200000D03*
X196050000Y-38550000D03*
X196100000Y-86100000D03*
X185100000Y-51795500D03*
X210400000Y-124350000D03*
X101024500Y-52950497D03*
X88500000Y-48050000D03*
X101024500Y-51950994D03*
X229350000Y-124300000D03*
X204450000Y-51071000D03*
X215300000Y-38600000D03*
X205700000Y-67000000D03*
X219900000Y-105350000D03*
X89800000Y-47050000D03*
X215200000Y-86250000D03*
X94725500Y-46350000D03*
X223400000Y-50346500D03*
X238900000Y-105400000D03*
X234150000Y-38700000D03*
X101024500Y-50951491D03*
X224750000Y-67050000D03*
X248450000Y-124350000D03*
X234200000Y-86300000D03*
X246200000Y-143400000D03*
X250550000Y-49622000D03*
X269900000Y-143350000D03*
X258100000Y-105200000D03*
X253350000Y-86050000D03*
X94725500Y-45325402D03*
X101024500Y-49951988D03*
X267500000Y-124350000D03*
X243750000Y-67050000D03*
X262900000Y-38700000D03*
X318300000Y-137000000D03*
X281700000Y-67050000D03*
X300850000Y-38650000D03*
X291450000Y-86150000D03*
X101024500Y-47952982D03*
X308150000Y-105200000D03*
X93131651Y-43975500D03*
X289950000Y-48173000D03*
X101024500Y-46953479D03*
X92212078Y-43475500D03*
X309850000Y-47448500D03*
X320000000Y-38600000D03*
X315150000Y-86250000D03*
X310450000Y-67000000D03*
X101024500Y-45953976D03*
X342500000Y-46724000D03*
X343850000Y-38500000D03*
X343900000Y-67100000D03*
X343900000Y-86400000D03*
X343900000Y-143400000D03*
X91339390Y-42975500D03*
X362700000Y-143250000D03*
X362852500Y-38547500D03*
X362850000Y-66950000D03*
X362850000Y-124400000D03*
X101063443Y-44955232D03*
X361600000Y-45999500D03*
X362700000Y-86250000D03*
X81500000Y-39850000D03*
X381950000Y-38500000D03*
X381950000Y-67300000D03*
X80750000Y-39050000D03*
X101101666Y-43956461D03*
X381000000Y-45275000D03*
X86850000Y-39050000D03*
X90425500Y-34750000D03*
X381850000Y-143400000D03*
X381900000Y-86200000D03*
X29355000Y-143295000D03*
X71744115Y-43012729D03*
X29355000Y-85995000D03*
X29500000Y-67000000D03*
X29455000Y-105095000D03*
X29355000Y-124095000D03*
X74659028Y-44475500D03*
X86450000Y-105250000D03*
X75550000Y-61900000D03*
X76424500Y-69150000D03*
X81950000Y-86150000D03*
X81650000Y-136650000D03*
X94500000Y-125550000D03*
X77800000Y-51150500D03*
X165800000Y-52520000D03*
X177150000Y-86150000D03*
X84909134Y-50988250D03*
X174700000Y-143300000D03*
X167550000Y-67100000D03*
X191250000Y-124300000D03*
X177150000Y-38650000D03*
X181850000Y-105300000D03*
X101024500Y-53950000D03*
X83000000Y-35313750D03*
X81950000Y-35313750D03*
X94054814Y-44475500D03*
X281900000Y-38600000D03*
X272200000Y-86150000D03*
X262900000Y-67050000D03*
X101024500Y-48952485D03*
X277150000Y-105150000D03*
X293700000Y-143250000D03*
X293120000Y-121120000D03*
X270100000Y-48897500D03*
X99050000Y-148450000D03*
X75525000Y-49900000D03*
X95300000Y-58775500D03*
X70450000Y-50625000D03*
X106550000Y-44050000D03*
X71699498Y-44011235D03*
X73750000Y-43999500D03*
D38*
X80350000Y-33900000D02*
X80350000Y-32550000D01*
X84600000Y-33900000D02*
X84600000Y-32550000D01*
D39*
X33875000Y-35375000D02*
X45750000Y-47250000D01*
X30400000Y-35375000D02*
X33875000Y-35375000D01*
X45750000Y-47250000D02*
X57375000Y-47250000D01*
X57375000Y-47250000D02*
X60025000Y-44600000D01*
D38*
X79840000Y-53300000D02*
X79050000Y-53300000D01*
X67695000Y-45580000D02*
X67700000Y-45575000D01*
X79300000Y-35950000D02*
X79450000Y-36100000D01*
X66775000Y-45580000D02*
X67695000Y-45580000D01*
X75575000Y-54550000D02*
X75575000Y-55375000D01*
X93812500Y-29550000D02*
X93812500Y-30787500D01*
X68475000Y-47735000D02*
X67565000Y-47735000D01*
D39*
X77312500Y-43200000D02*
X75800000Y-43200000D01*
D38*
X94837500Y-48800000D02*
X95300000Y-48800000D01*
X86900000Y-49900000D02*
X87300000Y-50300000D01*
D39*
X83725000Y-41287500D02*
X83725000Y-39715000D01*
X75800000Y-43200000D02*
X75500000Y-42900000D01*
D38*
X28900000Y-47425000D02*
X28900000Y-39375000D01*
X28900000Y-39375000D02*
X30400000Y-37875000D01*
X68025000Y-51975000D02*
X33450000Y-51975000D01*
D39*
X80725000Y-51925000D02*
X80725000Y-49612500D01*
X83972527Y-42600734D02*
X83725000Y-42353207D01*
D38*
X75500000Y-42900000D02*
X73950000Y-42900000D01*
D39*
X80875500Y-47850000D02*
X80725000Y-48000500D01*
D38*
X95300000Y-48800000D02*
X96000000Y-49500000D01*
D39*
X85637500Y-47700000D02*
X84400000Y-47700000D01*
D38*
X91550000Y-41050000D02*
X92125000Y-41050000D01*
X83400000Y-53300000D02*
X84350000Y-53300000D01*
X93812500Y-30787500D02*
X93800000Y-30800000D01*
X68050000Y-51950000D02*
X68025000Y-51975000D01*
X33450000Y-51975000D02*
X28900000Y-47425000D01*
D39*
X80725000Y-48000500D02*
X80725000Y-49612500D01*
X77312500Y-43200000D02*
X78500000Y-43200000D01*
D38*
X67565000Y-47735000D02*
X67550000Y-47750000D01*
D39*
X83725000Y-39715000D02*
X83940000Y-39500000D01*
D38*
X78150000Y-35950000D02*
X79300000Y-35950000D01*
X80312500Y-36962500D02*
X79450000Y-36100000D01*
D39*
X83725000Y-42353207D02*
X83725000Y-41287500D01*
D38*
X80260000Y-57100000D02*
X78900000Y-57100000D01*
D39*
X87160000Y-47700000D02*
X87400000Y-47940000D01*
D38*
X83560000Y-55100000D02*
X85100000Y-55100000D01*
X92125000Y-41050000D02*
X92500000Y-40675000D01*
X75575000Y-51050000D02*
X76325000Y-51050000D01*
X86200000Y-49900000D02*
X86900000Y-49900000D01*
D39*
X85637500Y-47700000D02*
X87160000Y-47700000D01*
D40*
X146000000Y-73000000D02*
X165250000Y-73000000D01*
X72400000Y-72900000D02*
X89000000Y-72900000D01*
X241500000Y-72800000D02*
X260300000Y-72800000D01*
X359650000Y-72250000D02*
X360400000Y-73000000D01*
X222500000Y-72900000D02*
X241400000Y-72900000D01*
X77312500Y-46200000D02*
X74713208Y-46200000D01*
X299300000Y-72250000D02*
X326500000Y-72250000D01*
X46250000Y-72800000D02*
X69900000Y-72800000D01*
X360500000Y-72900000D02*
X379650000Y-72900000D01*
X70000000Y-72900000D02*
X72400000Y-72900000D01*
X127250000Y-72800000D02*
X145800000Y-72800000D01*
X328000000Y-72250000D02*
X359650000Y-72250000D01*
X279750000Y-72800000D02*
X298750000Y-72800000D01*
X326500000Y-72250000D02*
X327050000Y-72800000D01*
X203500000Y-72800000D02*
X222400000Y-72800000D01*
X165500000Y-72750000D02*
X184450000Y-72750000D01*
X74713208Y-46200000D02*
X73734378Y-47178830D01*
X184500000Y-72800000D02*
X203500000Y-72800000D01*
X327250000Y-73000000D02*
X328000000Y-72250000D01*
X89000000Y-72900000D02*
X108150000Y-72900000D01*
X260700000Y-72800000D02*
X279750000Y-72800000D01*
X108250000Y-72800000D02*
X127250000Y-72800000D01*
X298750000Y-72800000D02*
X299300000Y-72250000D01*
X379750000Y-72800000D02*
X396350000Y-72800000D01*
X70000000Y-35298000D02*
X67547000Y-32845000D01*
X70000000Y-40350000D02*
X70000000Y-35298000D01*
X105652000Y-32935000D02*
X108250000Y-35533000D01*
X108250000Y-35533000D02*
X108250000Y-40750000D01*
X127250000Y-35328000D02*
X127250000Y-40700000D01*
X124792000Y-32870000D02*
X127250000Y-35328000D01*
X146250000Y-35383000D02*
X143752000Y-32885000D01*
X146250000Y-40950000D02*
X146250000Y-35383000D01*
X165250000Y-40850000D02*
X165250000Y-35313000D01*
X165250000Y-35313000D02*
X162797000Y-32860000D01*
X194000000Y-35473000D02*
X191372000Y-32845000D01*
X194000000Y-41100000D02*
X194000000Y-35473000D01*
X213000000Y-41200000D02*
X213000000Y-35438000D01*
X213000000Y-35438000D02*
X210422000Y-32860000D01*
X232000000Y-41100000D02*
X232000000Y-35383000D01*
X232000000Y-35383000D02*
X229477000Y-32860000D01*
X251000000Y-35338000D02*
X248522000Y-32860000D01*
X251000000Y-40950000D02*
X251000000Y-35338000D01*
X279750000Y-41100000D02*
X279750000Y-35523000D01*
X279750000Y-35523000D02*
X277097000Y-32870000D01*
X298750000Y-40850000D02*
X298750000Y-35483000D01*
X298750000Y-35483000D02*
X296127000Y-32860000D01*
X317750000Y-41100000D02*
X317750000Y-35433000D01*
X317750000Y-35433000D02*
X315177000Y-32860000D01*
X336750000Y-40850000D02*
X336750000Y-35358000D01*
X336750000Y-35358000D02*
X334252000Y-32860000D01*
D39*
X41650000Y-45100000D02*
X35125000Y-45100000D01*
X60025000Y-46700000D02*
X58175000Y-48550000D01*
X45100000Y-48550000D02*
X41650000Y-45100000D01*
X58175000Y-48550000D02*
X45100000Y-48550000D01*
X35125000Y-45100000D02*
X30400000Y-40375000D01*
D40*
X360500000Y-40850000D02*
X360500000Y-35308000D01*
X360500000Y-35308000D02*
X358052000Y-32860000D01*
X379750000Y-35508000D02*
X377102000Y-32860000D01*
X379750000Y-40850000D02*
X379750000Y-35508000D01*
X397000000Y-40450000D02*
X397000000Y-33708000D01*
X396450000Y-41000000D02*
X397000000Y-40450000D01*
X43922000Y-61420000D02*
X46250000Y-63748000D01*
X46250000Y-63748000D02*
X46250000Y-69500000D01*
X67552000Y-61500000D02*
X70000000Y-63948000D01*
X70000000Y-63948000D02*
X70000000Y-69600000D01*
X89000000Y-63698000D02*
X89000000Y-69600000D01*
X86802000Y-61500000D02*
X89000000Y-63698000D01*
X105652000Y-61460000D02*
X108250000Y-64058000D01*
X108250000Y-64058000D02*
X108250000Y-69500000D01*
X124902000Y-61460000D02*
X127250000Y-63808000D01*
X127250000Y-63808000D02*
X127250000Y-69500000D01*
X146000000Y-63698000D02*
X146000000Y-69700000D01*
X143802000Y-61500000D02*
X146000000Y-63698000D01*
X162802000Y-61500000D02*
X165500000Y-64198000D01*
X165500000Y-64198000D02*
X165500000Y-69450000D01*
X181927000Y-61460000D02*
X184500000Y-64033000D01*
X184500000Y-64033000D02*
X184500000Y-69500000D01*
X203500000Y-63948000D02*
X203500000Y-69500000D01*
X201052000Y-61500000D02*
X203500000Y-63948000D01*
X222500000Y-63828000D02*
X222500000Y-69600000D01*
X220092000Y-61420000D02*
X222500000Y-63828000D01*
X239172000Y-61420000D02*
X241500000Y-63748000D01*
X241500000Y-63748000D02*
X241500000Y-69500000D01*
X258152000Y-61460000D02*
X260500000Y-63808000D01*
X260500000Y-63808000D02*
X260500000Y-69700000D01*
X279750000Y-63828000D02*
X279750000Y-69500000D01*
X277342000Y-61420000D02*
X279750000Y-63828000D01*
X296092000Y-61420000D02*
X298750000Y-64078000D01*
X298750000Y-64078000D02*
X298750000Y-69500000D01*
X324902000Y-61460000D02*
X327250000Y-63808000D01*
X327250000Y-63808000D02*
X327250000Y-69700000D01*
X75237806Y-46700000D02*
X73684341Y-48253465D01*
X98750000Y-91900000D02*
X117650000Y-91900000D01*
X193750000Y-92050000D02*
X212850000Y-92050000D01*
X117750000Y-92000000D02*
X136650000Y-92000000D01*
X360500000Y-92050000D02*
X379350000Y-92050000D01*
X394850000Y-91900000D02*
X395800000Y-90950000D01*
X73150000Y-90300000D02*
X73150000Y-90400000D01*
X77312500Y-46700000D02*
X75237806Y-46700000D01*
X213000000Y-91900000D02*
X232000000Y-91900000D01*
X74750000Y-92000000D02*
X98650000Y-92000000D01*
X73150000Y-90400000D02*
X74750000Y-92000000D01*
X174750000Y-92000000D02*
X193700000Y-92000000D01*
X232000000Y-91900000D02*
X251000000Y-91900000D01*
X46350000Y-92000000D02*
X74750000Y-92000000D01*
X308250000Y-91800000D02*
X332000000Y-91800000D01*
X289250000Y-92000000D02*
X308050000Y-92000000D01*
X136750000Y-91900000D02*
X155650000Y-91900000D01*
X251000000Y-91900000D02*
X270000000Y-91900000D01*
X270000000Y-91900000D02*
X289150000Y-91900000D01*
X155750000Y-92000000D02*
X174750000Y-92000000D01*
X332000000Y-91800000D02*
X360250000Y-91800000D01*
X379500000Y-91900000D02*
X394850000Y-91900000D01*
X358262000Y-61420000D02*
X360500000Y-63658000D01*
X360500000Y-63658000D02*
X360500000Y-69600000D01*
X379750000Y-63908000D02*
X379750000Y-69500000D01*
X377262000Y-61420000D02*
X379750000Y-63908000D01*
X46250000Y-82908000D02*
X46250000Y-88600000D01*
X43762000Y-80420000D02*
X46250000Y-82908000D01*
X72342000Y-80420000D02*
X74750000Y-82828000D01*
X74750000Y-82828000D02*
X74750000Y-88700000D01*
X96302000Y-80500000D02*
X98750000Y-82948000D01*
X98750000Y-82948000D02*
X98750000Y-88600000D01*
X117750000Y-88700000D02*
X117750000Y-82908000D01*
X117750000Y-82908000D02*
X115262000Y-80420000D01*
X136750000Y-88600000D02*
X136750000Y-82948000D01*
X136750000Y-82948000D02*
X134302000Y-80500000D01*
X155750000Y-82808000D02*
X153402000Y-80460000D01*
X155750000Y-88700000D02*
X155750000Y-82808000D01*
X174750000Y-82828000D02*
X174750000Y-88700000D01*
X172342000Y-80420000D02*
X174750000Y-82828000D01*
X193750000Y-82698000D02*
X193750000Y-88750000D01*
X191552000Y-80500000D02*
X193750000Y-82698000D01*
X213000000Y-82908000D02*
X213000000Y-88600000D01*
X210512000Y-80420000D02*
X213000000Y-82908000D01*
X232000000Y-82973000D02*
X232000000Y-88600000D01*
X229617000Y-80590000D02*
X232000000Y-82973000D01*
X248567000Y-80590000D02*
X251000000Y-83023000D01*
X251000000Y-83023000D02*
X251000000Y-88600000D01*
X270000000Y-82658000D02*
X270000000Y-88600000D01*
X267762000Y-80420000D02*
X270000000Y-82658000D01*
X286592000Y-80420000D02*
X289250000Y-83078000D01*
X289250000Y-83078000D02*
X289250000Y-88700000D01*
X308250000Y-82948000D02*
X308250000Y-88500000D01*
X305802000Y-80500000D02*
X308250000Y-82948000D01*
X329567000Y-80590000D02*
X332000000Y-83023000D01*
X332000000Y-83023000D02*
X332000000Y-88500000D01*
X236750000Y-111050000D02*
X217900000Y-111050000D01*
X94100000Y-110900000D02*
X103500000Y-110900000D01*
X293900000Y-111150000D02*
X275000000Y-111150000D01*
X160500000Y-111000000D02*
X141550000Y-111000000D01*
X141500000Y-111050000D02*
X122550000Y-111050000D01*
X90430498Y-110880498D02*
X90450000Y-110900000D01*
X75762405Y-47200000D02*
X73624500Y-49337905D01*
X83400000Y-110880498D02*
X90430498Y-110880498D01*
X77312500Y-47200000D02*
X75762405Y-47200000D01*
X217750000Y-110900000D02*
X198900000Y-110900000D01*
X179750000Y-111000000D02*
X160500000Y-111000000D01*
X77250000Y-110900000D02*
X46250000Y-110900000D01*
X198750000Y-111050000D02*
X179800000Y-111050000D01*
X255750000Y-111000000D02*
X236800000Y-111000000D01*
X324500000Y-110900000D02*
X324010000Y-110410000D01*
X294640000Y-110410000D02*
X294000000Y-111050000D01*
X275000000Y-111150000D02*
X255900000Y-111150000D01*
X324010000Y-110410000D02*
X294640000Y-110410000D01*
X122400000Y-110900000D02*
X103500000Y-110900000D01*
X83400000Y-110880498D02*
X77269502Y-110880498D01*
X360500000Y-82908000D02*
X360500000Y-88750000D01*
X358262000Y-80670000D02*
X360500000Y-82908000D01*
X379500000Y-82973000D02*
X379500000Y-88600000D01*
X377117000Y-80590000D02*
X379500000Y-82973000D01*
X397075000Y-145125000D02*
X396400000Y-145800000D01*
X397075000Y-138483000D02*
X397075000Y-145125000D01*
X46250000Y-101973000D02*
X46250000Y-107600000D01*
X43867000Y-99590000D02*
X46250000Y-101973000D01*
X74672000Y-99420000D02*
X77250000Y-101998000D01*
X77250000Y-101998000D02*
X77250000Y-107600000D01*
X103500000Y-102223000D02*
X100867000Y-99590000D01*
X103500000Y-107600000D02*
X103500000Y-102223000D01*
X122500000Y-107700000D02*
X122500000Y-101973000D01*
X122500000Y-101973000D02*
X120117000Y-99590000D01*
X141500000Y-102078000D02*
X139092000Y-99670000D01*
X141500000Y-107750000D02*
X141500000Y-102078000D01*
X158067000Y-99580000D02*
X160500000Y-102013000D01*
X160500000Y-102013000D02*
X160500000Y-107700000D01*
X179750000Y-101948000D02*
X179750000Y-107700000D01*
X177302000Y-99500000D02*
X179750000Y-101948000D01*
X196262000Y-99670000D02*
X198750000Y-102158000D01*
X198750000Y-102158000D02*
X198750000Y-107750000D01*
X215250000Y-99500000D02*
X217750000Y-102000000D01*
X217750000Y-102000000D02*
X217750000Y-107600000D01*
X236750000Y-102158000D02*
X236750000Y-107750000D01*
X234262000Y-99670000D02*
X236750000Y-102158000D01*
X253262000Y-99670000D02*
X255750000Y-102158000D01*
X255750000Y-102158000D02*
X255750000Y-107700000D01*
X272500000Y-99500000D02*
X275000000Y-102000000D01*
X275000000Y-102000000D02*
X275000000Y-107850000D01*
X294000000Y-101948000D02*
X294000000Y-107750000D01*
X291552000Y-99500000D02*
X294000000Y-101948000D01*
X324500000Y-101448000D02*
X324500000Y-107600000D01*
X322552000Y-99500000D02*
X324500000Y-101448000D01*
X397025000Y-86425000D02*
X395800000Y-87650000D01*
X397025000Y-81183000D02*
X397025000Y-86425000D01*
X76287003Y-47700000D02*
X77312500Y-47700000D01*
X112750000Y-130150000D02*
X132000000Y-130150000D01*
X82400000Y-129250000D02*
X81500000Y-130150000D01*
X93550000Y-129250000D02*
X82400000Y-129250000D01*
X132000000Y-130150000D02*
X151250000Y-130150000D01*
X378950000Y-129250000D02*
X379750000Y-130050000D01*
X320300000Y-129250000D02*
X378950000Y-129250000D01*
X47150000Y-129250000D02*
X80600000Y-129250000D01*
X74513475Y-49473528D02*
X76287003Y-47700000D01*
X95050000Y-127750000D02*
X96050000Y-127750000D01*
X80600000Y-129250000D02*
X81500000Y-130150000D01*
X189000000Y-130050000D02*
X207850000Y-130050000D01*
X227250000Y-130150000D02*
X246000000Y-130150000D01*
X284500000Y-130050000D02*
X285300000Y-129250000D01*
X95050000Y-127750000D02*
X93550000Y-129250000D01*
X320060000Y-129490000D02*
X320300000Y-129250000D01*
X98450000Y-130150000D02*
X112750000Y-130150000D01*
X46250000Y-130150000D02*
X47150000Y-129250000D01*
X170250000Y-130050000D02*
X189000000Y-130050000D01*
X285300000Y-129250000D02*
X319200000Y-129250000D01*
X74513475Y-49794774D02*
X74513475Y-49473528D01*
X265250000Y-130050000D02*
X284500000Y-130050000D01*
X319200000Y-129250000D02*
X319440000Y-129490000D01*
X246250000Y-129900000D02*
X265100000Y-129900000D01*
X96050000Y-127750000D02*
X98450000Y-130150000D01*
X151250000Y-130150000D02*
X170150000Y-130150000D01*
X208000000Y-129900000D02*
X227000000Y-129900000D01*
X46250000Y-121000000D02*
X46250000Y-126850000D01*
X43750000Y-118500000D02*
X46250000Y-121000000D01*
X81500000Y-120808000D02*
X81500000Y-126850000D01*
X79402000Y-118710000D02*
X81500000Y-120808000D01*
X112750000Y-120948000D02*
X110552000Y-118750000D01*
X112750000Y-126850000D02*
X112750000Y-120948000D01*
X132000000Y-121283000D02*
X132000000Y-126850000D01*
X129427000Y-118710000D02*
X132000000Y-121283000D01*
X148677000Y-118710000D02*
X151250000Y-121283000D01*
X151250000Y-121283000D02*
X151250000Y-126850000D01*
X170250000Y-121158000D02*
X170250000Y-126750000D01*
X167762000Y-118670000D02*
X170250000Y-121158000D01*
X186587000Y-118680000D02*
X189000000Y-121093000D01*
X189000000Y-121093000D02*
X189000000Y-126750000D01*
X208000000Y-121058000D02*
X208000000Y-126600000D01*
X205652000Y-118710000D02*
X208000000Y-121058000D01*
X227250000Y-121198000D02*
X227250000Y-126850000D01*
X224802000Y-118750000D02*
X227250000Y-121198000D01*
X243762000Y-118670000D02*
X246250000Y-121158000D01*
X246250000Y-121158000D02*
X246250000Y-126600000D01*
X262842000Y-118670000D02*
X265250000Y-121078000D01*
X265250000Y-121078000D02*
X265250000Y-126750000D01*
X281902000Y-118710000D02*
X284500000Y-121308000D01*
X284500000Y-121308000D02*
X284500000Y-126750000D01*
X319750000Y-126500000D02*
X319750000Y-120568000D01*
X319750000Y-120568000D02*
X317762000Y-118580000D01*
X334250000Y-139908000D02*
X334250000Y-145850000D01*
X332012000Y-137670000D02*
X334250000Y-139908000D01*
X43762000Y-137670000D02*
X46250000Y-140158000D01*
X46250000Y-140158000D02*
X46250000Y-145850000D01*
X70092000Y-137670000D02*
X72500000Y-140078000D01*
X72500000Y-140078000D02*
X72500000Y-145850000D01*
X93842000Y-137670000D02*
X96250000Y-140078000D01*
X96250000Y-140078000D02*
X96250000Y-145850000D01*
X120000000Y-140000000D02*
X120000000Y-145750000D01*
X117750000Y-137750000D02*
X120000000Y-140000000D01*
X379750000Y-121158000D02*
X379750000Y-126750000D01*
X377262000Y-118670000D02*
X379750000Y-121158000D01*
X379500000Y-139973000D02*
X379500000Y-145750000D01*
X377117000Y-137590000D02*
X379500000Y-139973000D01*
X358262000Y-137670000D02*
X360500000Y-139908000D01*
X360500000Y-139908000D02*
X360500000Y-145850000D01*
D39*
X308117000Y-137590000D02*
X310500000Y-139973000D01*
X310500000Y-139973000D02*
X310500000Y-145750000D01*
D40*
X284262000Y-137670000D02*
X286750000Y-140158000D01*
X286750000Y-140158000D02*
X286750000Y-145750000D01*
X260592000Y-137670000D02*
X263250000Y-140328000D01*
X263250000Y-140328000D02*
X263250000Y-145750000D01*
X189012000Y-137670000D02*
X191500000Y-140158000D01*
X191500000Y-140158000D02*
X191500000Y-145750000D01*
D38*
X76000000Y-40000000D02*
X74950000Y-40000000D01*
X72775000Y-47225000D02*
X72775000Y-53575000D01*
D39*
X86350000Y-48200000D02*
X87050000Y-48900000D01*
D38*
X72775000Y-53575000D02*
X72775000Y-54775000D01*
X88550000Y-49650000D02*
X87800000Y-48900000D01*
D39*
X76650000Y-42700000D02*
X75890000Y-41940000D01*
D38*
X78450000Y-38150000D02*
X81300000Y-38150000D01*
D39*
X84900000Y-39925000D02*
X84900000Y-39500000D01*
D38*
X86200000Y-57700000D02*
X86200000Y-55600000D01*
X87700000Y-34150000D02*
X83700000Y-38150000D01*
X86200000Y-55600000D02*
X86200000Y-51800000D01*
X70537500Y-49462500D02*
X72775000Y-47225000D01*
D39*
X77312500Y-42700000D02*
X76650000Y-42700000D01*
X84225000Y-41287500D02*
X84225000Y-40600000D01*
D38*
X97500000Y-50890000D02*
X97850000Y-51240000D01*
X87650000Y-51800000D02*
X86200000Y-51800000D01*
X87650000Y-51800000D02*
X88550000Y-50900000D01*
X97850000Y-51240000D02*
X97850000Y-53400000D01*
X78150000Y-37850000D02*
X76000000Y-40000000D01*
X85240000Y-49900000D02*
X84400000Y-49900000D01*
X72775000Y-42175000D02*
X72775000Y-47225000D01*
X89600000Y-30900000D02*
X87700000Y-32800000D01*
X47775000Y-49462500D02*
X47050000Y-49462500D01*
X87700000Y-32800000D02*
X87700000Y-34150000D01*
X74295000Y-53575000D02*
X72775000Y-53575000D01*
X47050000Y-49462500D02*
X45750000Y-50762500D01*
X75575000Y-53590000D02*
X74310000Y-53590000D01*
D39*
X84225000Y-40600000D02*
X84900000Y-39925000D01*
D38*
X47775000Y-49462500D02*
X70537500Y-49462500D01*
X88550000Y-50900000D02*
X88550000Y-49650000D01*
X95650000Y-55600000D02*
X86200000Y-55600000D01*
X86200000Y-51044386D02*
X85240000Y-50084386D01*
X87800000Y-48900000D02*
X87400000Y-48900000D01*
X74550000Y-41000000D02*
X73950000Y-41000000D01*
X97850000Y-53400000D02*
X95650000Y-55600000D01*
X78150000Y-37850000D02*
X78450000Y-38150000D01*
X75490000Y-41940000D02*
X74550000Y-41000000D01*
X84900000Y-39500000D02*
X84900000Y-39315614D01*
X73950000Y-41000000D02*
X72775000Y-42175000D01*
D39*
X87050000Y-48900000D02*
X87400000Y-48900000D01*
D38*
X84900000Y-39315614D02*
X83734386Y-38150000D01*
D39*
X85637500Y-48200000D02*
X86350000Y-48200000D01*
D38*
X85240000Y-50084386D02*
X85240000Y-49900000D01*
X86200000Y-51800000D02*
X86200000Y-51044386D01*
X85350000Y-58550000D02*
X86200000Y-57700000D01*
X74950000Y-40000000D02*
X73950000Y-41000000D01*
X76550000Y-58550000D02*
X85350000Y-58550000D01*
X83734386Y-38150000D02*
X83700000Y-38150000D01*
X72775000Y-54775000D02*
X76550000Y-58550000D01*
D39*
X75890000Y-41940000D02*
X75500000Y-41940000D01*
X82225000Y-53085000D02*
X82225000Y-49612500D01*
X82410000Y-56360000D02*
X82410000Y-53330000D01*
X82440000Y-53300000D02*
X82225000Y-53085000D01*
X83150000Y-57100000D02*
X82410000Y-56360000D01*
X80800000Y-54560000D02*
X80800000Y-53300000D01*
X81430000Y-50746041D02*
X81725000Y-50451041D01*
X81430000Y-52670000D02*
X81430000Y-50746041D01*
X80800000Y-53300000D02*
X81430000Y-52670000D01*
X81725000Y-50451041D02*
X81725000Y-49612500D01*
X80260000Y-55100000D02*
X80800000Y-54560000D01*
D38*
X90570000Y-40090000D02*
X89600000Y-41060000D01*
D40*
X81225000Y-48809315D02*
X81225000Y-49612500D01*
X81600000Y-48434315D02*
X81225000Y-48809315D01*
D38*
X91550000Y-40090000D02*
X90570000Y-40090000D01*
D40*
X81600000Y-45812678D02*
X81600000Y-48434315D01*
X82829397Y-44583281D02*
X81600000Y-45812678D01*
X84301791Y-44583281D02*
X82829397Y-44583281D01*
X87900000Y-42400000D02*
X89240000Y-41060000D01*
D39*
X83225000Y-41287500D02*
X83225000Y-42126041D01*
X83150000Y-42201041D02*
X83150000Y-43550000D01*
X86050000Y-41700000D02*
X86050000Y-36990000D01*
X83225000Y-42126041D02*
X83150000Y-42201041D01*
X86050000Y-36990000D02*
X89600000Y-33440000D01*
D40*
X49000000Y-41600000D02*
X49000000Y-42750000D01*
X73808077Y-45200000D02*
X73739538Y-45131461D01*
D39*
X69650000Y-45150000D02*
X69100000Y-44600000D01*
X69100000Y-44600000D02*
X61850000Y-44600000D01*
D40*
X77312500Y-45200000D02*
X73808077Y-45200000D01*
D39*
X71700000Y-45150000D02*
X69650000Y-45150000D01*
X69700000Y-46150000D02*
X69100000Y-46750000D01*
D40*
X77312500Y-45700000D02*
X74188609Y-45700000D01*
X74188609Y-45700000D02*
X73734087Y-46154522D01*
D39*
X71650000Y-46150000D02*
X69700000Y-46150000D01*
X69100000Y-46750000D02*
X61950000Y-46750000D01*
D40*
X71900000Y-41400000D02*
X72200000Y-41100000D01*
X54645000Y-64060000D02*
X54645000Y-65605000D01*
X68550000Y-41400000D02*
X71900000Y-41400000D01*
X59445000Y-84505000D02*
X57950000Y-86000000D01*
X66445000Y-121210000D02*
X66445000Y-122755000D01*
X78725000Y-40425000D02*
X78725000Y-41287500D01*
X75700000Y-40850000D02*
X76400000Y-40850000D01*
X67800000Y-40650000D02*
X68550000Y-41400000D01*
X61745000Y-103505000D02*
X60250000Y-105000000D01*
X54620000Y-37280000D02*
X54620000Y-35385000D01*
X57195000Y-141755000D02*
X55700000Y-143250000D01*
X61745000Y-101960000D02*
X61745000Y-103505000D01*
X59445000Y-82960000D02*
X59445000Y-84505000D01*
X54645000Y-65605000D02*
X53150000Y-67100000D01*
X66445000Y-122755000D02*
X64950000Y-124250000D01*
X55450000Y-40650000D02*
X67800000Y-40650000D01*
X53355000Y-38545000D02*
X53355000Y-38555000D01*
X78250000Y-39950000D02*
X78725000Y-40425000D01*
X77300000Y-39950000D02*
X78250000Y-39950000D01*
X76400000Y-40850000D02*
X77300000Y-39950000D01*
X53355000Y-38545000D02*
X54620000Y-37280000D01*
X53355000Y-38555000D02*
X55450000Y-40650000D01*
X57195000Y-140210000D02*
X57195000Y-141755000D01*
X107197500Y-102207500D02*
X107197500Y-103752500D01*
X79225000Y-50775500D02*
X78850000Y-51150500D01*
X92725000Y-38275000D02*
X99725000Y-45275000D01*
X102347500Y-82957500D02*
X102347500Y-84502500D01*
X92747500Y-64057500D02*
X92747500Y-65602500D01*
X99725000Y-45275000D02*
X99725000Y-57000000D01*
X79225000Y-49612500D02*
X79225000Y-50775500D01*
X92747500Y-65602500D02*
X91252500Y-67097500D01*
X107197500Y-103752500D02*
X105702500Y-105247500D01*
X104845000Y-141805000D02*
X103350000Y-143300000D01*
X116497500Y-121307500D02*
X116497500Y-122852500D01*
X92725000Y-35390000D02*
X92725000Y-38275000D01*
X102347500Y-84502500D02*
X100852500Y-85997500D01*
X116497500Y-122852500D02*
X115002500Y-124347500D01*
X104845000Y-140260000D02*
X104845000Y-141805000D01*
X99725000Y-57000000D02*
X92725000Y-64000000D01*
X111745000Y-37205000D02*
X111745000Y-35410000D01*
X121447500Y-84652500D02*
X119952500Y-86147500D01*
X110405000Y-38545000D02*
X111745000Y-37205000D01*
X111997500Y-64007500D02*
X111997500Y-65552500D01*
X79730120Y-48300000D02*
X79725000Y-48305120D01*
X121447500Y-83107500D02*
X121447500Y-84652500D01*
X79725000Y-48305120D02*
X79725000Y-49612500D01*
X111997500Y-65552500D02*
X110502500Y-67047500D01*
X135797500Y-121257500D02*
X135797500Y-122802500D01*
X126197500Y-102257500D02*
X126197500Y-103802500D01*
X126197500Y-103802500D02*
X124702500Y-105297500D01*
X135797500Y-122802500D02*
X134302500Y-124297500D01*
X129400000Y-38600000D02*
X130825000Y-37175000D01*
X130895000Y-64060000D02*
X130895000Y-65605000D01*
X103551502Y-55948498D02*
X105531000Y-53969000D01*
X145195000Y-103755000D02*
X143700000Y-105250000D01*
X154845000Y-122855000D02*
X153350000Y-124350000D01*
X130825000Y-37175000D02*
X130825000Y-35425000D01*
X83450000Y-51800000D02*
X83450000Y-52350000D01*
X154845000Y-121310000D02*
X154845000Y-122855000D01*
X127350000Y-53969000D02*
X105531000Y-53969000D01*
X82725000Y-51075000D02*
X83450000Y-51800000D01*
X140495000Y-83010000D02*
X140495000Y-84555000D01*
X82725000Y-49612500D02*
X82725000Y-51075000D01*
X140495000Y-84555000D02*
X139000000Y-86050000D01*
X130895000Y-65605000D02*
X129400000Y-67100000D01*
X145195000Y-102210000D02*
X145195000Y-103755000D01*
X101056323Y-55948498D02*
X103551502Y-55948498D01*
X83225000Y-50717295D02*
X84217839Y-51710134D01*
X147200000Y-53244500D02*
X105155500Y-53244500D01*
X164395000Y-103605000D02*
X162900000Y-105100000D01*
X148550000Y-38600000D02*
X149870000Y-37280000D01*
X149870000Y-37280000D02*
X149870000Y-35400000D01*
X159445000Y-84555000D02*
X157950000Y-86050000D01*
X149895000Y-64110000D02*
X149895000Y-65655000D01*
X103450497Y-54949503D02*
X105155500Y-53244500D01*
X164395000Y-102060000D02*
X164395000Y-103605000D01*
X149895000Y-65655000D02*
X148400000Y-67150000D01*
X159445000Y-83010000D02*
X159445000Y-84555000D01*
X101024500Y-54949503D02*
X103450497Y-54949503D01*
X173745000Y-121360000D02*
X173745000Y-122905000D01*
X173745000Y-122905000D02*
X172250000Y-124400000D01*
X83225000Y-49612500D02*
X83225000Y-50717295D01*
X188145000Y-64060000D02*
X188145000Y-65605000D01*
X202345000Y-102160000D02*
X202345000Y-103705000D01*
X196050000Y-38550000D02*
X197495000Y-37105000D01*
X85637500Y-47200000D02*
X87900000Y-47200000D01*
X188145000Y-65605000D02*
X186650000Y-67100000D01*
X211895000Y-122855000D02*
X210400000Y-124350000D01*
X88500000Y-47800000D02*
X88500000Y-48050000D01*
X87900000Y-47200000D02*
X88500000Y-47800000D01*
X202345000Y-103705000D02*
X200850000Y-105200000D01*
X211895000Y-121310000D02*
X211895000Y-122855000D01*
X197595000Y-84605000D02*
X196100000Y-86100000D01*
X101024500Y-52950497D02*
X103449503Y-52950497D01*
X185100000Y-51795500D02*
X104604500Y-51795500D01*
X197595000Y-83060000D02*
X197595000Y-84605000D01*
X103449503Y-52950497D02*
X104604500Y-51795500D01*
X197495000Y-37105000D02*
X197495000Y-35400000D01*
X216695000Y-83210000D02*
X216695000Y-84755000D01*
X207195000Y-63960000D02*
X207195000Y-65505000D01*
X101024500Y-51950994D02*
X103549006Y-51950994D01*
X103549006Y-51950994D02*
X104429000Y-51071000D01*
X230845000Y-121260000D02*
X230845000Y-122805000D01*
X230845000Y-122805000D02*
X229350000Y-124300000D01*
X216695000Y-84755000D02*
X215200000Y-86250000D01*
X207195000Y-65505000D02*
X205700000Y-67000000D01*
X216550000Y-37350000D02*
X216550000Y-35400000D01*
X221395000Y-102310000D02*
X221395000Y-103855000D01*
X85637500Y-46700000D02*
X89450000Y-46700000D01*
X215300000Y-38600000D02*
X216550000Y-37350000D01*
X204450000Y-51071000D02*
X104429000Y-51071000D01*
X89450000Y-46700000D02*
X89800000Y-47050000D01*
X221395000Y-103855000D02*
X219900000Y-105350000D01*
X247695000Y-140360000D02*
X247695000Y-141905000D01*
X234150000Y-38700000D02*
X235595000Y-37255000D01*
X235595000Y-37255000D02*
X235595000Y-35400000D01*
X101024500Y-50951491D02*
X103498509Y-50951491D01*
X249945000Y-121310000D02*
X249945000Y-122855000D01*
X240395000Y-103905000D02*
X238900000Y-105400000D01*
X226245000Y-64010000D02*
X226245000Y-65555000D01*
X103498509Y-50951491D02*
X104103500Y-50346500D01*
X235695000Y-84805000D02*
X234200000Y-86300000D01*
X94075500Y-45700000D02*
X85637500Y-45700000D01*
X226245000Y-65555000D02*
X224750000Y-67050000D01*
X94725500Y-46350000D02*
X94075500Y-45700000D01*
X240395000Y-102360000D02*
X240395000Y-103905000D01*
X235695000Y-83260000D02*
X235695000Y-84805000D01*
X223400000Y-50346500D02*
X104103500Y-50346500D01*
X249945000Y-122855000D02*
X248450000Y-124350000D01*
X247695000Y-141905000D02*
X246200000Y-143400000D01*
X268995000Y-122855000D02*
X267500000Y-124350000D01*
X271395000Y-140310000D02*
X271395000Y-141855000D01*
X245245000Y-64010000D02*
X245245000Y-65555000D01*
X262900000Y-38700000D02*
X264170000Y-37430000D01*
X254845000Y-84555000D02*
X253350000Y-86050000D01*
X245245000Y-65555000D02*
X243750000Y-67050000D01*
X94600098Y-45200000D02*
X94725500Y-45325402D01*
X250550000Y-49622000D02*
X103778000Y-49622000D01*
X268995000Y-121310000D02*
X268995000Y-122855000D01*
X103448012Y-49951988D02*
X103778000Y-49622000D01*
X264170000Y-37430000D02*
X264170000Y-35410000D01*
X85637500Y-45200000D02*
X94600098Y-45200000D01*
X259595000Y-102160000D02*
X259595000Y-103705000D01*
X271395000Y-141855000D02*
X269900000Y-143350000D01*
X254845000Y-83010000D02*
X254845000Y-84555000D01*
X259595000Y-103705000D02*
X258100000Y-105200000D01*
X101024500Y-49951988D02*
X103448012Y-49951988D01*
X292945000Y-84655000D02*
X291450000Y-86150000D01*
X319085000Y-137785000D02*
X318300000Y-137000000D01*
X309645000Y-102160000D02*
X309645000Y-103705000D01*
X309645000Y-103705000D02*
X308150000Y-105200000D01*
X302250000Y-37250000D02*
X302250000Y-35400000D01*
X319085000Y-140210000D02*
X319085000Y-137785000D01*
X85637500Y-44200000D02*
X92907151Y-44200000D01*
X292945000Y-83110000D02*
X292945000Y-84655000D01*
X283195000Y-65555000D02*
X281700000Y-67050000D01*
X300850000Y-38650000D02*
X302250000Y-37250000D01*
X289950000Y-48173000D02*
X101244518Y-48173000D01*
X101244518Y-48173000D02*
X101024500Y-47952982D01*
X283195000Y-64010000D02*
X283195000Y-65555000D01*
X92907151Y-44200000D02*
X93131651Y-43975500D01*
X321325000Y-37275000D02*
X321325000Y-35400000D01*
X309850000Y-47448500D02*
X101998500Y-47448500D01*
X316645000Y-83210000D02*
X316645000Y-84755000D01*
X91987578Y-43700000D02*
X92212078Y-43475500D01*
X101998500Y-47448500D02*
X101503479Y-46953479D01*
X316645000Y-84755000D02*
X315150000Y-86250000D01*
X320000000Y-38600000D02*
X321325000Y-37275000D01*
X85637500Y-43700000D02*
X91987578Y-43700000D01*
X311945000Y-65505000D02*
X310450000Y-67000000D01*
X101503479Y-46953479D02*
X101024500Y-46953479D01*
X311945000Y-63960000D02*
X311945000Y-65505000D01*
X345395000Y-83360000D02*
X345395000Y-84905000D01*
X102324000Y-46724000D02*
X101553976Y-45953976D01*
X345395000Y-141905000D02*
X343900000Y-143400000D01*
X101553976Y-45953976D02*
X101024500Y-45953976D01*
X345395000Y-84905000D02*
X343900000Y-86400000D01*
X343850000Y-38500000D02*
X345125000Y-37225000D01*
X342500000Y-46724000D02*
X102324000Y-46724000D01*
X345395000Y-64060000D02*
X345395000Y-65605000D01*
X345395000Y-65605000D02*
X343900000Y-67100000D01*
X345125000Y-37225000D02*
X345125000Y-35400000D01*
X345395000Y-140360000D02*
X345395000Y-141905000D01*
X91114890Y-43200000D02*
X91339390Y-42975500D01*
X85637500Y-43200000D02*
X91114890Y-43200000D01*
X364195000Y-140210000D02*
X364195000Y-141755000D01*
X81725000Y-40075000D02*
X81500000Y-39850000D01*
X364345000Y-121360000D02*
X364345000Y-122905000D01*
X364175000Y-37225000D02*
X364175000Y-35400000D01*
X364195000Y-141755000D02*
X362700000Y-143250000D01*
X81725000Y-41287500D02*
X81725000Y-40075000D01*
X364345000Y-63910000D02*
X364345000Y-65455000D01*
X364195000Y-84755000D02*
X362700000Y-86250000D01*
X364345000Y-65455000D02*
X362850000Y-66950000D01*
X101705232Y-44955232D02*
X101063443Y-44955232D01*
X361600000Y-45999500D02*
X102749500Y-45999500D01*
X364345000Y-122905000D02*
X362850000Y-124400000D01*
X362852500Y-38547500D02*
X364175000Y-37225000D01*
X364195000Y-83210000D02*
X364195000Y-84755000D01*
X102749500Y-45999500D02*
X101705232Y-44955232D01*
X103175000Y-45275000D02*
X101856461Y-43956461D01*
X86850000Y-39050000D02*
X86850000Y-37068299D01*
X383445000Y-65805000D02*
X381950000Y-67300000D01*
X101856461Y-43956461D02*
X101101666Y-43956461D01*
X383345000Y-140360000D02*
X383345000Y-141905000D01*
X383345000Y-141905000D02*
X381850000Y-143400000D01*
X381950000Y-38500000D02*
X383225000Y-37225000D01*
X86850000Y-37068299D02*
X89168299Y-34750000D01*
X80725000Y-39075000D02*
X80750000Y-39050000D01*
X383395000Y-84705000D02*
X381900000Y-86200000D01*
X381000000Y-45275000D02*
X103175000Y-45275000D01*
X383225000Y-37225000D02*
X383225000Y-35400000D01*
X80725000Y-41287500D02*
X80725000Y-39075000D01*
X383395000Y-83160000D02*
X383395000Y-84705000D01*
X89168299Y-34750000D02*
X90425500Y-34750000D01*
X383445000Y-64260000D02*
X383445000Y-65805000D01*
X30850000Y-141800000D02*
X29355000Y-143295000D01*
X77312500Y-44700000D02*
X74883528Y-44700000D01*
X30850000Y-84500000D02*
X29355000Y-85995000D01*
X68150000Y-42200000D02*
X67450000Y-41500000D01*
X30850000Y-122600000D02*
X29355000Y-124095000D01*
X49525000Y-40375000D02*
X44900000Y-40375000D01*
X30995000Y-65505000D02*
X29500000Y-67000000D01*
X30850000Y-121055000D02*
X30850000Y-122600000D01*
X71744115Y-43012729D02*
X70931386Y-42200000D01*
X50650000Y-41500000D02*
X49525000Y-40375000D01*
X74883528Y-44700000D02*
X74659028Y-44475500D01*
X30950000Y-103600000D02*
X29455000Y-105095000D01*
X30850000Y-140255000D02*
X30850000Y-141800000D01*
X30995000Y-63960000D02*
X30995000Y-65505000D01*
X30850000Y-82955000D02*
X30850000Y-84500000D01*
X70931386Y-42200000D02*
X68150000Y-42200000D01*
X67450000Y-41500000D02*
X50650000Y-41500000D01*
X30950000Y-102055000D02*
X30950000Y-103600000D01*
X77800000Y-51150500D02*
X78725000Y-50225500D01*
X97625000Y-121290000D02*
X97625000Y-122425000D01*
X75550000Y-61900000D02*
X75550000Y-62365000D01*
X83445000Y-84655000D02*
X81950000Y-86150000D01*
X73875000Y-66600500D02*
X76424500Y-69150000D01*
X75550000Y-62365000D02*
X73875000Y-64040000D01*
X87945000Y-103755000D02*
X86450000Y-105250000D01*
X97625000Y-116425000D02*
X86450000Y-105250000D01*
X73875000Y-64040000D02*
X73875000Y-66600500D01*
X97625000Y-122425000D02*
X94500000Y-125550000D01*
X87945000Y-102210000D02*
X87945000Y-103755000D01*
X80915000Y-140210000D02*
X80915000Y-137385000D01*
X97625000Y-121290000D02*
X97625000Y-116425000D01*
X83445000Y-83110000D02*
X83445000Y-84655000D01*
X80915000Y-137385000D02*
X81650000Y-136650000D01*
X169045000Y-64060000D02*
X169045000Y-65605000D01*
X101024500Y-53950000D02*
X103425000Y-53950000D01*
X103425000Y-53950000D02*
X104855000Y-52520000D01*
X165800000Y-52520000D02*
X104855000Y-52520000D01*
X178645000Y-83110000D02*
X178645000Y-84655000D01*
X192745000Y-122805000D02*
X191250000Y-124300000D01*
X177150000Y-38650000D02*
X178445000Y-37355000D01*
X176195000Y-140260000D02*
X176195000Y-141805000D01*
X84297565Y-50988250D02*
X84909134Y-50988250D01*
X83725000Y-50415685D02*
X84297565Y-50988250D01*
X178445000Y-37355000D02*
X178445000Y-35385000D01*
X183345000Y-103805000D02*
X181850000Y-105300000D01*
X192745000Y-121260000D02*
X192745000Y-122805000D01*
X178645000Y-84655000D02*
X177150000Y-86150000D01*
X176195000Y-141805000D02*
X174700000Y-143300000D01*
X83725000Y-49612500D02*
X83725000Y-50415685D01*
X183345000Y-102260000D02*
X183345000Y-103805000D01*
X169045000Y-65605000D02*
X167550000Y-67100000D01*
D39*
X80400000Y-35137500D02*
X81200000Y-34337500D01*
X81200000Y-34337500D02*
X81200000Y-33900000D01*
X84330000Y-31370000D02*
X83750000Y-31950000D01*
X83750000Y-31950000D02*
X83750000Y-32550000D01*
X88800000Y-29300000D02*
X86730000Y-31370000D01*
X86730000Y-31370000D02*
X84330000Y-31370000D01*
X88800000Y-29300000D02*
X91737500Y-29300000D01*
D41*
X82700001Y-35613749D02*
X83000000Y-35313750D01*
X82900000Y-32980761D02*
X82900000Y-32550000D01*
X82700001Y-41262501D02*
X82700001Y-35613749D01*
X82050000Y-33830761D02*
X82900000Y-32980761D01*
X82900000Y-34363750D02*
X82900000Y-33900000D01*
X81950000Y-35313750D02*
X82900000Y-34363750D01*
X82249999Y-41262501D02*
X82249999Y-35613749D01*
X82249999Y-35613749D02*
X81950000Y-35313750D01*
D40*
X278645000Y-103655000D02*
X277150000Y-105150000D01*
X295195000Y-141755000D02*
X293700000Y-143250000D01*
X101172015Y-49100000D02*
X103200000Y-49100000D01*
X270100000Y-48897500D02*
X103402500Y-48897500D01*
X281900000Y-38600000D02*
X283200000Y-37300000D01*
X264395000Y-64010000D02*
X264395000Y-65555000D01*
X273695000Y-83110000D02*
X273695000Y-84655000D01*
X293120000Y-121120000D02*
X304835000Y-121120000D01*
X278645000Y-102110000D02*
X278645000Y-103655000D01*
X85637500Y-44700000D02*
X93830314Y-44700000D01*
X103200000Y-49100000D02*
X103402500Y-48897500D01*
X264395000Y-65555000D02*
X262900000Y-67050000D01*
X283200000Y-37300000D02*
X283200000Y-35400000D01*
X93830314Y-44700000D02*
X94054814Y-44475500D01*
X295195000Y-140210000D02*
X295195000Y-141755000D01*
X273695000Y-84655000D02*
X272200000Y-86150000D01*
X101024500Y-48952485D02*
X101172015Y-49100000D01*
X397050000Y-69000000D02*
X397050000Y-62273000D01*
X396450000Y-69600000D02*
X397050000Y-69000000D01*
X191500000Y-149050000D02*
X189950000Y-147500000D01*
X75525000Y-49300000D02*
X76625000Y-48200000D01*
X360500000Y-149150000D02*
X334250000Y-149150000D01*
X286750000Y-149050000D02*
X263250000Y-149050000D01*
X189950000Y-147500000D02*
X121550000Y-147500000D01*
X119400000Y-148450000D02*
X99050000Y-148450000D01*
X75525000Y-49900000D02*
X75525000Y-49300000D01*
X379400000Y-149150000D02*
X360500000Y-149150000D01*
X120000000Y-149050000D02*
X119400000Y-148450000D01*
X193050000Y-147500000D02*
X191500000Y-149050000D01*
X396400000Y-149100000D02*
X379550000Y-149100000D01*
X261700000Y-147500000D02*
X193050000Y-147500000D01*
X72500000Y-149150000D02*
X46250000Y-149150000D01*
X98350000Y-149150000D02*
X96250000Y-149150000D01*
X310500000Y-149050000D02*
X286750000Y-149050000D01*
X96250000Y-149150000D02*
X72500000Y-149150000D01*
X263250000Y-149050000D02*
X261700000Y-147500000D01*
X99050000Y-148450000D02*
X98350000Y-149150000D01*
X76625000Y-48200000D02*
X77312500Y-48200000D01*
X121550000Y-147500000D02*
X120000000Y-149050000D01*
X334250000Y-149150000D02*
X310600000Y-149150000D01*
D39*
X86440000Y-42700000D02*
X86750000Y-42390000D01*
X87600000Y-37980000D02*
X89600000Y-35980000D01*
X86750000Y-42390000D02*
X86760000Y-42390000D01*
X86760000Y-42390000D02*
X87600000Y-41550000D01*
X87600000Y-41550000D02*
X87600000Y-37980000D01*
X85637500Y-42700000D02*
X86440000Y-42700000D01*
D40*
X93925000Y-50315000D02*
X93925000Y-47975000D01*
X93925000Y-47975000D02*
X92150000Y-46200000D01*
X92150000Y-46200000D02*
X85637500Y-46200000D01*
X94500000Y-50890000D02*
X93925000Y-50315000D01*
X75408833Y-44200000D02*
X74959333Y-43750500D01*
X127250000Y-44000000D02*
X146000000Y-44000000D01*
X108250000Y-44050000D02*
X127200000Y-44050000D01*
X165250000Y-44150000D02*
X193750000Y-44150000D01*
X85900000Y-59500000D02*
X86650000Y-58750000D01*
X298750000Y-44150000D02*
X317500000Y-44150000D01*
X379750000Y-44150000D02*
X396300000Y-44150000D01*
X70450000Y-54050000D02*
X75900000Y-59500000D01*
X106550000Y-44050000D02*
X108250000Y-44050000D01*
X251000000Y-44250000D02*
X279600000Y-44250000D01*
X77312500Y-44200000D02*
X75408833Y-44200000D01*
X86650000Y-58750000D02*
X95274500Y-58750000D01*
X146250000Y-44250000D02*
X165150000Y-44250000D01*
X52125000Y-42925000D02*
X69275000Y-42925000D01*
X71699498Y-44011235D02*
X70361235Y-44011235D01*
X194000000Y-44400000D02*
X212900000Y-44400000D01*
X95274500Y-58750000D02*
X95300000Y-58775500D01*
X70361235Y-44011235D02*
X70000000Y-43650000D01*
X73999000Y-43750500D02*
X73750000Y-43999500D01*
X69275000Y-42925000D02*
X69925000Y-43575000D01*
X213000000Y-44500000D02*
X231900000Y-44500000D01*
X360500000Y-44150000D02*
X379750000Y-44150000D01*
X336750000Y-44150000D02*
X360500000Y-44150000D01*
X75900000Y-59500000D02*
X85900000Y-59500000D01*
X70450000Y-50625000D02*
X70450000Y-54050000D01*
X279750000Y-44400000D02*
X298500000Y-44400000D01*
X74959333Y-43750500D02*
X73999000Y-43750500D01*
X232000000Y-44400000D02*
X250850000Y-44400000D01*
X317750000Y-44400000D02*
X336500000Y-44400000D01*
X49000000Y-46050000D02*
X52125000Y-42925000D01*
D38*
X93000000Y-49050000D02*
X93000000Y-50890000D01*
D39*
X79840000Y-52000000D02*
X79840000Y-50885000D01*
D38*
X75700000Y-52005000D02*
X74300000Y-52005000D01*
D39*
X80225000Y-50500000D02*
X80225000Y-49612500D01*
D38*
X75700000Y-52005000D02*
X79835000Y-52005000D01*
D39*
X79840000Y-50885000D02*
X80225000Y-50500000D01*
G04 #@! TA.AperFunction,Conductor*
G36*
X77922188Y-30655209D02*
G01*
X77936520Y-30659499D01*
X78018790Y-30684130D01*
X78184797Y-30693798D01*
X78193934Y-30694331D01*
X78193934Y-30694330D01*
X78193935Y-30694331D01*
X78366711Y-30663865D01*
X78375345Y-30660140D01*
X78424457Y-30650000D01*
X80579220Y-30650000D01*
X80646259Y-30669685D01*
X80692014Y-30722489D01*
X80703177Y-30770738D01*
X80736434Y-32034509D01*
X80718520Y-32102043D01*
X80714527Y-32108211D01*
X80619780Y-32245476D01*
X80619780Y-32245477D01*
X80563763Y-32393182D01*
X80557963Y-32440947D01*
X80530343Y-32505124D01*
X80472409Y-32544181D01*
X80434868Y-32550000D01*
X80265132Y-32550000D01*
X80198093Y-32530315D01*
X80152338Y-32477511D01*
X80142036Y-32440949D01*
X80136237Y-32393182D01*
X80080220Y-32245477D01*
X80080219Y-32245474D01*
X80021950Y-32161056D01*
X80000067Y-32094702D01*
X80000000Y-32090617D01*
X80000000Y-31400000D01*
X78312351Y-31429097D01*
X78294560Y-31426646D01*
X78106064Y-31415668D01*
X78008928Y-31432796D01*
X77989534Y-31434662D01*
X77099999Y-31449999D01*
X74900000Y-33200000D01*
X74900000Y-37276000D01*
X74880315Y-37343039D01*
X74827511Y-37388794D01*
X74776000Y-37400000D01*
X73124000Y-37400000D01*
X73056961Y-37380315D01*
X73011206Y-37327511D01*
X73000000Y-37276000D01*
X73000000Y-32960745D01*
X73019685Y-32893706D01*
X73047995Y-32862770D01*
X75675000Y-30825000D01*
X75866418Y-30676120D01*
X75931421Y-30650500D01*
X75942546Y-30650000D01*
X77886625Y-30650000D01*
X77922188Y-30655209D01*
G37*
G04 #@! TD.AperFunction*
G04 #@! TA.AperFunction,Conductor*
G36*
X79342539Y-37019685D02*
G01*
X79388294Y-37072489D01*
X79399500Y-37124000D01*
X79399500Y-37268102D01*
X79410123Y-37356564D01*
X79441354Y-37435761D01*
X79450000Y-37481249D01*
X79450000Y-38976000D01*
X79430315Y-39043039D01*
X79377511Y-39088794D01*
X79326000Y-39100000D01*
X75324000Y-39100000D01*
X75256961Y-39080315D01*
X75211206Y-39027511D01*
X75200000Y-38976000D01*
X75200000Y-37524000D01*
X75219685Y-37456961D01*
X75272489Y-37411206D01*
X75324000Y-37400000D01*
X75350558Y-37400000D01*
X75384612Y-37408393D01*
X75385156Y-37406187D01*
X75469009Y-37426854D01*
X75564944Y-37450500D01*
X75564945Y-37450500D01*
X75735055Y-37450500D01*
X75735056Y-37450500D01*
X75830990Y-37426854D01*
X75914844Y-37406187D01*
X75915387Y-37408393D01*
X75949442Y-37400000D01*
X76300558Y-37400000D01*
X76334612Y-37408393D01*
X76335156Y-37406187D01*
X76419009Y-37426854D01*
X76514944Y-37450500D01*
X76514945Y-37450500D01*
X76685055Y-37450500D01*
X76685056Y-37450500D01*
X76780990Y-37426854D01*
X76864844Y-37406187D01*
X76865387Y-37408393D01*
X76899442Y-37400000D01*
X77000000Y-37400000D01*
X77000000Y-37387296D01*
X77019685Y-37320257D01*
X77041768Y-37294485D01*
X77128183Y-37217929D01*
X77224818Y-37077930D01*
X77224817Y-37077930D01*
X77233371Y-37065539D01*
X77234436Y-37066274D01*
X77266200Y-37024326D01*
X77331797Y-37000269D01*
X77339964Y-37000000D01*
X79275500Y-37000000D01*
X79342539Y-37019685D01*
G37*
G04 #@! TD.AperFunction*
G04 #@! TA.AperFunction,Conductor*
G36*
X77493039Y-33244685D02*
G01*
X77538794Y-33297489D01*
X77550000Y-33348999D01*
X77550000Y-34500000D01*
X79323929Y-34500000D01*
X79390968Y-34519685D01*
X79436723Y-34572489D01*
X79446667Y-34641647D01*
X79439283Y-34669490D01*
X79410123Y-34743432D01*
X79410123Y-34743436D01*
X79399500Y-34831898D01*
X79399500Y-35443102D01*
X79410123Y-35531564D01*
X79441354Y-35610761D01*
X79450000Y-35656249D01*
X79450000Y-36576485D01*
X79430315Y-36643524D01*
X79377511Y-36689279D01*
X79308355Y-36699223D01*
X79275502Y-36694500D01*
X79275500Y-36694500D01*
X77339964Y-36694500D01*
X77329907Y-36694666D01*
X77329896Y-36694666D01*
X77329736Y-36694669D01*
X77321747Y-36694933D01*
X77226611Y-36713447D01*
X77163937Y-36736432D01*
X77163914Y-36736441D01*
X77161012Y-36737506D01*
X77158218Y-36738863D01*
X77155324Y-36740094D01*
X77160553Y-36737725D01*
X77106767Y-36750000D01*
X76700000Y-36750000D01*
X76700000Y-37021000D01*
X76680315Y-37088039D01*
X76627511Y-37133794D01*
X76576000Y-37145000D01*
X76567094Y-37145000D01*
X76537420Y-37141397D01*
X76409651Y-37109905D01*
X76409626Y-37109899D01*
X76408265Y-37109564D01*
X76406858Y-37109285D01*
X76406852Y-37109284D01*
X76376173Y-37103208D01*
X76370163Y-37102950D01*
X76304284Y-37094952D01*
X76304277Y-37094951D01*
X76300558Y-37094500D01*
X75949442Y-37094500D01*
X75945734Y-37094950D01*
X75945720Y-37094951D01*
X75880062Y-37102923D01*
X75880048Y-37102925D01*
X75876338Y-37103376D01*
X75872701Y-37104272D01*
X75872686Y-37104275D01*
X75865229Y-37106113D01*
X75842610Y-37109514D01*
X75841736Y-37109563D01*
X75712579Y-37141397D01*
X75682905Y-37145000D01*
X75617094Y-37145000D01*
X75587420Y-37141397D01*
X75459651Y-37109905D01*
X75459626Y-37109899D01*
X75458265Y-37109564D01*
X75456858Y-37109285D01*
X75456852Y-37109284D01*
X75426173Y-37103208D01*
X75420163Y-37102950D01*
X75354284Y-37094952D01*
X75354277Y-37094951D01*
X75350558Y-37094500D01*
X75329500Y-37094500D01*
X75262461Y-37074815D01*
X75216706Y-37022011D01*
X75205500Y-36970500D01*
X75205500Y-33407162D01*
X75225185Y-33340123D01*
X75252303Y-33310122D01*
X75325427Y-33251955D01*
X75390144Y-33225629D01*
X75402618Y-33225000D01*
X77426000Y-33225000D01*
X77493039Y-33244685D01*
G37*
G04 #@! TD.AperFunction*
M02*
