G04 #@! TF.GenerationSoftware,KiCad,Pcbnew,7.0.2*
G04 #@! TF.CreationDate,2023-06-28T22:35:23-06:00*
G04 #@! TF.ProjectId,TKL_Keyboard,544b4c5f-4b65-4796-926f-6172642e6b69,rev?*
G04 #@! TF.SameCoordinates,Original*
G04 #@! TF.FileFunction,Profile,NP*
%FSLAX46Y46*%
G04 Gerber Fmt 4.6, Leading zero omitted, Abs format (unit mm)*
G04 Created by KiCad (PCBNEW 7.0.2) date 2023-06-28 22:35:23*
%MOMM*%
%LPD*%
G01*
G04 APERTURE LIST*
G04 #@! TA.AperFunction,Profile*
%ADD10C,0.200000*%
G04 #@! TD*
G04 APERTURE END LIST*
D10*
X400450000Y-87125000D02*
X400174318Y-29916993D01*
X305275000Y-27800000D02*
X217300000Y-27800000D01*
X122925000Y-152850000D02*
X210900000Y-152850000D01*
X311675000Y-152850000D02*
G75*
G03*
X305275000Y-152850000I-3200000J-2400000D01*
G01*
X28025681Y-29916992D02*
G75*
G03*
X29866992Y-28075681I-2675681J4516992D01*
G01*
X398333007Y-28075682D02*
X311675000Y-27800000D01*
X311675000Y-152850000D02*
X398333007Y-152574318D01*
X29866992Y-152574319D02*
G75*
G03*
X28025681Y-150733008I-4516992J-2675681D01*
G01*
X210900000Y-27800000D02*
G75*
G03*
X217300000Y-27800000I3200000J2400000D01*
G01*
X400174319Y-150733008D02*
G75*
G03*
X398333008Y-152574319I2675681J-4516992D01*
G01*
X217300000Y-152850000D02*
G75*
G03*
X210900000Y-152850000I-3200000J-2400000D01*
G01*
X116525000Y-27800000D02*
X29866993Y-28075682D01*
X29866993Y-152574318D02*
X116525000Y-152850000D01*
X27750000Y-93525000D02*
G75*
G03*
X27750000Y-87125000I-2400000J3200000D01*
G01*
X116525000Y-27800000D02*
G75*
G03*
X122925000Y-27800000I3200000J2400000D01*
G01*
X305275000Y-27800000D02*
G75*
G03*
X311675000Y-27800000I3200000J2400000D01*
G01*
X28025682Y-29916993D02*
X27750000Y-87125000D01*
X217300000Y-152850000D02*
X305275000Y-152850000D01*
X400174318Y-150733007D02*
X400450000Y-93525000D01*
X27750000Y-93525000D02*
X28025682Y-150733007D01*
X400450000Y-87125000D02*
G75*
G03*
X400450000Y-93525000I2400000J-3200000D01*
G01*
X122925000Y-152850000D02*
G75*
G03*
X116525000Y-152850000I-3200000J-2400000D01*
G01*
X210900000Y-27800000D02*
X122925000Y-27800000D01*
X398333008Y-28075681D02*
G75*
G03*
X400174319Y-29916992I4516992J2675681D01*
G01*
M02*
