M48
; DRILL file {KiCad 7.0.2} date Wed Jun 28 22:35:29 2023
; FORMAT={-:-/ absolute / metric / decimal}
; #@! TF.CreationDate,2023-06-28T22:35:29-06:00
; #@! TF.GenerationSoftware,Kicad,Pcbnew,7.0.2
; #@! TF.FileFunction,NonPlated,1,2,NPTH
FMAT,2
METRIC
; #@! TA.AperFunction,NonPlated,NPTH,ComponentDrill
T1C0.900
; #@! TA.AperFunction,NonPlated,NPTH,ComponentDrill
T2C1.750
; #@! TA.AperFunction,NonPlated,NPTH,ComponentDrill
T3C1.850
; #@! TA.AperFunction,NonPlated,NPTH,ComponentDrill
T4C3.000
; #@! TA.AperFunction,NonPlated,NPTH,ComponentDrill
T5C3.048
; #@! TA.AperFunction,NonPlated,NPTH,ComponentDrill
T6C3.100
; #@! TA.AperFunction,NonPlated,NPTH,ComponentDrill
T7C3.988
; #@! TA.AperFunction,NonPlated,NPTH,ComponentDrill
T8C4.100
%
G90
G05
T1
X93.75Y-52.65
X96.75Y-52.65
T2
X313.803Y-66.53
X323.963Y-66.53
T3
X32.803Y-66.53
X32.803Y-104.63
X32.803Y-123.68
X32.803Y-142.73
X32.805Y-85.565
X42.963Y-66.53
X42.963Y-104.63
X42.963Y-123.68
X42.963Y-142.73
X42.965Y-85.565
X56.625Y-37.925
X56.628Y-66.53
X59.003Y-142.73
X61.38Y-85.565
X63.755Y-104.615
X66.785Y-37.925
X66.788Y-66.53
X68.528Y-123.655
X69.163Y-142.73
X71.54Y-85.565
X73.915Y-104.615
X75.678Y-66.53
X78.688Y-123.655
X82.803Y-142.73
X85.205Y-85.58
X85.838Y-66.53
X89.953Y-104.605
X92.963Y-142.73
X94.728Y-66.54
X94.73Y-37.93
X95.365Y-85.58
X99.478Y-123.68
X100.113Y-104.605
X104.255Y-85.565
X104.888Y-66.54
X104.89Y-37.93
X106.628Y-142.705
X109.028Y-104.605
X109.638Y-123.68
X113.75Y-37.95
X113.778Y-66.505
X114.415Y-85.565
X116.788Y-142.705
X118.528Y-123.68
X119.188Y-104.605
X123.305Y-85.565
X123.91Y-37.95
X123.938Y-66.505
X128.053Y-104.605
X128.688Y-123.68
X132.828Y-66.505
X132.83Y-37.965
X133.465Y-85.565
X137.578Y-123.68
X138.213Y-104.605
X142.353Y-85.555
X142.988Y-66.505
X142.99Y-37.965
X147.103Y-104.63
X147.738Y-123.68
X151.875Y-37.94
X151.88Y-66.53
X152.513Y-85.555
X156.653Y-123.655
X157.263Y-104.63
X161.403Y-85.555
X162.035Y-37.94
X162.04Y-66.53
X166.153Y-104.63
X166.813Y-123.655
X170.928Y-66.53
X171.563Y-85.555
X175.678Y-123.68
X176.313Y-104.63
X178.078Y-142.705
X180.45Y-37.925
X180.453Y-85.58
X181.088Y-66.53
X185.203Y-104.63
X185.838Y-123.68
X188.238Y-142.705
X189.978Y-66.53
X190.61Y-37.925
X190.613Y-85.58
X194.73Y-123.68
X195.363Y-104.63
X199.5Y-37.94
X199.503Y-85.58
X200.138Y-66.53
X204.253Y-104.605
X204.89Y-123.68
X209.028Y-66.505
X209.66Y-37.94
X209.663Y-85.58
X213.778Y-123.68
X214.413Y-104.605
X218.553Y-85.555
X218.555Y-37.94
X219.188Y-66.505
X223.303Y-104.605
X223.938Y-123.68
X228.078Y-66.505
X228.713Y-85.555
X228.715Y-37.94
X232.828Y-123.68
X233.463Y-104.605
X237.6Y-37.94
X237.603Y-85.58
X238.238Y-66.505
X242.353Y-104.63
X242.988Y-123.68
X247.128Y-66.505
X247.76Y-37.94
X247.763Y-85.58
X249.503Y-142.705
X251.878Y-123.68
X252.513Y-104.63
X256.653Y-85.555
X257.288Y-66.505
X259.663Y-142.705
X261.403Y-104.605
X262.038Y-123.68
X266.175Y-37.95
X266.178Y-66.505
X266.813Y-85.555
X270.928Y-123.655
X271.563Y-104.605
X273.328Y-142.705
X275.703Y-85.58
X276.335Y-37.95
X276.338Y-66.505
X280.453Y-104.63
X281.088Y-123.655
X283.488Y-142.705
X285.205Y-37.94
X285.228Y-66.505
X285.863Y-85.58
X290.613Y-104.63
X294.753Y-85.58
X295.365Y-37.94
X295.388Y-66.505
X297.128Y-142.73
X304.255Y-37.94
X304.913Y-85.58
X306.653Y-123.655
X307.288Y-142.73
X311.428Y-104.605
X314.415Y-37.94
X316.813Y-123.655
X318.553Y-85.58
X320.928Y-142.705
X321.588Y-104.605
X323.33Y-37.94
X328.713Y-85.58
X331.088Y-142.705
X333.49Y-37.94
X347.128Y-66.53
X347.128Y-85.555
X347.128Y-142.73
X347.13Y-37.94
X357.288Y-66.53
X357.288Y-85.555
X357.288Y-142.73
X357.29Y-37.94
X366.178Y-85.58
X366.178Y-123.68
X366.178Y-142.73
X366.18Y-37.94
X366.18Y-66.505
X376.338Y-85.58
X376.338Y-123.68
X376.338Y-142.73
X376.34Y-37.94
X376.34Y-66.505
X385.228Y-85.58
X385.228Y-142.705
X385.23Y-37.94
X385.23Y-66.515
X395.388Y-85.58
X395.388Y-142.705
X395.39Y-37.94
X395.39Y-66.515
T4
X315.073Y-63.99
X321.423Y-61.45
T5
X306.945Y-59.545
X330.821Y-59.545
T6
X34.073Y-63.99
X34.073Y-102.09
X34.073Y-121.14
X34.073Y-140.19
X34.075Y-83.025
X40.423Y-61.45
X40.423Y-99.55
X40.423Y-118.6
X40.423Y-137.65
X40.425Y-80.485
X57.895Y-35.385
X57.898Y-63.99
X60.273Y-140.19
X61.67Y-116.67
X62.65Y-83.025
X64.245Y-32.845
X64.248Y-61.45
X65.025Y-102.075
X66.623Y-137.65
X69.0Y-80.485
X69.798Y-121.115
X71.375Y-99.535
X76.148Y-118.575
X76.948Y-63.99
X83.298Y-61.45
X84.073Y-140.19
X85.546Y-116.67
X86.475Y-83.04
X90.423Y-137.65
X91.223Y-102.065
X92.825Y-80.5
X95.998Y-64.0
X96.0Y-35.39
X97.573Y-99.525
X100.748Y-121.14
X102.348Y-61.46
X102.35Y-32.85
X105.525Y-83.025
X107.098Y-118.6
X107.898Y-140.165
X110.298Y-102.065
X111.875Y-80.485
X114.248Y-137.625
X115.02Y-35.41
X115.048Y-63.965
X116.648Y-99.525
X119.798Y-121.14
X121.37Y-32.87
X121.398Y-61.425
X124.575Y-83.025
X126.148Y-118.6
X129.323Y-102.065
X130.925Y-80.485
X133.158Y-149.69
X134.098Y-63.965
X134.1Y-35.425
X135.673Y-99.525
X138.848Y-121.14
X140.448Y-61.425
X140.45Y-32.885
X143.623Y-83.015
X145.198Y-118.6
X148.373Y-102.09
X149.973Y-80.475
X153.145Y-35.4
X153.15Y-63.99
X154.723Y-99.55
X157.923Y-121.115
X159.495Y-32.86
X159.5Y-61.45
X162.673Y-83.015
X164.273Y-118.575
X167.423Y-102.09
X169.023Y-80.475
X172.198Y-63.99
X173.773Y-99.55
X176.948Y-121.14
X178.548Y-61.45
X179.348Y-140.165
X181.72Y-35.385
X181.723Y-83.04
X183.298Y-118.6
X185.698Y-137.625
X186.473Y-102.09
X188.07Y-32.845
X188.073Y-80.5
X191.248Y-63.99
X192.823Y-99.55
X196.0Y-121.14
X197.598Y-61.45
X200.77Y-35.4
X200.773Y-83.04
X202.35Y-118.6
X205.523Y-102.065
X207.12Y-32.86
X207.123Y-80.5
X210.298Y-63.965
X211.873Y-99.525
X215.048Y-121.14
X216.648Y-61.425
X219.823Y-83.015
X219.825Y-35.4
X221.398Y-118.6
X224.573Y-102.065
X226.173Y-80.475
X226.175Y-32.86
X229.348Y-63.965
X230.923Y-99.525
X233.158Y-149.69
X234.098Y-121.14
X235.698Y-61.425
X238.87Y-35.4
X238.873Y-83.04
X240.448Y-118.6
X243.623Y-102.09
X245.22Y-32.86
X245.223Y-80.5
X248.398Y-63.965
X249.973Y-99.55
X250.773Y-140.165
X253.148Y-121.14
X254.748Y-61.425
X257.123Y-137.625
X257.923Y-83.015
X259.498Y-118.6
X262.673Y-102.065
X264.273Y-80.475
X267.445Y-35.41
X267.448Y-63.965
X269.023Y-99.525
X272.198Y-121.115
X273.795Y-32.87
X273.798Y-61.425
X274.598Y-140.165
X276.973Y-83.04
X278.548Y-118.575
X280.948Y-137.625
X281.723Y-102.09
X283.323Y-80.5
X286.475Y-35.4
X286.498Y-63.965
X288.073Y-99.55
X292.825Y-32.86
X292.848Y-61.425
X296.023Y-83.04
X298.398Y-140.19
X299.795Y-116.67
X302.373Y-80.5
X304.57Y-97.62
X304.748Y-137.65
X305.525Y-35.4
X307.923Y-121.115
X311.875Y-32.86
X312.698Y-102.065
X314.273Y-118.575
X319.048Y-99.525
X319.823Y-83.04
X322.198Y-140.165
X323.671Y-116.67
X324.6Y-35.4
X326.173Y-80.5
X328.446Y-97.62
X328.548Y-137.625
X330.95Y-32.86
X348.398Y-63.99
X348.398Y-83.015
X348.398Y-140.19
X348.4Y-35.4
X354.748Y-61.45
X354.748Y-80.475
X354.748Y-137.65
X354.75Y-32.86
X367.448Y-83.04
X367.448Y-121.14
X367.448Y-140.19
X367.45Y-35.4
X367.45Y-63.965
X373.798Y-80.5
X373.798Y-118.6
X373.798Y-137.65
X373.8Y-32.86
X373.8Y-61.425
X386.498Y-83.04
X386.498Y-140.165
X386.5Y-35.4
X386.5Y-63.975
X392.848Y-80.5
X392.848Y-137.625
X392.85Y-32.86
X392.85Y-61.435
T7
X306.945Y-74.785
X318.883Y-66.53
X330.821Y-74.785
T8
X37.883Y-66.53
X37.883Y-104.63
X37.883Y-123.68
X37.883Y-142.73
X37.885Y-85.565
X61.67Y-131.91
X61.705Y-37.925
X61.708Y-66.53
X64.083Y-142.73
X66.46Y-85.565
X68.835Y-104.615
X73.608Y-123.655
X80.758Y-66.53
X85.546Y-131.91
X87.883Y-142.73
X90.285Y-85.58
X95.033Y-104.605
X99.808Y-66.54
X99.81Y-37.93
X104.558Y-123.68
X109.335Y-85.565
X111.708Y-142.705
X114.108Y-104.605
X118.83Y-37.95
X118.858Y-66.505
X123.608Y-123.68
X128.385Y-85.565
X133.133Y-104.605
X133.158Y-134.45
X137.908Y-66.505
X137.91Y-37.965
X142.658Y-123.68
X147.433Y-85.555
X152.183Y-104.63
X156.955Y-37.94
X156.96Y-66.53
X161.733Y-123.655
X166.483Y-85.555
X171.233Y-104.63
X176.008Y-66.53
X180.758Y-123.68
X183.158Y-142.705
X185.53Y-37.925
X185.533Y-85.58
X190.283Y-104.63
X195.058Y-66.53
X199.81Y-123.68
X204.58Y-37.94
X204.583Y-85.58
X209.333Y-104.605
X214.108Y-66.505
X218.858Y-123.68
X223.633Y-85.555
X223.635Y-37.94
X228.383Y-104.605
X233.158Y-134.45
X233.158Y-66.505
X237.908Y-123.68
X242.68Y-37.94
X242.683Y-85.58
X247.433Y-104.63
X252.208Y-66.505
X254.583Y-142.705
X256.958Y-123.68
X261.733Y-85.555
X266.483Y-104.605
X271.255Y-37.95
X271.258Y-66.505
X276.008Y-123.655
X278.408Y-142.705
X280.783Y-85.58
X285.533Y-104.63
X290.285Y-37.94
X290.308Y-66.505
X299.795Y-131.91
X299.833Y-85.58
X302.208Y-142.73
X304.57Y-112.86
X309.335Y-37.94
X311.733Y-123.655
X316.508Y-104.605
X323.633Y-85.58
X323.671Y-131.91
X326.008Y-142.705
X328.41Y-37.94
X328.446Y-112.86
X352.208Y-66.53
X352.208Y-85.555
X352.208Y-142.73
X352.21Y-37.94
X371.258Y-85.58
X371.258Y-123.68
X371.258Y-142.73
X371.26Y-37.94
X371.26Y-66.505
X390.308Y-85.58
X390.308Y-142.705
X390.31Y-37.94
X390.31Y-66.515
T0
M30
