G04 #@! TF.GenerationSoftware,KiCad,Pcbnew,7.0.2*
G04 #@! TF.CreationDate,2023-06-28T22:35:23-06:00*
G04 #@! TF.ProjectId,TKL_Keyboard,544b4c5f-4b65-4796-926f-6172642e6b69,rev?*
G04 #@! TF.SameCoordinates,Original*
G04 #@! TF.FileFunction,Soldermask,Top*
G04 #@! TF.FilePolarity,Negative*
%FSLAX46Y46*%
G04 Gerber Fmt 4.6, Leading zero omitted, Abs format (unit mm)*
G04 Created by KiCad (PCBNEW 7.0.2) date 2023-06-28 22:35:23*
%MOMM*%
%LPD*%
G01*
G04 APERTURE LIST*
%ADD10C,1.850000*%
%ADD11C,3.100000*%
%ADD12C,4.100000*%
%ADD13C,3.987800*%
%ADD14C,3.048000*%
%ADD15C,1.750000*%
%ADD16C,3.000000*%
%ADD17R,1.700000X1.700000*%
%ADD18O,1.700000X1.700000*%
%ADD19R,2.000000X2.000000*%
%ADD20C,2.000000*%
%ADD21R,3.200000X2.000000*%
%ADD22C,0.700000*%
%ADD23O,0.900000X1.700000*%
%ADD24O,0.900000X2.400000*%
%ADD25C,0.900000*%
G04 APERTURE END LIST*
D10*
X118528000Y-123680000D03*
D11*
X119798000Y-121140000D03*
D12*
X123608000Y-123680000D03*
D11*
X126148000Y-118600000D03*
D10*
X128688000Y-123680000D03*
X237603000Y-85580000D03*
D11*
X238873000Y-83040000D03*
D12*
X242683000Y-85580000D03*
D11*
X245223000Y-80500000D03*
D10*
X247763000Y-85580000D03*
X161403000Y-85555000D03*
D11*
X162673000Y-83015000D03*
D12*
X166483000Y-85555000D03*
D11*
X169023000Y-80475000D03*
D10*
X171563000Y-85555000D03*
X249503000Y-142705000D03*
D11*
X250773000Y-140165000D03*
D12*
X254583000Y-142705000D03*
D11*
X257123000Y-137625000D03*
D10*
X259663000Y-142705000D03*
X113750000Y-37950000D03*
D11*
X115020000Y-35410000D03*
D12*
X118830000Y-37950000D03*
D11*
X121370000Y-32870000D03*
D10*
X123910000Y-37950000D03*
D13*
X133158100Y-134450000D03*
D14*
X133158100Y-149690000D03*
D15*
X178078000Y-142705000D03*
D16*
X179348000Y-140165000D03*
D12*
X183158000Y-142705000D03*
D16*
X185698000Y-137625000D03*
D15*
X188238000Y-142705000D03*
D13*
X233157900Y-134450000D03*
D14*
X233157900Y-149690000D03*
D10*
X232828000Y-123680000D03*
D11*
X234098000Y-121140000D03*
D12*
X237908000Y-123680000D03*
D11*
X240448000Y-118600000D03*
D10*
X242988000Y-123680000D03*
X156653000Y-123655000D03*
D11*
X157923000Y-121115000D03*
D12*
X161733000Y-123655000D03*
D11*
X164273000Y-118575000D03*
D10*
X166813000Y-123655000D03*
X32803000Y-123680000D03*
D11*
X34073000Y-121140000D03*
D12*
X37883000Y-123680000D03*
D11*
X40423000Y-118600000D03*
D10*
X42963000Y-123680000D03*
X209028000Y-66505000D03*
D11*
X210298000Y-63965000D03*
D12*
X214108000Y-66505000D03*
D11*
X216648000Y-61425000D03*
D10*
X219188000Y-66505000D03*
X218555000Y-37940000D03*
D11*
X219825000Y-35400000D03*
D12*
X223635000Y-37940000D03*
D11*
X226175000Y-32860000D03*
D10*
X228715000Y-37940000D03*
X347128000Y-142730000D03*
D11*
X348398000Y-140190000D03*
D12*
X352208000Y-142730000D03*
D11*
X354748000Y-137650000D03*
D10*
X357288000Y-142730000D03*
X266175000Y-37950000D03*
D11*
X267445000Y-35410000D03*
D12*
X271255000Y-37950000D03*
D11*
X273795000Y-32870000D03*
D10*
X276335000Y-37950000D03*
X347128000Y-85555000D03*
D11*
X348398000Y-83015000D03*
D12*
X352208000Y-85555000D03*
D11*
X354748000Y-80475000D03*
D10*
X357288000Y-85555000D03*
X56628000Y-66530000D03*
D11*
X57898000Y-63990000D03*
D12*
X61708000Y-66530000D03*
D11*
X64248000Y-61450000D03*
D10*
X66788000Y-66530000D03*
X180453000Y-85580000D03*
D11*
X181723000Y-83040000D03*
D12*
X185533000Y-85580000D03*
D11*
X188073000Y-80500000D03*
D10*
X190613000Y-85580000D03*
X89953000Y-104605000D03*
D11*
X91223000Y-102065000D03*
D12*
X95033000Y-104605000D03*
D11*
X97573000Y-99525000D03*
D10*
X100113000Y-104605000D03*
X204253000Y-104605000D03*
D11*
X205523000Y-102065000D03*
D12*
X209333000Y-104605000D03*
D11*
X211873000Y-99525000D03*
D10*
X214413000Y-104605000D03*
X270928000Y-123655000D03*
D11*
X272198000Y-121115000D03*
D12*
X276008000Y-123655000D03*
D11*
X278548000Y-118575000D03*
D10*
X281088000Y-123655000D03*
X385228000Y-142705000D03*
D11*
X386498000Y-140165000D03*
D12*
X390308000Y-142705000D03*
D11*
X392848000Y-137625000D03*
D10*
X395388000Y-142705000D03*
D17*
X89600000Y-30900000D03*
D18*
X89600000Y-33440000D03*
X89600000Y-35980000D03*
X89600000Y-38520000D03*
X89600000Y-41060000D03*
D10*
X180450000Y-37925000D03*
D11*
X181720000Y-35385000D03*
D12*
X185530000Y-37925000D03*
D11*
X188070000Y-32845000D03*
D10*
X190610000Y-37925000D03*
X318553000Y-85580000D03*
D11*
X319823000Y-83040000D03*
D12*
X323633000Y-85580000D03*
D11*
X326173000Y-80500000D03*
D10*
X328713000Y-85580000D03*
X218553000Y-85555000D03*
D11*
X219823000Y-83015000D03*
D12*
X223633000Y-85555000D03*
D11*
X226173000Y-80475000D03*
D10*
X228713000Y-85555000D03*
X32803000Y-66530000D03*
D11*
X34073000Y-63990000D03*
D12*
X37883000Y-66530000D03*
D11*
X40423000Y-61450000D03*
D10*
X42963000Y-66530000D03*
X32803000Y-142730000D03*
D11*
X34073000Y-140190000D03*
D12*
X37883000Y-142730000D03*
D11*
X40423000Y-137650000D03*
D10*
X42963000Y-142730000D03*
X189978000Y-66530000D03*
D11*
X191248000Y-63990000D03*
D12*
X195058000Y-66530000D03*
D11*
X197598000Y-61450000D03*
D10*
X200138000Y-66530000D03*
X385230000Y-66515000D03*
D11*
X386500000Y-63975000D03*
D12*
X390310000Y-66515000D03*
D11*
X392850000Y-61435000D03*
D10*
X395390000Y-66515000D03*
X323330000Y-37940000D03*
D11*
X324600000Y-35400000D03*
D12*
X328410000Y-37940000D03*
D11*
X330950000Y-32860000D03*
D10*
X333490000Y-37940000D03*
X199503000Y-85580000D03*
D11*
X200773000Y-83040000D03*
D12*
X204583000Y-85580000D03*
D11*
X207123000Y-80500000D03*
D10*
X209663000Y-85580000D03*
X109028000Y-104605000D03*
D11*
X110298000Y-102065000D03*
D12*
X114108000Y-104605000D03*
D11*
X116648000Y-99525000D03*
D10*
X119188000Y-104605000D03*
X132830000Y-37965000D03*
D11*
X134100000Y-35425000D03*
D12*
X137910000Y-37965000D03*
D11*
X140450000Y-32885000D03*
D10*
X142990000Y-37965000D03*
X320928000Y-142705000D03*
D11*
X322198000Y-140165000D03*
D12*
X326008000Y-142705000D03*
D11*
X328548000Y-137625000D03*
D10*
X331088000Y-142705000D03*
X85205000Y-85580000D03*
D11*
X86475000Y-83040000D03*
D12*
X90285000Y-85580000D03*
D11*
X92825000Y-80500000D03*
D10*
X95365000Y-85580000D03*
X166153000Y-104630000D03*
D11*
X167423000Y-102090000D03*
D12*
X171233000Y-104630000D03*
D11*
X173773000Y-99550000D03*
D10*
X176313000Y-104630000D03*
X32805000Y-85565000D03*
D11*
X34075000Y-83025000D03*
D12*
X37885000Y-85565000D03*
D11*
X40425000Y-80485000D03*
D10*
X42965000Y-85565000D03*
X366178000Y-142730000D03*
D11*
X367448000Y-140190000D03*
D12*
X371258000Y-142730000D03*
D11*
X373798000Y-137650000D03*
D10*
X376338000Y-142730000D03*
X294753000Y-85580000D03*
D11*
X296023000Y-83040000D03*
D12*
X299833000Y-85580000D03*
D11*
X302373000Y-80500000D03*
D10*
X304913000Y-85580000D03*
X61380000Y-85565000D03*
D11*
X62650000Y-83025000D03*
D12*
X66460000Y-85565000D03*
D11*
X69000000Y-80485000D03*
D10*
X71540000Y-85565000D03*
X194730000Y-123680000D03*
D11*
X196000000Y-121140000D03*
D12*
X199810000Y-123680000D03*
D11*
X202350000Y-118600000D03*
D10*
X204890000Y-123680000D03*
X63755000Y-104615000D03*
D11*
X65025000Y-102075000D03*
D12*
X68835000Y-104615000D03*
D11*
X71375000Y-99535000D03*
D10*
X73915000Y-104615000D03*
D11*
X299795000Y-116670000D03*
D13*
X299795000Y-131910000D03*
D10*
X306653000Y-123655000D03*
D11*
X307923000Y-121115000D03*
D12*
X311733000Y-123655000D03*
D11*
X314273000Y-118575000D03*
D10*
X316813000Y-123655000D03*
D11*
X323671000Y-116670000D03*
D12*
X323671000Y-131910000D03*
D10*
X75678000Y-66530000D03*
D11*
X76948000Y-63990000D03*
D12*
X80758000Y-66530000D03*
D11*
X83298000Y-61450000D03*
D10*
X85838000Y-66530000D03*
D19*
X30400000Y-35375000D03*
D20*
X30400000Y-40375000D03*
X30400000Y-37875000D03*
D21*
X37900000Y-32275000D03*
X37900000Y-43475000D03*
D20*
X44900000Y-40375000D03*
X44900000Y-35375000D03*
D10*
X266178000Y-66505000D03*
D11*
X267448000Y-63965000D03*
D12*
X271258000Y-66505000D03*
D11*
X273798000Y-61425000D03*
D10*
X276338000Y-66505000D03*
X106628000Y-142705000D03*
D11*
X107898000Y-140165000D03*
D12*
X111708000Y-142705000D03*
D11*
X114248000Y-137625000D03*
D10*
X116788000Y-142705000D03*
X94730000Y-37930000D03*
D11*
X96000000Y-35390000D03*
D12*
X99810000Y-37930000D03*
D11*
X102350000Y-32850000D03*
D10*
X104890000Y-37930000D03*
D11*
X304570000Y-97620000D03*
D12*
X304570000Y-112860000D03*
D10*
X311428000Y-104605000D03*
D11*
X312698000Y-102065000D03*
D12*
X316508000Y-104605000D03*
D11*
X319048000Y-99525000D03*
D10*
X321588000Y-104605000D03*
D11*
X328446000Y-97620000D03*
D12*
X328446000Y-112860000D03*
D10*
X275703000Y-85580000D03*
D11*
X276973000Y-83040000D03*
D12*
X280783000Y-85580000D03*
D11*
X283323000Y-80500000D03*
D10*
X285863000Y-85580000D03*
X385230000Y-37940000D03*
D11*
X386500000Y-35400000D03*
D12*
X390310000Y-37940000D03*
D11*
X392850000Y-32860000D03*
D10*
X395390000Y-37940000D03*
X151875000Y-37940000D03*
D11*
X153145000Y-35400000D03*
D12*
X156955000Y-37940000D03*
D11*
X159495000Y-32860000D03*
D10*
X162035000Y-37940000D03*
X59003000Y-142730000D03*
D11*
X60273000Y-140190000D03*
D12*
X64083000Y-142730000D03*
D11*
X66623000Y-137650000D03*
D10*
X69163000Y-142730000D03*
X285228000Y-66505000D03*
D11*
X286498000Y-63965000D03*
D12*
X290308000Y-66505000D03*
D11*
X292848000Y-61425000D03*
D10*
X295388000Y-66505000D03*
X175678000Y-123680000D03*
D11*
X176948000Y-121140000D03*
D12*
X180758000Y-123680000D03*
D11*
X183298000Y-118600000D03*
D10*
X185838000Y-123680000D03*
X56625000Y-37925000D03*
D11*
X57895000Y-35385000D03*
D12*
X61705000Y-37925000D03*
D11*
X64245000Y-32845000D03*
D10*
X66785000Y-37925000D03*
D14*
X306945000Y-59545000D03*
D13*
X306945000Y-74785000D03*
D15*
X313803000Y-66530000D03*
D16*
X315073000Y-63990000D03*
D13*
X318883000Y-66530000D03*
D16*
X321423000Y-61450000D03*
D15*
X323963000Y-66530000D03*
D14*
X330821000Y-59545000D03*
D13*
X330821000Y-74785000D03*
D10*
X385228000Y-85580000D03*
D11*
X386498000Y-83040000D03*
D12*
X390308000Y-85580000D03*
D11*
X392848000Y-80500000D03*
D10*
X395388000Y-85580000D03*
X347128000Y-66530000D03*
D11*
X348398000Y-63990000D03*
D12*
X352208000Y-66530000D03*
D11*
X354748000Y-61450000D03*
D10*
X357288000Y-66530000D03*
X251878000Y-123680000D03*
D11*
X253148000Y-121140000D03*
D12*
X256958000Y-123680000D03*
D11*
X259498000Y-118600000D03*
D10*
X262038000Y-123680000D03*
X366178000Y-123680000D03*
D11*
X367448000Y-121140000D03*
D12*
X371258000Y-123680000D03*
D11*
X373798000Y-118600000D03*
D10*
X376338000Y-123680000D03*
X366178000Y-85580000D03*
D11*
X367448000Y-83040000D03*
D12*
X371258000Y-85580000D03*
D11*
X373798000Y-80500000D03*
D10*
X376338000Y-85580000D03*
X213778000Y-123680000D03*
D11*
X215048000Y-121140000D03*
D12*
X218858000Y-123680000D03*
D11*
X221398000Y-118600000D03*
D10*
X223938000Y-123680000D03*
X347130000Y-37940000D03*
D11*
X348400000Y-35400000D03*
D12*
X352210000Y-37940000D03*
D11*
X354750000Y-32860000D03*
D10*
X357290000Y-37940000D03*
X223303000Y-104605000D03*
D11*
X224573000Y-102065000D03*
D12*
X228383000Y-104605000D03*
D11*
X230923000Y-99525000D03*
D10*
X233463000Y-104605000D03*
X304255000Y-37940000D03*
D11*
X305525000Y-35400000D03*
D12*
X309335000Y-37940000D03*
D11*
X311875000Y-32860000D03*
D10*
X314415000Y-37940000D03*
X261403000Y-104605000D03*
D11*
X262673000Y-102065000D03*
D12*
X266483000Y-104605000D03*
D11*
X269023000Y-99525000D03*
D10*
X271563000Y-104605000D03*
X99478000Y-123680000D03*
D11*
X100748000Y-121140000D03*
D12*
X104558000Y-123680000D03*
D11*
X107098000Y-118600000D03*
D10*
X109638000Y-123680000D03*
X297128000Y-142730000D03*
D11*
X298398000Y-140190000D03*
D12*
X302208000Y-142730000D03*
D11*
X304748000Y-137650000D03*
D10*
X307288000Y-142730000D03*
X285205000Y-37940000D03*
D11*
X286475000Y-35400000D03*
D12*
X290285000Y-37940000D03*
D11*
X292825000Y-32860000D03*
D10*
X295365000Y-37940000D03*
X82803000Y-142730000D03*
D11*
X84073000Y-140190000D03*
D12*
X87883000Y-142730000D03*
D11*
X90423000Y-137650000D03*
D10*
X92963000Y-142730000D03*
X237600000Y-37940000D03*
D11*
X238870000Y-35400000D03*
D12*
X242680000Y-37940000D03*
D11*
X245220000Y-32860000D03*
D10*
X247760000Y-37940000D03*
X113778000Y-66505000D03*
D11*
X115048000Y-63965000D03*
D12*
X118858000Y-66505000D03*
D11*
X121398000Y-61425000D03*
D10*
X123938000Y-66505000D03*
X32803000Y-104630000D03*
D11*
X34073000Y-102090000D03*
D12*
X37883000Y-104630000D03*
D11*
X40423000Y-99550000D03*
D10*
X42963000Y-104630000D03*
X228078000Y-66505000D03*
D11*
X229348000Y-63965000D03*
D12*
X233158000Y-66505000D03*
D11*
X235698000Y-61425000D03*
D10*
X238238000Y-66505000D03*
X137578000Y-123680000D03*
D11*
X138848000Y-121140000D03*
D12*
X142658000Y-123680000D03*
D11*
X145198000Y-118600000D03*
D10*
X147738000Y-123680000D03*
X104255000Y-85565000D03*
D11*
X105525000Y-83025000D03*
D12*
X109335000Y-85565000D03*
D11*
X111875000Y-80485000D03*
D10*
X114415000Y-85565000D03*
X273328000Y-142705000D03*
D11*
X274598000Y-140165000D03*
D12*
X278408000Y-142705000D03*
D11*
X280948000Y-137625000D03*
D10*
X283488000Y-142705000D03*
X123305000Y-85565000D03*
D11*
X124575000Y-83025000D03*
D12*
X128385000Y-85565000D03*
D11*
X130925000Y-80485000D03*
D10*
X133465000Y-85565000D03*
X242353000Y-104630000D03*
D11*
X243623000Y-102090000D03*
D12*
X247433000Y-104630000D03*
D11*
X249973000Y-99550000D03*
D10*
X252513000Y-104630000D03*
X280453000Y-104630000D03*
D11*
X281723000Y-102090000D03*
D12*
X285533000Y-104630000D03*
D11*
X288073000Y-99550000D03*
D10*
X290613000Y-104630000D03*
X247128000Y-66505000D03*
D11*
X248398000Y-63965000D03*
D12*
X252208000Y-66505000D03*
D11*
X254748000Y-61425000D03*
D10*
X257288000Y-66505000D03*
X151880000Y-66530000D03*
D11*
X153150000Y-63990000D03*
D12*
X156960000Y-66530000D03*
D11*
X159500000Y-61450000D03*
D10*
X162040000Y-66530000D03*
X256653000Y-85555000D03*
D11*
X257923000Y-83015000D03*
D12*
X261733000Y-85555000D03*
D11*
X264273000Y-80475000D03*
D10*
X266813000Y-85555000D03*
X94728000Y-66540000D03*
D11*
X95998000Y-64000000D03*
D12*
X99808000Y-66540000D03*
D11*
X102348000Y-61460000D03*
D10*
X104888000Y-66540000D03*
X185203000Y-104630000D03*
D11*
X186473000Y-102090000D03*
D12*
X190283000Y-104630000D03*
D11*
X192823000Y-99550000D03*
D10*
X195363000Y-104630000D03*
X366180000Y-66505000D03*
D11*
X367450000Y-63965000D03*
D12*
X371260000Y-66505000D03*
D11*
X373800000Y-61425000D03*
D10*
X376340000Y-66505000D03*
X170928000Y-66530000D03*
D11*
X172198000Y-63990000D03*
D12*
X176008000Y-66530000D03*
D11*
X178548000Y-61450000D03*
D10*
X181088000Y-66530000D03*
X128053000Y-104605000D03*
D11*
X129323000Y-102065000D03*
D12*
X133133000Y-104605000D03*
D11*
X135673000Y-99525000D03*
D10*
X138213000Y-104605000D03*
X147103000Y-104630000D03*
D11*
X148373000Y-102090000D03*
D12*
X152183000Y-104630000D03*
D11*
X154723000Y-99550000D03*
D10*
X157263000Y-104630000D03*
X142353000Y-85555000D03*
D11*
X143623000Y-83015000D03*
D12*
X147433000Y-85555000D03*
D11*
X149973000Y-80475000D03*
D10*
X152513000Y-85555000D03*
X366180000Y-37940000D03*
D11*
X367450000Y-35400000D03*
D12*
X371260000Y-37940000D03*
D11*
X373800000Y-32860000D03*
D10*
X376340000Y-37940000D03*
X199500000Y-37940000D03*
D11*
X200770000Y-35400000D03*
D12*
X204580000Y-37940000D03*
D11*
X207120000Y-32860000D03*
D10*
X209660000Y-37940000D03*
D11*
X61670000Y-116670000D03*
D12*
X61670000Y-131910000D03*
D10*
X68528000Y-123655000D03*
D11*
X69798000Y-121115000D03*
D12*
X73608000Y-123655000D03*
D11*
X76148000Y-118575000D03*
D10*
X78688000Y-123655000D03*
D11*
X85546000Y-116670000D03*
D12*
X85546000Y-131910000D03*
D10*
X132828000Y-66505000D03*
D11*
X134098000Y-63965000D03*
D12*
X137908000Y-66505000D03*
D11*
X140448000Y-61425000D03*
D10*
X142988000Y-66505000D03*
D22*
X79500000Y-33900000D03*
X80350000Y-33900000D03*
X81200000Y-33900000D03*
X82050000Y-33900000D03*
X82900000Y-33900000D03*
X83750000Y-33900000D03*
X84600000Y-33900000D03*
X85450000Y-33900000D03*
X85450000Y-32550000D03*
X84600000Y-32550000D03*
X83750000Y-32550000D03*
X82900000Y-32550000D03*
X82050000Y-32550000D03*
X81200000Y-32550000D03*
X80350000Y-32550000D03*
X79500000Y-32550000D03*
D23*
X78150000Y-29540000D03*
D24*
X78150000Y-32920000D03*
D23*
X86800000Y-29540000D03*
D24*
X86800000Y-32920000D03*
D25*
X96750000Y-52650000D03*
X93750000Y-52650000D03*
M02*
